<svg width="398" height="57" viewBox="0 0 398 57" fill="none" xmlns="http://www.w3.org/2000/svg">
<mask id="mask0_68_527" style="mask-type:luminance" maskUnits="userSpaceOnUse" x="50" y="0" width="22" height="21">
<path d="M50.7939 0H71.4979V20.6466H50.7939V0Z" fill="white"/>
</mask>
<g mask="url(#mask0_68_527)">
<path d="M65.2105 0.0201575C65.1633 0.0201575 65.1228 0.0201579 65.0757 0.0268784C63.3166 0.329319 62.3461 2.18429 62.2046 3.8242C61.9957 5.31624 62.6562 7.22498 64.2939 7.56102C64.5298 7.60135 64.7791 7.58119 65.0083 7.5207C66.983 6.86205 67.8659 4.52989 67.5828 2.60099C67.4952 1.35762 66.5584 -5.66989e-06 65.2105 0.0201575ZM57.7363 0.100808C56.6377 0.127692 55.7818 1.23664 55.6133 2.27838C55.2426 4.34171 56.1862 6.90909 58.3428 7.56102C58.545 7.60135 58.7539 7.60807 58.9561 7.57446C60.4186 7.33251 61.0319 5.70605 60.9713 4.38875C60.9308 2.65476 60.0277 0.645202 58.2148 0.154576C58.053 0.114249 57.8913 0.094088 57.7363 0.100808ZM69.9821 5.96145C68.0883 6.0757 66.7875 7.96428 66.6056 9.72516C66.3494 10.9954 67.0301 12.6958 68.4859 12.7966C70.5145 12.7697 71.8961 10.6123 71.9568 8.75062C72.0848 7.5207 71.357 6.02865 69.9821 5.96145ZM53.3892 6.37814C52.5805 6.37142 51.7852 6.85533 51.5224 7.67528C50.8214 9.85958 52.23 12.6353 54.5552 13.0923C55.5257 13.2604 56.3816 12.5143 56.6175 11.6205C57.1297 9.71172 56.0851 7.49382 54.3126 6.62682C54.0227 6.46551 53.706 6.38486 53.3892 6.38486V6.37814ZM61.8878 10.3032C60.304 10.3099 58.7 11.1097 57.6756 12.2993C56.5703 13.6905 55.6672 15.3035 55.31 17.0577C54.8787 18.3145 55.8559 19.7729 57.2106 19.7796C58.8348 19.8267 60.2299 18.711 61.8474 18.6236C63.2223 18.4153 64.4489 19.1277 65.689 19.5982C66.7336 20.0418 68.1894 19.8737 68.7218 18.7446C69.1464 17.5953 68.5263 16.3721 68.0141 15.3506C66.9628 13.6905 65.8372 11.9498 64.1186 10.9148C63.4245 10.4913 62.6629 10.3032 61.8878 10.3032Z" fill="#F7749D"/>
</g>
<path d="M16.3098 56.8736C13.8296 56.8736 11.5786 56.43 9.57021 55.5563C7.57529 54.6624 5.8567 53.4459 4.42117 51.9001C2.99911 50.3409 1.90056 48.5396 1.13225 46.4965C0.377417 44.4533 0 42.269 0 39.9369C0 37.6114 0.377417 35.4204 1.13225 33.3773C1.90056 31.3341 2.99911 29.5463 4.42117 28.0005C5.8567 26.4413 7.57529 25.2248 9.57021 24.3444C11.5786 23.4706 13.8296 23.0271 16.3098 23.0271C18.736 23.0271 20.9736 23.3698 23.0224 24.0486C25.0712 24.7342 26.7494 25.7961 28.0636 27.2478C27.7738 27.9468 27.4975 28.6726 27.2279 29.4254C26.9718 30.1781 26.7427 30.8771 26.527 31.5223C26.3248 32.1541 26.1631 32.6648 26.0417 33.0547C25.9137 33.4512 25.853 33.6461 25.853 33.6461C25.853 33.6461 25.698 33.4445 25.3947 33.0278C25.0847 32.5976 24.5927 32.1272 23.912 31.6029C23.2448 31.0653 22.3889 30.5948 21.351 30.1781C20.3064 29.748 19.0461 29.5329 17.5768 29.5329C15.8111 29.5329 14.1801 29.9227 12.6704 30.6889C11.1742 31.4618 9.97458 32.6178 9.058 34.1569C8.14142 35.7027 7.68312 37.6383 7.68312 39.9638C7.68312 42.2758 8.14142 44.2047 9.058 45.7437C9.97458 47.2694 11.1742 48.4187 12.6704 49.1849C14.1801 49.9578 15.8111 50.3409 17.5768 50.3409C19.0461 50.3409 20.3064 50.1392 21.351 49.7225C22.3889 49.2924 23.2448 48.8219 23.912 48.2977C24.5927 47.76 25.0847 47.2896 25.3947 46.8729C25.698 46.4427 25.853 46.2277 25.853 46.2277C25.853 46.2277 25.9137 46.4293 26.0417 46.8191C26.1631 47.2156 26.3248 47.7331 26.527 48.3783C26.7427 49.0101 26.9718 49.6956 27.2279 50.4484C27.4975 51.2011 27.7738 51.927 28.0636 52.626C26.7494 54.0777 25.0712 55.153 23.0224 55.852C20.9736 56.5308 18.736 56.8736 16.3098 56.8736Z" fill="#F7749D"/>
<path d="M38.8084 56.3628H28.7529C29.1438 56.0267 29.4404 55.4487 29.6426 54.6422C29.8582 53.8223 29.9661 52.9889 29.9661 52.1421V27.7586C29.9661 26.8983 29.8582 26.0649 29.6426 25.2584C29.4404 24.4519 29.1438 23.8806 28.7529 23.5378H38.8084C38.431 23.8806 38.1344 24.4653 37.9188 25.2853C37.7166 26.0918 37.6222 26.9252 37.6222 27.7855V36.6033H46.5724V27.7586C46.5724 26.8983 46.4646 26.0649 46.2489 25.2584C46.0467 24.4519 45.7502 23.8806 45.3593 23.5378H55.4417C55.044 23.8806 54.7408 24.4653 54.5251 25.2853C54.3229 26.0918 54.2286 26.9252 54.2286 27.7855V52.1152C54.2286 52.962 54.3229 53.7954 54.5251 54.6154C54.7408 55.442 55.044 56.0267 55.4417 56.3628H45.3593C45.7502 56.0267 46.0467 55.4487 46.2489 54.6422C46.4646 53.8223 46.5724 52.9889 46.5724 52.1421V42.7328H37.6222V52.1152C37.6222 52.962 37.7166 53.7954 37.9188 54.6154C38.1344 55.442 38.431 56.0267 38.8084 56.3628Z" fill="#F7749D"/>
<path d="M56.791 56.3628C57.1819 56.0267 57.4785 55.442 57.6806 54.6154C57.8963 53.7954 58.0041 52.962 58.0041 52.1152V27.7855C58.0041 26.9252 57.8963 26.0918 57.6806 25.2853C57.4785 24.4653 57.1819 23.8806 56.791 23.5378H66.8465C66.4691 23.8806 66.1725 24.4519 65.9568 25.2584C65.7547 26.0649 65.6603 26.8983 65.6603 27.7586V52.1421C65.6603 52.9889 65.7547 53.8223 65.9568 54.6422C66.1725 55.4487 66.4691 56.0267 66.8465 56.3628H56.791Z" fill="#F7749D"/>
<path d="M85.0393 56.8736C82.5591 56.8736 80.3081 56.43 78.2997 55.5563C76.3048 54.6624 74.5862 53.4459 73.1507 51.9001C71.7286 50.3409 70.6301 48.5396 69.8617 46.4965C69.1069 44.4533 68.7295 42.269 68.7295 39.9369C68.7295 37.6114 69.1069 35.4204 69.8617 33.3773C70.6301 31.3341 71.7286 29.5463 73.1507 28.0005C74.5862 26.4413 76.3048 25.2248 78.2997 24.3444C80.3081 23.4706 82.5591 23.0271 85.0393 23.0271C87.4655 23.0271 89.7031 23.3698 91.7519 24.0486C93.8007 24.7342 95.4789 25.7961 96.7931 27.2478C96.5033 27.9468 96.227 28.6726 95.9574 29.4254C95.7013 30.1781 95.4722 30.8771 95.2565 31.5223C95.0543 32.1541 94.8925 32.6648 94.7712 33.0547C94.6432 33.4512 94.5825 33.6461 94.5825 33.6461C94.5825 33.6461 94.4275 33.4445 94.1242 33.0278C93.8142 32.5976 93.3222 32.1272 92.6415 31.6029C91.9743 31.0653 91.1184 30.5948 90.0805 30.1781C89.0359 29.748 87.7756 29.5329 86.3063 29.5329C84.5406 29.5329 82.9096 29.9227 81.3999 30.6889C79.9037 31.4618 78.7041 32.6178 77.7875 34.1569C76.8709 35.7027 76.4126 37.6383 76.4126 39.9638C76.4126 40.9719 76.5002 41.8994 76.6822 42.7597C76.8574 43.6065 77.1203 44.3727 77.464 45.0717C77.3562 43.1764 77.6594 41.4625 78.3806 39.9369C79.1152 38.3978 80.1666 37.1813 81.5347 36.2807C82.9163 35.3667 84.5069 34.9096 86.3063 34.9096C87.0072 34.9096 87.6947 35.0037 88.3821 35.1785C89.083 35.3398 89.7031 35.575 90.2422 35.8774C90.7814 36.1664 91.1386 36.4823 91.3206 36.8184V44.3189C90.6331 43.7275 89.6761 43.2032 88.436 42.7328C87.2094 42.2489 85.9289 42.0069 84.581 42.0069C83.2331 42.0069 82.0065 42.1884 80.9147 42.5446C79.8161 42.8874 79.0343 43.4183 78.5693 44.1307C78.0975 44.8499 78.111 45.7639 78.5962 46.8729C79.5263 48.0423 80.6586 48.9093 81.993 49.4806C83.3409 50.0586 84.7764 50.3409 86.3063 50.3409C87.7756 50.3409 89.0359 50.1392 90.0805 49.7225C91.1184 49.2924 91.9743 48.8219 92.6415 48.2977C93.3222 47.76 93.8142 47.2896 94.1242 46.8729C94.4275 46.4427 94.5825 46.2277 94.5825 46.2277C94.5825 46.2277 94.6432 46.4293 94.7712 46.8191C94.8925 47.2156 95.0543 47.7331 95.2565 48.3783C95.4722 49.0101 95.7013 49.6956 95.9574 50.4484C96.227 51.2011 96.5033 51.927 96.7931 52.626C95.4789 54.0777 93.8007 55.153 91.7519 55.852C89.7031 56.5308 87.4655 56.8736 85.0393 56.8736Z" fill="#F7749D"/>
<path d="M97.4824 23.5378H106.352L115.625 40.824V27.7855C115.625 26.9252 115.524 26.0918 115.329 25.2853C115.127 24.4653 114.83 23.8806 114.439 23.5378H124.495C124.117 23.8806 123.821 24.4519 123.605 25.2584C123.403 26.0649 123.309 26.8983 123.309 27.7586V52.1421C123.309 52.9889 123.403 53.8223 123.605 54.6422C123.821 55.4487 124.117 56.0267 124.495 56.3628H115.625L106.352 39.0766V52.1152C106.352 52.962 106.446 53.7954 106.648 54.6154C106.864 55.442 107.16 56.0267 107.538 56.3628H97.4824C97.8733 56.0267 98.1699 55.4487 98.372 54.6422C98.5877 53.8223 98.6955 52.9889 98.6955 52.1421V27.7586C98.6955 26.8983 98.5877 26.0649 98.372 25.2584C98.1699 24.4519 97.8733 23.8806 97.4824 23.5378Z" fill="#F7749D"/>
<path d="M125.861 50.7979C126.596 49.904 127.304 48.9698 127.991 48.002C128.672 47.0207 129.265 46.0327 129.77 45.0448C130.343 45.979 131.071 46.8393 131.954 47.6256C132.83 48.4187 133.794 49.0437 134.838 49.5075C135.897 49.9779 137.009 50.2064 138.181 50.2064C139.024 50.2064 139.812 50.0989 140.554 49.8838C141.288 49.6688 141.888 49.3327 142.36 48.8623C142.825 48.3783 143.061 47.7533 143.061 46.9804C143.061 46.2814 142.751 45.7101 142.144 45.2598C141.551 44.7961 140.756 44.413 139.772 44.1038C138.801 43.7812 137.73 43.4586 136.564 43.136C135.391 42.8134 134.218 42.4303 133.032 41.98C131.846 41.5365 130.754 40.9517 129.77 40.2326C128.8 39.5 128.005 38.5658 127.398 37.4367C126.805 36.2941 126.508 34.8962 126.508 33.2428C126.508 31.6298 126.886 30.1983 127.641 28.9415C128.409 27.6914 129.433 26.6227 130.714 25.7423C132.008 24.8484 133.443 24.1763 135.027 23.726C136.624 23.2623 138.269 23.0271 139.961 23.0271C142.131 23.0271 143.964 23.2623 145.46 23.726C146.949 24.1965 148.19 24.761 149.18 25.4197C150.164 26.0851 151 26.7034 151.687 27.2747C151.108 28.1753 150.474 29.1162 149.773 30.0975C149.086 31.0854 148.452 32.1406 147.859 33.2697C146.889 32.396 145.736 31.6231 144.409 30.9577C143.094 30.2789 141.666 29.9362 140.122 29.9362C139.401 29.9362 138.667 30.0437 137.912 30.2588C137.157 30.4604 136.517 30.783 135.998 31.2266C135.492 31.6769 135.243 32.275 135.243 33.0278C135.243 33.8007 135.526 34.419 136.105 34.8827C136.699 35.3532 137.467 35.7363 138.424 36.0387C139.394 36.3277 140.453 36.6235 141.605 36.9259C142.771 37.2149 143.93 37.5644 145.083 37.9744C146.228 38.3709 147.293 38.9086 148.264 39.5874C149.234 40.2729 150.003 41.1466 150.582 42.222C151.155 43.2973 151.445 44.6684 151.445 46.3352C151.445 48.5598 150.852 50.4618 149.666 52.0345C148.479 53.6139 146.869 54.817 144.84 55.6369C142.805 56.4569 140.513 56.8736 137.966 56.8736C136.544 56.8736 135.148 56.6988 133.787 56.3628C132.439 56.0066 131.206 55.5294 130.094 54.938C128.975 54.3465 128.052 53.6946 127.317 52.9755C126.576 52.2429 126.09 51.517 125.861 50.7979Z" fill="#F7749D"/>
<path d="M180.101 56.8736C177.621 56.8736 175.37 56.43 173.361 55.5563C171.366 54.6624 169.648 53.4459 168.212 51.9001C166.79 50.3409 165.692 48.5396 164.923 46.4965C164.168 44.4533 163.791 42.269 163.791 39.9369C163.791 37.6114 164.168 35.4204 164.923 33.3773C165.692 31.3341 166.79 29.5463 168.212 28.0005C169.648 26.4413 171.366 25.2248 173.361 24.3444C175.37 23.4706 177.621 23.0271 180.101 23.0271C182.527 23.0271 184.765 23.3698 186.813 24.0486C188.862 24.7342 190.54 25.7961 191.855 27.2478C191.565 27.9468 191.289 28.6726 191.019 29.4254C190.763 30.1781 190.534 30.8771 190.318 31.5223C190.116 32.1541 189.954 32.6648 189.833 33.0547C189.705 33.4512 189.644 33.6461 189.644 33.6461C189.644 33.6461 189.489 33.4445 189.186 33.0278C188.876 32.5976 188.384 32.1272 187.703 31.6029C187.036 31.0653 186.18 30.5948 185.142 30.1781C184.097 29.748 182.837 29.5329 181.368 29.5329C179.602 29.5329 177.971 29.9227 176.461 30.6889C174.965 31.4618 173.766 32.6178 172.849 34.1569C171.932 35.7027 171.474 37.6383 171.474 39.9638C171.474 40.9719 171.562 41.8994 171.744 42.7597C171.919 43.6065 172.182 44.3727 172.526 45.0717C172.418 43.1764 172.721 41.4625 173.442 39.9369C174.177 38.3978 175.228 37.1813 176.596 36.2807C177.978 35.3667 179.568 34.9096 181.368 34.9096C182.069 34.9096 182.756 35.0037 183.444 35.1785C184.145 35.3398 184.765 35.575 185.304 35.8774C185.843 36.1664 186.2 36.4823 186.382 36.8184V44.3189C185.695 43.7275 184.738 43.2032 183.498 42.7328C182.271 42.2489 180.99 42.0069 179.643 42.0069C178.295 42.0069 177.068 42.1884 175.976 42.5446C174.878 42.8874 174.096 43.4183 173.631 44.1307C173.159 44.8499 173.173 45.7639 173.658 46.8729C174.588 48.0423 175.72 48.9093 177.055 49.4806C178.402 50.0586 179.838 50.3409 181.368 50.3409C182.837 50.3409 184.097 50.1392 185.142 49.7225C186.18 49.2924 187.036 48.8219 187.703 48.2977C188.384 47.76 188.876 47.2896 189.186 46.8729C189.489 46.4427 189.644 46.2277 189.644 46.2277C189.644 46.2277 189.705 46.4293 189.833 46.8191C189.954 47.2156 190.116 47.7331 190.318 48.3783C190.534 49.0101 190.763 49.6956 191.019 50.4484C191.289 51.2011 191.565 51.927 191.855 52.626C190.54 54.0777 188.862 55.153 186.813 55.852C184.765 56.5308 182.527 56.8736 180.101 56.8736Z" fill="#F7749D"/>
<path d="M192.544 23.5378H201.413L210.687 40.824V27.7855C210.687 26.9252 210.586 26.0918 210.39 25.2853C210.188 24.4653 209.892 23.8806 209.501 23.5378H219.556C219.179 23.8806 218.882 24.4519 218.667 25.2584C218.464 26.0649 218.37 26.8983 218.37 27.7586V52.1421C218.37 52.9889 218.464 53.8223 218.667 54.6422C218.882 55.4487 219.179 56.0267 219.556 56.3628H210.687L201.413 39.0766V52.1152C201.413 52.962 201.508 53.7954 201.71 54.6154C201.925 55.442 202.222 56.0267 202.599 56.3628H192.544C192.935 56.0267 193.231 55.4487 193.434 54.6422C193.649 53.8223 193.757 52.9889 193.757 52.1421V27.7586C193.757 26.8983 193.649 26.0649 193.434 25.2584C193.231 24.4519 192.935 23.8806 192.544 23.5378Z" fill="#F7749D"/>
<path d="M247.978 56.8736C245.498 56.8736 243.247 56.43 241.238 55.5563C239.243 54.6624 237.525 53.4459 236.089 51.9001C234.667 50.3409 233.569 48.5396 232.8 46.4965C232.045 44.4533 231.668 42.269 231.668 39.9369C231.668 37.6114 232.045 35.4204 232.8 33.3773C233.569 31.3341 234.667 29.5463 236.089 28.0005C237.525 26.4413 239.243 25.2248 241.238 24.3444C243.247 23.4706 245.498 23.0271 247.978 23.0271C250.404 23.0271 252.642 23.3698 254.69 24.0486C256.739 24.7342 258.417 25.7961 259.732 27.2478C259.442 27.9468 259.165 28.6726 258.896 29.4254C258.64 30.1781 258.411 30.8771 258.195 31.5223C257.993 32.1541 257.831 32.6648 257.71 33.0547C257.582 33.4512 257.521 33.6461 257.521 33.6461C257.521 33.6461 257.366 33.4445 257.063 33.0278C256.753 32.5976 256.261 32.1272 255.58 31.6029C254.913 31.0653 254.057 30.5948 253.019 30.1781C251.974 29.748 250.714 29.5329 249.245 29.5329C247.479 29.5329 245.848 29.9227 244.338 30.6889C242.842 31.4618 241.643 32.6178 240.726 34.1569C239.809 35.7027 239.351 37.6383 239.351 39.9638C239.351 42.2758 239.809 44.2047 240.726 45.7437C241.643 47.2694 242.842 48.4187 244.338 49.1849C245.848 49.9578 247.479 50.3409 249.245 50.3409C250.714 50.3409 251.974 50.1392 253.019 49.7225C254.057 49.2924 254.913 48.8219 255.58 48.2977C256.261 47.76 256.753 47.2896 257.063 46.8729C257.366 46.4427 257.521 46.2277 257.521 46.2277C257.521 46.2277 257.582 46.4293 257.71 46.8191C257.831 47.2156 257.993 47.7331 258.195 48.3783C258.411 49.0101 258.64 49.6956 258.896 50.4484C259.165 51.2011 259.442 51.927 259.732 52.626C258.417 54.0777 256.739 55.153 254.69 55.852C252.642 56.5308 250.404 56.8736 247.978 56.8736Z" fill="#F7749D"/>
<path d="M263.333 56.3628C262.773 54.7498 262.315 53.2376 261.958 51.8195C261.614 50.4081 261.351 48.9563 261.176 47.4643C261.014 45.9588 260.934 44.292 260.934 42.4639C260.934 40.6022 261.163 38.7406 261.635 36.8721C262.12 34.9903 262.827 33.2294 263.764 31.5761C264.714 29.9093 265.874 28.4441 267.242 27.1671C268.623 25.8969 270.221 24.8955 272.04 24.1562C273.874 23.4034 275.895 23.0271 278.106 23.0271C279.164 23.0271 280.209 23.1548 281.233 23.4034C282.258 23.6387 283.161 23.9814 283.956 24.425C284.745 24.8753 285.304 25.413 285.627 26.038V52.1152C285.627 52.962 285.722 53.7954 285.924 54.6154C286.14 55.442 286.436 56.0267 286.814 56.3628H276.758C277.149 56.0267 277.446 55.4487 277.648 54.6422C277.863 53.8223 277.971 52.9889 277.971 52.1421V46.5771H268.805C269.055 48.4993 269.513 50.2602 270.18 51.8732C270.841 53.4728 271.703 54.9648 272.768 56.3628H263.333ZM268.859 40.0982H277.971L277.998 30.0437C276.489 30.0437 275.195 30.3528 274.116 30.9577C273.051 31.5693 272.155 32.3826 271.42 33.4041C270.699 34.4123 270.133 35.4944 269.722 36.6571C269.324 37.8265 269.035 38.9691 268.859 40.0982Z" fill="#F7749D"/>
<path d="M291.889 33.216C291.457 31.8919 291.053 30.6553 290.676 29.506C290.298 28.3433 289.853 27.2679 289.355 26.28C288.869 25.2987 288.256 24.3847 287.521 23.5378H299.437C299.06 23.9142 298.77 24.3376 298.574 24.8014C298.372 25.2517 298.278 25.7087 298.278 26.1724C298.278 26.7101 298.399 27.5166 298.655 28.592C298.925 29.6539 299.262 30.8704 299.68 32.2481C300.091 33.6327 300.529 35.0709 301.001 36.5764C301.466 38.0685 301.924 39.5202 302.376 40.9316C302.82 42.3295 303.211 43.5863 303.535 44.6953C304.054 44.124 304.539 43.3713 304.99 42.4371C305.456 41.4894 305.86 40.4477 306.204 39.3185C306.561 38.1894 306.837 37.0334 307.039 35.8506C307.235 34.6677 307.336 33.5789 307.336 32.5708C307.336 30.9779 307.188 29.6135 306.905 28.4844C306.615 27.3419 306.271 26.4077 305.88 25.6885C305.503 24.956 305.166 24.4183 304.883 24.0755C304.593 23.7193 304.451 23.5378 304.451 23.5378H312.161C312.161 23.5378 312.303 23.6588 312.593 23.8873C312.896 24.1226 313.24 24.5258 313.617 25.0971C313.995 25.6751 314.325 26.4883 314.615 27.5435C314.918 28.6054 315.073 29.9496 315.073 31.5761C315.073 33.7805 314.749 36.0119 314.102 38.2701C313.469 40.5149 312.66 42.7193 311.676 44.8835C310.685 47.0543 309.634 49.1176 308.522 51.0667C307.403 53.0023 306.365 54.7699 305.395 56.3628H299.06C298.5 54.5549 297.988 52.8881 297.523 51.3624C297.071 49.8435 296.633 48.3918 296.202 47.0073C295.784 45.6295 295.366 44.2383 294.935 42.8403C294.504 41.4289 294.032 39.9369 293.533 38.3776C293.048 36.8184 292.495 35.0978 291.889 33.216Z" fill="#F7749D"/>
<path d="M318.999 56.3628C318.44 54.7498 317.981 53.2376 317.624 51.8195C317.28 50.4081 317.017 48.9563 316.842 47.4643C316.68 45.9588 316.6 44.292 316.6 42.4639C316.6 40.6022 316.829 38.7406 317.301 36.8721C317.786 34.9903 318.493 33.2294 319.43 31.5761C320.381 29.9093 321.54 28.4441 322.908 27.1671C324.289 25.8969 325.887 24.8955 327.706 24.1562C329.54 23.4034 331.561 23.0271 333.772 23.0271C334.83 23.0271 335.875 23.1548 336.899 23.4034C337.924 23.6387 338.827 23.9814 339.622 24.425C340.411 24.8753 340.97 25.413 341.293 26.038V52.1152C341.293 52.962 341.388 53.7954 341.59 54.6154C341.806 55.442 342.102 56.0267 342.48 56.3628H332.424C332.815 56.0267 333.112 55.4487 333.314 54.6422C333.529 53.8223 333.637 52.9889 333.637 52.1421V46.5771H324.471C324.721 48.4993 325.179 50.2602 325.846 51.8732C326.507 53.4728 327.369 54.9648 328.434 56.3628H318.999ZM324.525 40.0982H333.637L333.664 30.0437C332.155 30.0437 330.861 30.3528 329.782 30.9577C328.717 31.5693 327.821 32.3826 327.086 33.4041C326.365 34.4123 325.799 35.4944 325.388 36.6571C324.99 37.8265 324.701 38.9691 324.525 40.0982Z" fill="#F7749D"/>
<path d="M343.511 56.3628C343.902 56.0267 344.198 55.442 344.4 54.6154C344.616 53.7954 344.724 52.962 344.724 52.1152V27.7855C344.724 26.9252 344.616 26.0918 344.4 25.2853C344.198 24.4653 343.902 23.8806 343.511 23.5378H353.566C353.189 23.8806 352.892 24.4519 352.677 25.2584C352.474 26.0649 352.38 26.8983 352.38 27.7586V49.9107H361.276C361.849 49.9107 362.489 49.8569 363.19 49.7494C363.891 49.6419 364.599 49.4537 365.32 49.1849C366.034 48.916 366.668 48.5262 367.207 48.002V56.3628H343.511Z" fill="#F7749D"/>
<path d="M385.403 56.8736C382.922 56.8736 380.671 56.43 378.663 55.5563C376.668 54.6624 374.949 53.4459 373.514 51.9001C372.092 50.3409 370.993 48.5396 370.225 46.4965C369.47 44.4533 369.093 42.269 369.093 39.9369C369.093 37.6114 369.47 35.4204 370.225 33.3773C370.993 31.3341 372.092 29.5463 373.514 28.0005C374.949 26.4413 376.668 25.2248 378.663 24.3444C380.671 23.4706 382.922 23.0271 385.403 23.0271C387.829 23.0271 390.066 23.3698 392.115 24.0486C394.164 24.7342 395.842 25.7961 397.156 27.2478C396.867 27.9468 396.59 28.6726 396.321 29.4254C396.065 30.1781 395.835 30.8771 395.62 31.5223C395.418 32.1541 395.256 32.6648 395.135 33.0547C395.006 33.4512 394.946 33.6461 394.946 33.6461C394.946 33.6461 394.791 33.4445 394.488 33.0278C394.177 32.5976 393.686 32.1272 393.005 31.6029C392.338 31.0653 391.482 30.5948 390.444 30.1781C389.399 29.748 388.139 29.5329 386.67 29.5329C384.904 29.5329 383.273 29.9227 381.763 30.6889C380.267 31.4618 379.067 32.6178 378.151 34.1569C377.234 35.7027 376.776 37.6383 376.776 39.9638C376.776 40.9719 376.864 41.8994 377.045 42.7597C377.221 43.6065 377.484 44.3727 377.827 45.0717C377.719 43.1764 378.023 41.4625 378.744 39.9369C379.478 38.3978 380.53 37.1813 381.898 36.2807C383.28 35.3667 384.87 34.9096 386.67 34.9096C387.371 34.9096 388.058 35.0037 388.745 35.1785C389.446 35.3398 390.066 35.575 390.606 35.8774C391.145 36.1664 391.502 36.4823 391.684 36.8184V44.3189C390.996 43.7275 390.039 43.2032 388.799 42.7328C387.573 42.2489 386.292 42.0069 384.944 42.0069C383.596 42.0069 382.37 42.1884 381.278 42.5446C380.179 42.8874 379.398 43.4183 378.933 44.1307C378.461 44.8499 378.474 45.7639 378.96 46.8729C379.89 48.0423 381.022 48.9093 382.356 49.4806C383.704 50.0586 385.14 50.3409 386.67 50.3409C388.139 50.3409 389.399 50.1392 390.444 49.7225C391.482 49.2924 392.338 48.8219 393.005 48.2977C393.686 47.76 394.177 47.2896 394.488 46.8729C394.791 46.4427 394.946 46.2277 394.946 46.2277C394.946 46.2277 395.006 46.4293 395.135 46.8191C395.256 47.2156 395.418 47.7331 395.62 48.3783C395.835 49.0101 396.065 49.6956 396.321 50.4484C396.59 51.2011 396.867 51.927 397.156 52.626C395.842 54.0777 394.164 55.153 392.115 55.852C390.066 56.5308 387.829 56.8736 385.403 56.8736Z" fill="#F7749D"/>
</svg>
