<svg width="39" height="37" viewBox="0 0 39 37" fill="none" xmlns="http://www.w3.org/2000/svg">
<path d="M6.73796 21.5008C6.82452 21.4921 6.91058 21.4834 6.99715 21.4793C7.93862 21.3538 8.76843 20.8965 9.40359 20.1922C9.91786 19.6314 10.2549 18.9532 10.449 18.1588C10.613 17.537 10.6437 16.8415 10.5397 16.1552C10.384 14.782 9.8441 13.4862 8.92363 12.3465C8.63422 11.9839 8.30179 11.6213 7.92581 11.3058C7.08781 10.5933 6.22778 10.1872 5.29911 9.96282C4.68546 9.84194 4.11536 9.79892 3.51912 9.89367C2.57765 10.0581 1.78677 10.4724 1.15161 11.1721C0.637845 11.7375 0.265968 12.5022 0.118959 13.3397C0.0241969 13.7801 -0.0234401 14.2165 0.0113913 14.6483L0.019587 14.7774C0.0329049 14.9075 0.0411006 15.0365 0.0544184 15.1661L0.0631263 15.2911C0.18811 16.2806 0.525155 17.2046 1.03072 18.0723C1.43231 18.733 1.92046 19.342 2.48237 19.8598C3.27735 20.5722 4.14148 21.0645 5.07015 21.2893C5.65357 21.5008 6.21958 21.5398 6.73796 21.5008Z" fill="#FEAE23" fill-opacity="0.4"/>
<path d="M8.17187 8.29612C8.43105 9.33227 8.86337 10.2388 9.42477 11.0163C9.98618 11.7938 10.5911 12.3552 11.3256 12.787C11.9306 13.1757 12.5786 13.3914 13.2701 13.4344H13.6153C14.3068 13.4344 14.9548 13.2618 15.5162 12.8735C16.0781 12.5713 16.5965 12.096 17.0283 11.5347C17.6332 10.7572 18.022 9.80758 18.1951 8.68487C18.2382 8.20956 18.2812 7.73476 18.2812 7.21643C18.2812 6.82819 18.2382 6.43944 18.1951 6.05069C18.1086 5.35976 17.9359 4.71235 17.6768 4.06444C17.2444 2.98475 16.6395 2.07818 15.8619 1.38724C15.3005 0.868904 14.6956 0.480155 14.0476 0.264524C13.2265 -0.0381779 12.4059 -0.0806895 11.5848 0.134941C10.8073 0.307548 10.1163 0.739321 9.51134 1.38724C8.99297 1.94859 8.64721 2.55297 8.34449 3.28694C8.04227 4.15048 7.86914 5.05757 7.86914 6.09372C7.86914 6.26632 7.91268 6.43944 7.91268 6.6981C7.95571 7.21643 8.04227 7.77779 8.17187 8.29612Z" fill="#FEAE23" fill-opacity="0.4"/>
<path d="M20.4421 10.3251C20.7443 11.1892 21.1761 11.8801 21.781 12.441C22.5591 13.1754 23.4663 13.6072 24.503 13.6502H24.7622C25.2806 13.6502 25.7559 13.5206 26.2743 13.5206C27.0088 13.2185 27.6568 12.7867 28.3048 12.1818C28.9532 11.5344 29.4711 10.8004 29.8599 9.9799C30.4218 8.81365 30.724 7.60489 30.7676 6.30958C30.7676 5.57561 30.724 4.84114 30.5514 4.19373C30.3352 3.28665 30.033 2.55269 29.5577 1.90477C28.7801 0.825595 27.7434 0.220702 26.5335 0.0480957C26.4905 0.0480957 26.4905 0.0480957 26.4469 0.0480957L25.4532 0.0480957C24.8918 0.134655 24.2869 0.307262 23.7685 0.609452C23.077 0.998202 22.4295 1.55956 21.8676 2.2505C21.2627 2.98446 20.8309 3.84801 20.4851 4.79811C20.1829 5.66166 20.0533 6.56874 20.0098 7.47531C20.0098 7.86406 20.0098 8.25281 20.0533 8.64105C20.1394 9.24594 20.269 9.8073 20.4421 10.3251Z" fill="#FEAE23" fill-opacity="0.4"/>
<mask id="mask0_68_940" style="mask-type:luminance" maskUnits="userSpaceOnUse" x="5" y="13" width="28" height="24">
<path d="M5.22656 13.6895L32.9944 13.6895V36.1048H5.22656L5.22656 13.6895Z" fill="white"/>
</mask>
<g mask="url(#mask0_68_940)">
<path d="M31.3262 24.9205C30.7648 24.1005 30.0733 23.323 29.2522 22.632C28.6908 22.1137 28.1289 21.5523 27.6541 20.948C27.1357 20.3006 26.6603 19.6091 26.2716 19.0047L25.9693 18.5299C25.6666 18.0546 25.3639 17.6234 25.0617 17.1481C24.5863 16.4571 24.1545 15.8958 23.6792 15.464C22.8581 14.6865 21.9079 14.1687 20.8276 13.9095C20.1366 13.7369 19.4021 13.6934 18.7111 13.6934C18.0626 13.6934 17.4146 13.8229 16.8097 14.0821C16.0752 14.3843 15.4272 14.8596 14.7362 15.507C14.3474 15.8958 13.9156 16.3706 13.4833 16.9324C13.0515 17.4933 12.6627 18.0546 12.2739 18.6165L12.0573 18.9617C11.5394 19.6526 11.0205 20.4296 10.4156 21.1206C9.89771 21.7255 9.42236 22.2003 8.94701 22.632C8.34207 23.1504 7.73713 23.7547 7.26179 24.4022C6.57079 25.3092 6.05242 26.3024 5.70667 27.2955C5.49102 27.9864 5.36091 28.6774 5.31789 29.3683C5.27486 29.9727 5.31789 30.6206 5.44748 31.182C5.79323 32.7795 6.61382 34.0753 7.95329 35.0249C8.73085 35.5863 9.59498 35.932 10.5887 36.018C10.7183 36.0616 10.8049 36.0616 10.9345 36.0616H11.5824C11.9712 36.0616 12.36 36.018 12.6627 35.975C13.5268 35.8024 14.3905 35.5863 15.1685 35.3701H15.2116C15.9461 35.1975 16.6806 34.9819 17.4146 34.8523C17.7174 34.8093 18.1061 34.7227 18.4949 34.7227C19.0133 34.7227 19.4886 34.7227 19.9205 34.7657C20.5254 34.8523 21.2164 34.9819 21.9509 35.1545C22.2967 35.241 22.6855 35.3701 23.0312 35.4567C23.5066 35.5863 24.0249 35.7158 24.5433 35.8454C25.0617 35.975 25.6231 36.1046 26.228 36.1046H27.2648C27.3513 36.1046 27.3949 36.0616 27.4809 35.932C27.7401 35.932 28.0428 35.8884 28.302 35.8024C28.993 35.6293 29.6845 35.3271 30.3325 34.8523C31.1966 34.2479 31.8881 33.4704 32.3199 32.5633C32.7953 31.5702 33.0109 30.534 32.9679 29.3683C32.9249 28.7204 32.7953 27.9864 32.5356 27.2955C32.2769 26.475 31.8881 25.698 31.3262 24.9205Z" fill="#FEAE23" fill-opacity="0.4"/>
</g>
<path d="M38.8812 13.3397C38.7342 12.5022 38.3623 11.7375 37.8439 11.1721C37.2093 10.4724 36.423 10.0581 35.481 9.89367C34.8802 9.79892 34.3142 9.84194 33.6969 9.96282C32.7677 10.1872 31.9123 10.5933 31.0743 11.3058C30.6984 11.6213 30.3654 11.9839 30.076 12.3465C29.156 13.4862 28.6156 14.782 28.4563 16.1552C28.357 16.8415 28.3872 17.537 28.5511 18.1588C28.7457 18.9532 29.0782 19.6314 29.5966 20.1922C30.2317 20.8965 31.061 21.3538 32.003 21.4793C32.0896 21.4834 32.1761 21.4921 32.2622 21.5008C32.7811 21.5398 33.3466 21.5008 33.9254 21.2893C34.8546 21.0645 35.7187 20.5722 36.5178 19.8598C37.0792 19.342 37.5637 18.733 37.9653 18.0723C38.4704 17.2046 38.8074 16.2806 38.9329 15.2911L38.9457 15.1661C38.9544 15.0365 38.9677 14.9075 38.9759 14.7774L38.9893 14.6483C39.0236 14.2165 38.9718 13.7801 38.8812 13.3397Z" fill="#FEAE23" fill-opacity="0.4"/>
</svg>
