<svg width="757" height="982" viewBox="0 0 757 982" fill="none" xmlns="http://www.w3.org/2000/svg">
<g filter="url(#filter0_d_88_640)">
<path d="M520.908 99.4372C521.256 99.6486 521.603 99.8587 521.938 100.087C525.814 102.272 530.208 102.9 534.57 102.056C538.075 101.408 541.248 99.821 544.214 97.3962C546.58 95.532 548.656 93.0164 550.202 90.1554C553.491 84.579 555.124 78.2088 554.893 71.3501C554.833 69.1775 554.612 66.8835 554.094 64.6431C552.968 59.6151 550.895 55.6709 548.053 52.2134C546.098 50.0311 544.087 48.2629 541.589 46.9364C537.603 44.8973 533.476 44.2178 529.127 45.0447C525.611 45.7118 522.064 47.5244 519.153 50.243C517.556 51.6238 516.148 53.1221 515.061 54.8357L514.728 55.3417C514.411 55.866 514.077 56.372 513.762 56.8943L513.442 57.3865C511.12 61.441 509.776 65.8481 509.221 70.5196C508.861 74.1237 508.97 77.7784 509.613 81.2999C510.578 86.2066 512.424 90.4843 515.264 93.9437C516.851 96.38 518.859 98.1214 520.908 99.4372Z" fill="#F7749D" fill-opacity="0.2"/>
<path d="M563.501 54.0782C561.55 58.6855 560.611 63.2961 560.52 67.7877C560.428 72.2793 561.109 76.085 562.64 79.7712C563.807 82.9311 565.623 85.5646 568.089 87.6752L569.381 88.6485C571.968 90.598 574.879 91.779 578.074 91.9093C581.028 92.3629 584.307 92.046 587.505 91.1632C591.961 89.9598 596.092 87.5032 599.905 83.7909C601.406 82.1339 602.906 80.4788 604.367 78.5396C605.462 77.0871 606.397 75.5113 607.332 73.9356C608.956 71.1065 610.135 68.1977 610.992 65.043C612.419 59.7847 612.711 54.6875 611.75 49.9103C611.111 46.3883 609.944 43.2284 608.128 40.5949C605.909 37.1475 602.959 34.675 599.279 33.1668C595.883 31.6204 592.081 31.2877 587.991 32.0063C584.469 32.6451 581.471 33.9315 578.269 35.824C574.704 38.2027 571.499 41.1083 568.578 44.9849C568.091 45.6306 567.766 46.4011 567.037 47.3688C565.737 49.4293 564.478 51.7736 563.501 54.0782Z" fill="#F7749D" fill-opacity="0.2"/>
<path d="M603.687 96.2626C602.381 100.347 602.049 104.15 602.731 107.953C603.571 112.895 605.748 117.068 609.505 120.152L610.475 120.882C612.414 122.344 614.558 123.199 616.498 124.661C620.098 125.601 623.739 125.812 627.869 125.376C632.12 124.782 636.127 123.496 639.895 121.522C645.285 118.743 649.823 115.073 653.638 110.349C655.707 107.603 657.615 104.733 658.795 101.824C660.543 97.8209 661.482 94.2229 661.53 90.4587C661.663 84.2291 659.49 79.0431 655.45 74.9864C655.289 74.865 655.289 74.865 655.126 74.7423L651.408 71.9407C649.064 70.6818 646.314 69.6221 643.523 69.2913C639.84 68.7962 635.835 69.071 631.785 70.0719C627.452 71.1124 623.402 73.1258 619.43 75.7056C615.865 78.0844 612.822 81.1127 610.104 84.3817C609.008 85.8362 607.912 87.2906 606.98 88.8659C605.597 91.3716 604.499 93.8371 603.687 96.2626Z" fill="#F7749D" fill-opacity="0.2"/>
<mask id="mask0_88_640" style="mask-type:luminance" maskUnits="userSpaceOnUse" x="474" y="65" width="168" height="164">
<path d="M537.274 65.95L641.162 144.235L577.967 228.097L474.079 149.813L537.274 65.95Z" fill="white"/>
</mask>
<g mask="url(#mask0_88_640)">
<path d="M603.255 181.549C603.466 176.899 603.071 172.04 601.947 167.14C601.308 163.618 600.788 159.934 600.716 156.334C600.602 152.451 600.773 148.524 601.022 145.166L601.23 142.538C601.437 139.906 601.521 137.439 601.73 134.809C601.899 130.884 601.867 127.566 601.305 124.611C600.425 119.387 598.33 114.771 595.019 110.756C592.921 108.162 590.295 105.928 587.71 103.98C585.284 102.152 582.494 100.81 579.501 100.074C575.901 99.1335 572.136 99.085 567.726 99.5591C565.175 99.9174 562.221 100.476 559.02 101.36C555.823 102.241 552.786 103.245 549.747 104.251L547.963 104.931C544.078 106.057 539.946 107.501 535.735 108.38C532.092 109.183 528.975 109.619 525.979 109.895C522.255 110.128 518.288 110.684 514.684 111.766C509.541 113.212 504.802 115.466 500.709 118.207C497.954 120.184 495.519 122.402 493.41 124.866C491.545 127.006 489.88 129.551 488.782 132.016C485.572 138.968 484.988 146.13 487.323 153.459C488.649 157.751 490.907 161.481 494.383 164.604C494.745 165.132 495.069 165.376 495.553 165.742L497.978 167.569C499.432 168.665 501.009 169.598 502.263 170.29C505.983 172.081 509.823 173.707 513.344 175.092L513.505 175.213C516.739 176.638 520.095 177.902 523.207 179.487C524.461 180.179 526.159 180.952 527.614 182.048C529.553 183.509 531.332 184.849 532.826 186.228C534.845 188.257 537.065 190.69 539.327 193.406C540.376 194.705 541.467 196.284 542.516 197.583C543.929 199.408 545.503 201.354 547.077 203.3C548.652 205.246 550.387 207.314 552.65 209.019L556.529 211.942C556.852 212.186 557.137 212.148 557.824 211.906C558.794 212.637 560.049 213.327 561.261 213.736C564.335 215.036 567.774 215.855 571.536 215.906C576.473 216.081 581.252 215.122 585.425 212.945C590.004 210.57 593.732 207.301 596.857 202.818C598.523 200.273 600.107 197.162 601.084 193.845C602.429 190.045 603.165 186.042 603.255 181.549Z" fill="#F7749D" fill-opacity="0.2"/>
</g>
<path d="M664.174 159.524C665.985 155.977 666.749 152.067 666.404 148.49C666.002 144.083 664.229 140.316 661.168 137.046C659.187 134.997 656.948 133.562 654.298 132.275C650.19 130.494 645.844 129.602 640.7 129.905C638.404 130.026 636.136 130.444 634.031 130.984C627.376 132.654 621.701 135.979 617.234 140.667C614.927 142.955 613.079 145.642 611.94 148.431C610.428 151.952 609.76 155.426 610.118 158.986C610.509 163.411 612.322 167.461 615.493 170.586C615.805 170.845 616.104 171.122 616.402 171.397C618.233 173.005 620.459 174.454 623.221 175.294C627.331 177.073 631.951 177.668 636.95 177.255C640.51 176.9 644.04 175.988 647.405 174.648C651.741 172.826 655.607 170.319 658.866 166.971L659.266 166.539C659.664 166.079 660.078 165.634 660.475 165.17L660.889 164.725C662.235 163.206 663.271 161.428 664.174 159.524Z" fill="#F7749D" fill-opacity="0.2"/>
</g>
<g filter="url(#filter1_d_88_640)">
<path d="M336.664 719.162C337.013 719.373 337.359 719.583 337.695 719.812C341.571 721.997 345.965 722.625 350.327 721.781C353.832 721.132 357.005 719.545 359.971 717.121C362.337 715.256 364.413 712.741 365.959 709.88C369.248 704.303 370.881 697.933 370.65 691.075C370.59 688.902 370.368 686.608 369.851 684.368C368.725 679.34 366.652 675.395 363.81 671.938C361.855 669.756 359.844 667.987 357.346 666.661C353.36 664.622 349.233 663.942 344.884 664.769C341.368 665.436 337.82 667.249 334.909 669.967C333.313 671.348 331.905 672.847 330.818 674.56L330.484 675.066C330.167 675.59 329.834 676.096 329.519 676.619L329.199 677.111C326.877 681.165 325.533 685.573 324.978 690.244C324.618 693.848 324.727 697.503 325.37 701.024C326.335 705.931 328.181 710.209 331.021 713.668C332.607 716.104 334.615 717.846 336.664 719.162Z" fill="#F7749D" fill-opacity="0.2"/>
<path d="M379.258 673.803C377.307 678.41 376.368 683.021 376.277 687.512C376.185 692.004 376.866 695.809 378.396 699.496C379.564 702.656 381.38 705.289 383.846 707.4L385.138 708.373C387.725 710.323 390.636 711.504 393.83 711.634C396.785 712.087 400.064 711.771 403.262 710.888C407.717 709.684 411.849 707.228 415.662 703.515C417.163 701.858 418.663 700.203 420.124 698.264C421.219 696.812 422.154 695.236 423.089 693.66C424.713 690.831 425.892 687.922 426.749 684.767C428.176 679.509 428.468 674.412 427.507 669.635C426.868 666.113 425.701 662.953 423.884 660.319C421.666 656.872 418.716 654.399 415.036 652.891C411.64 651.345 407.838 651.012 403.748 651.731C400.226 652.37 397.228 653.656 394.026 655.548C390.461 657.927 387.256 660.833 384.335 664.709C383.848 665.355 383.523 666.126 382.794 667.093C381.493 669.154 380.235 671.498 379.258 673.803Z" fill="#F7749D" fill-opacity="0.2"/>
<path d="M419.443 715.987C418.138 720.072 417.806 723.875 418.488 727.678C419.328 732.62 421.505 736.793 425.262 739.877L426.232 740.607C428.171 742.069 430.315 742.924 432.254 744.385C435.854 745.326 439.496 745.537 443.626 745.101C447.877 744.507 451.884 743.221 455.651 741.247C461.042 738.468 465.58 734.798 469.395 730.074C471.464 727.328 473.372 724.458 474.551 721.549C476.3 717.546 477.239 713.948 477.287 710.184C477.42 703.954 475.247 698.768 471.207 694.711C471.046 694.59 471.046 694.59 470.883 694.467L467.165 691.666C464.821 690.407 462.071 689.347 459.28 689.016C455.597 688.521 451.592 688.796 447.541 689.797C443.209 690.837 439.159 692.851 435.187 695.43C431.621 697.809 428.579 700.838 425.86 704.107C424.764 705.561 423.668 707.015 422.737 708.591C421.353 711.096 420.256 713.562 419.443 715.987Z" fill="#F7749D" fill-opacity="0.2"/>
<mask id="mask1_88_640" style="mask-type:luminance" maskUnits="userSpaceOnUse" x="289" y="685" width="168" height="163">
<path d="M353.03 685.674L456.918 763.959L393.723 847.822L289.835 769.537L353.03 685.674Z" fill="white"/>
</mask>
<g mask="url(#mask1_88_640)">
<path d="M419.012 801.274C419.223 796.623 418.828 791.765 417.704 786.865C417.065 783.343 416.545 779.658 416.473 776.058C416.358 772.175 416.529 768.248 416.779 764.891L416.987 762.262C417.194 759.63 417.277 757.164 417.487 754.533C417.656 750.608 417.623 747.29 417.062 744.335C416.182 739.111 414.087 734.495 410.776 730.48C408.678 727.886 406.052 725.652 403.467 723.704C401.041 721.876 398.251 720.534 395.257 719.798C391.657 718.858 387.893 718.809 383.483 719.283C380.932 719.642 377.978 720.201 374.777 721.084C371.58 721.965 368.543 722.969 365.504 723.975L363.72 724.656C359.835 725.781 355.703 727.225 351.492 728.104C347.849 728.907 344.732 729.344 341.736 729.619C338.012 729.853 334.044 730.408 330.441 731.49C325.298 732.936 320.559 735.19 316.466 737.931C313.711 739.908 311.276 742.126 309.167 744.59C307.302 746.73 305.637 749.275 304.539 751.741C301.329 758.692 300.745 765.854 303.079 773.183C304.406 777.475 306.664 781.205 310.139 784.328C310.502 784.857 310.825 785.101 311.31 785.466L313.734 787.293C315.189 788.389 316.766 789.322 318.02 790.015C321.74 791.805 325.58 793.431 329.101 794.816L329.261 794.937C332.496 796.362 335.852 797.627 338.964 799.211C340.218 799.904 341.916 800.676 343.371 801.772C345.31 803.233 347.089 804.574 348.583 805.952C350.602 807.981 352.822 810.414 355.083 813.131C356.133 814.429 357.224 816.008 358.273 817.307C359.686 819.132 361.26 821.078 362.834 823.024C364.408 824.971 366.143 827.038 368.407 828.744L372.285 831.667C372.609 831.911 372.893 831.872 373.581 831.63C374.55 832.361 375.806 833.051 377.018 833.46C380.091 834.761 383.53 835.58 387.293 835.63C392.23 835.805 397.009 834.846 401.182 832.669C405.76 830.294 409.488 827.025 412.614 822.543C414.28 819.997 415.864 816.886 416.84 813.569C418.186 809.77 418.922 805.767 419.012 801.274Z" fill="#F7749D" fill-opacity="0.2"/>
</g>
<path d="M479.931 779.249C481.742 775.701 482.506 771.792 482.161 768.215C481.759 763.808 479.986 760.041 476.925 756.77C474.944 754.722 472.705 753.287 470.055 751.999C465.946 750.219 461.601 749.327 456.457 749.63C454.161 749.75 451.893 750.168 449.788 750.709C443.133 752.379 437.458 755.704 432.991 760.392C430.684 762.68 428.836 765.367 427.696 768.156C426.185 771.676 425.517 775.151 425.875 778.71C426.266 783.136 428.079 787.185 431.249 790.31C431.562 790.57 431.861 790.846 432.159 791.122C433.99 792.73 436.216 794.179 438.977 795.019C443.088 796.798 447.708 797.392 452.706 796.98C456.267 796.625 459.797 795.713 463.162 794.373C467.497 792.551 471.363 790.044 474.623 786.696L475.023 786.264C475.421 785.804 475.835 785.359 476.232 784.895L476.646 784.45C477.991 782.931 479.028 781.152 479.931 779.249Z" fill="#F7749D" fill-opacity="0.2"/>
</g>
<g filter="url(#filter2_d_88_640)">
<path d="M66.8139 836.407C67.1623 836.618 67.5088 836.829 67.8442 837.057C71.7203 839.242 76.1144 839.87 80.4762 839.026C83.9814 838.378 87.1543 836.791 90.1202 834.366C92.4865 832.502 94.5624 829.986 96.1083 827.125C99.3971 821.549 101.031 815.179 100.8 808.32C100.739 806.147 100.518 803.853 100.001 801.613C98.8741 796.585 96.8016 792.641 93.9596 789.183C92.0046 787.001 89.9929 785.233 87.4951 783.906C83.5093 781.867 79.3822 781.188 75.0333 782.015C71.517 782.682 67.9698 784.494 65.0589 787.213C63.4625 788.594 62.054 790.092 60.9671 791.806L60.6338 792.312C60.3169 792.836 59.9837 793.342 59.6681 793.864L59.3484 794.356C57.0262 798.411 55.6822 802.818 55.1276 807.489C54.7673 811.094 54.8767 814.748 55.5191 818.27C56.4847 823.176 58.33 827.454 61.1705 830.914C62.7569 833.35 64.7648 835.091 66.8139 836.407Z" fill="#F7749D" fill-opacity="0.2"/>
<path d="M109.408 791.048C107.456 795.655 106.518 800.266 106.426 804.758C106.334 809.249 107.015 813.055 108.546 816.741C109.713 819.901 111.529 822.534 113.995 824.645L115.287 825.618C117.874 827.568 120.785 828.749 123.98 828.879C126.934 829.333 130.213 829.016 133.412 828.133C137.867 826.93 141.999 824.473 145.812 820.761C147.313 819.104 148.812 817.449 150.273 815.509C151.368 814.057 152.303 812.481 153.238 810.905C154.862 808.076 156.041 805.168 156.898 802.013C158.325 796.755 158.618 791.657 157.656 786.88C157.017 783.358 155.85 780.198 154.034 777.565C151.815 774.117 148.865 771.645 145.185 770.137C141.789 768.59 137.987 768.258 133.897 768.976C130.375 769.615 127.378 770.901 124.176 772.794C120.61 775.173 117.405 778.078 114.484 781.955C113.998 782.6 113.672 783.371 112.943 784.339C111.643 786.399 110.384 788.743 109.408 791.048Z" fill="#F7749D" fill-opacity="0.2"/>
<path d="M149.593 833.233C148.288 837.317 147.955 841.12 148.637 844.924C149.477 849.865 151.654 854.038 155.412 857.122L156.381 857.853C158.321 859.314 160.464 860.169 162.404 861.631C166.004 862.571 169.645 862.782 173.775 862.346C178.026 861.752 182.033 860.466 185.801 858.493C191.191 855.713 195.73 852.043 199.544 847.32C201.614 844.574 203.521 841.703 204.701 838.794C206.449 834.791 207.388 831.193 207.436 827.429C207.57 821.199 205.396 816.013 201.356 811.957C201.195 811.835 201.195 811.835 201.033 811.713L197.315 808.911C194.97 807.652 192.22 806.592 189.429 806.261C185.746 805.766 181.741 806.041 177.691 807.042C173.358 808.083 169.308 810.096 165.336 812.676C161.771 815.055 158.729 818.083 156.01 821.352C154.914 822.806 153.818 824.261 152.886 825.836C151.503 828.342 150.405 830.807 149.593 833.233Z" fill="#F7749D" fill-opacity="0.2"/>
<mask id="mask2_88_640" style="mask-type:luminance" maskUnits="userSpaceOnUse" x="19" y="802" width="169" height="164">
<path d="M83.1797 802.919L187.067 881.204L123.872 965.067L19.9847 886.782L83.1797 802.919Z" fill="white"/>
</mask>
<g mask="url(#mask2_88_640)">
<path d="M149.161 918.519C149.372 913.868 148.977 909.01 147.853 904.11C147.214 900.588 146.695 896.903 146.622 893.304C146.508 889.42 146.679 885.493 146.928 882.136L147.136 879.507C147.344 876.876 147.427 874.409 147.636 871.778C147.806 867.853 147.773 864.536 147.212 861.58C146.332 856.356 144.237 851.74 140.926 847.725C138.827 845.131 136.202 842.897 133.616 840.949C131.19 839.121 128.401 837.779 125.407 837.043C121.807 836.103 118.043 836.054 113.632 836.528C111.082 836.887 108.127 837.446 104.926 838.329C101.729 839.21 98.6921 840.214 95.6535 841.22L93.8696 841.901C89.9842 843.026 85.8523 844.47 81.6411 845.349C77.9983 846.153 74.8813 846.589 71.8856 846.864C68.161 847.098 64.1939 847.653 60.5902 848.736C55.4477 850.181 50.7084 852.435 46.6149 855.176C43.8602 857.153 41.4255 859.371 39.3165 861.835C37.4517 863.975 35.786 866.52 34.6882 868.986C31.4779 875.937 30.8947 883.099 33.2289 890.428C34.5554 894.72 36.8136 898.45 40.2888 901.574C40.6509 902.102 40.9748 902.346 41.4596 902.711L43.8839 904.538C45.3384 905.634 46.9157 906.567 48.1696 907.26C51.8892 909.05 55.7296 910.676 59.2499 912.061L59.4109 912.183C62.6456 913.608 66.0017 914.872 69.1132 916.456C70.3671 917.149 72.0656 917.921 73.5202 919.017C75.4596 920.479 77.238 921.819 78.7322 923.197C80.7514 925.226 82.9713 927.659 85.2328 930.376C86.2823 931.674 87.373 933.253 88.4225 934.552C89.8356 936.377 91.4096 938.323 92.9837 940.269C94.5578 942.216 96.2928 944.283 98.556 945.989L102.435 948.912C102.759 949.156 103.043 949.117 103.73 948.875C104.7 949.606 105.955 950.297 107.167 950.705C110.241 952.006 113.68 952.825 117.443 952.875C122.38 953.05 127.159 952.091 131.331 949.915C135.91 947.539 139.638 944.27 142.763 939.788C144.429 937.242 146.013 934.131 146.99 930.814C148.335 927.015 149.071 923.012 149.161 918.519Z" fill="#F7749D" fill-opacity="0.2"/>
</g>
<path d="M210.08 896.494C211.891 892.947 212.656 889.037 212.31 885.46C211.909 881.054 210.135 877.287 207.074 874.016C205.094 871.967 202.855 870.533 200.205 869.245C196.096 867.464 191.75 866.572 186.607 866.875C184.31 866.996 182.042 867.414 179.937 867.954C173.283 869.625 167.607 872.949 163.14 877.637C160.833 879.925 158.986 882.613 157.846 885.401C156.334 888.922 155.666 892.396 156.024 895.956C156.415 900.381 158.228 904.431 161.399 907.556C161.711 907.815 162.011 908.092 162.308 908.367C164.139 909.976 166.365 911.424 169.127 912.265C173.237 914.043 177.858 914.638 182.856 914.225C186.416 913.87 189.946 912.958 193.311 911.618C197.647 909.796 201.513 907.289 204.772 903.941L205.172 903.51C205.57 903.049 205.984 902.604 206.381 902.14L206.795 901.695C208.141 900.176 209.178 898.398 210.08 896.494Z" fill="#F7749D" fill-opacity="0.2"/>
</g>
<g filter="url(#filter3_d_88_640)">
<path d="M574.876 372.079C575.225 372.29 575.571 372.5 575.907 372.729C579.783 374.914 584.177 375.542 588.539 374.698C592.044 374.049 595.217 372.462 598.183 370.038C600.549 368.173 602.625 365.658 604.171 362.797C607.46 357.22 609.093 350.85 608.862 343.992C608.802 341.819 608.58 339.525 608.063 337.285C606.937 332.257 604.864 328.312 602.022 324.855C600.067 322.673 598.055 320.904 595.558 319.578C591.572 317.539 587.445 316.859 583.096 317.686C579.58 318.353 576.032 320.166 573.121 322.884C571.525 324.265 570.117 325.764 569.03 327.477L568.696 327.983C568.379 328.507 568.046 329.013 567.731 329.536L567.411 330.028C565.089 334.082 563.745 338.49 563.19 343.161C562.83 346.765 562.939 350.42 563.582 353.941C564.547 358.848 566.392 363.126 569.233 366.585C570.819 369.021 572.827 370.763 574.876 372.079Z" fill="#F7749D" fill-opacity="0.2"/>
<path d="M617.47 326.72C615.519 331.327 614.58 335.938 614.489 340.429C614.397 344.921 615.078 348.727 616.608 352.413C617.776 355.573 619.592 358.206 622.058 360.317L623.349 361.29C625.937 363.24 628.847 364.421 632.042 364.551C634.997 365.004 638.276 364.688 641.474 363.805C645.929 362.601 650.061 360.145 653.874 356.432C655.375 354.775 656.875 353.12 658.336 351.181C659.43 349.729 660.366 348.153 661.301 346.577C662.925 343.748 664.104 340.839 664.961 337.685C666.387 332.426 666.68 327.329 665.719 322.552C665.08 319.03 663.913 315.87 662.096 313.236C659.878 309.789 656.928 307.317 653.248 305.808C649.852 304.262 646.049 303.929 641.96 304.648C638.438 305.287 635.44 306.573 632.238 308.466C628.673 310.844 625.468 313.75 622.547 317.626C622.06 318.272 621.735 319.043 621.006 320.01C619.705 322.071 618.447 324.415 617.47 326.72Z" fill="#F7749D" fill-opacity="0.2"/>
<path d="M657.655 368.904C656.35 372.989 656.018 376.792 656.7 380.595C657.54 385.537 659.717 389.71 663.474 392.794L664.444 393.524C666.383 394.986 668.527 395.841 670.466 397.302C674.066 398.243 677.708 398.454 681.838 398.018C686.089 397.424 690.096 396.138 693.863 394.164C699.254 391.385 703.792 387.715 707.607 382.991C709.676 380.245 711.584 377.375 712.763 374.466C714.512 370.463 715.451 366.865 715.499 363.101C715.632 356.871 713.459 351.685 709.419 347.628C709.258 347.507 709.258 347.507 709.095 347.384L705.377 344.583C703.033 343.324 700.283 342.264 697.492 341.933C693.808 341.438 689.804 341.713 685.753 342.714C681.421 343.754 677.371 345.768 673.399 348.347C669.833 350.726 666.791 353.755 664.072 357.024C662.976 358.478 661.88 359.932 660.949 361.508C659.565 364.013 658.468 366.479 657.655 368.904Z" fill="#F7749D" fill-opacity="0.2"/>
<mask id="mask3_88_640" style="mask-type:luminance" maskUnits="userSpaceOnUse" x="528" y="338" width="168" height="163">
<path d="M591.242 338.591L695.13 416.876L631.935 500.739L528.047 422.454L591.242 338.591Z" fill="white"/>
</mask>
<g mask="url(#mask3_88_640)">
<path d="M657.223 454.191C657.435 449.54 657.04 444.682 655.916 439.782C655.277 436.26 654.757 432.576 654.684 428.976C654.57 425.092 654.741 421.165 654.991 417.808L655.199 415.179C655.406 412.548 655.489 410.081 655.699 407.45C655.868 403.525 655.835 400.208 655.274 397.252C654.394 392.028 652.299 387.412 648.988 383.397C646.89 380.803 644.264 378.569 641.679 376.621C639.253 374.793 636.463 373.451 633.469 372.715C629.869 371.775 626.105 371.727 621.695 372.201C619.144 372.559 616.19 373.118 612.988 374.001C609.792 374.882 606.755 375.886 603.716 376.892L601.932 377.573C598.047 378.698 593.915 380.142 589.704 381.022C586.061 381.825 582.944 382.261 579.948 382.536C576.224 382.77 572.256 383.326 568.653 384.408C563.51 385.853 558.771 388.107 554.677 390.848C551.923 392.825 549.488 395.043 547.379 397.507C545.514 399.647 543.848 402.192 542.751 404.658C539.54 411.61 538.957 418.771 541.291 426.1C542.618 430.392 544.876 434.122 548.351 437.246C548.713 437.774 549.037 438.018 549.522 438.383L551.946 440.21C553.401 441.306 554.978 442.239 556.232 442.932C559.952 444.722 563.792 446.348 567.312 447.733L567.473 447.855C570.708 449.28 574.064 450.544 577.176 452.128C578.43 452.821 580.128 453.593 581.583 454.689C583.522 456.151 585.3 457.491 586.795 458.869C588.814 460.898 591.034 463.331 593.295 466.048C594.345 467.347 595.435 468.926 596.485 470.224C597.898 472.049 599.472 473.995 601.046 475.942C602.62 477.888 604.355 479.955 606.619 481.661L610.497 484.584C610.821 484.828 611.105 484.79 611.793 484.547C612.762 485.278 614.018 485.969 615.23 486.377C618.303 487.678 621.742 488.497 625.505 488.547C630.442 488.722 635.221 487.763 639.394 485.587C643.972 483.211 647.7 479.943 650.826 475.46C652.492 472.915 654.076 469.803 655.052 466.486C656.398 462.687 657.134 458.684 657.223 454.191Z" fill="#F7749D" fill-opacity="0.2"/>
</g>
<path d="M718.143 432.166C719.954 428.618 720.718 424.709 720.373 421.132C719.971 416.725 718.198 412.958 715.137 409.687C713.156 407.639 710.917 406.204 708.267 404.916C704.158 403.136 699.813 402.244 694.669 402.547C692.373 402.667 690.105 403.085 688 403.626C681.345 405.296 675.67 408.621 671.203 413.309C668.896 415.597 667.048 418.284 665.908 421.073C664.397 424.593 663.729 428.068 664.087 431.627C664.478 436.053 666.291 440.102 669.461 443.227C669.774 443.487 670.073 443.763 670.37 444.039C672.202 445.647 674.427 447.096 677.189 447.936C681.3 449.715 685.92 450.309 690.918 449.897C694.479 449.542 698.008 448.63 701.374 447.29C705.709 445.468 709.575 442.961 712.835 439.613L713.235 439.181C713.633 438.721 714.046 438.276 714.444 437.812L714.858 437.367C716.203 435.848 717.24 434.069 718.143 432.166Z" fill="#F7749D" fill-opacity="0.2"/>
</g>
<g filter="url(#filter4_d_88_640)">
<path d="M273.389 446.52C273.738 446.732 274.084 446.942 274.419 447.17C278.296 449.355 282.69 449.983 287.051 449.139C290.557 448.491 293.729 446.904 296.695 444.479C299.062 442.615 301.138 440.099 302.684 437.238C305.972 431.662 307.606 425.292 307.375 418.433C307.314 416.26 307.093 413.966 306.576 411.726C305.449 406.698 303.377 402.754 300.535 399.296C298.58 397.114 296.568 395.346 294.07 394.019C290.084 391.98 285.957 391.301 281.609 392.128C278.092 392.795 274.545 394.607 271.634 397.326C270.038 398.707 268.629 400.205 267.542 401.919L267.209 402.425C266.892 402.949 266.559 403.455 266.243 403.977L265.924 404.469C263.601 408.524 262.257 412.931 261.703 417.602C261.342 421.207 261.452 424.861 262.094 428.383C263.06 433.29 264.905 437.567 267.746 441.027C269.332 443.463 271.34 445.204 273.389 446.52Z" fill="#F7749D" fill-opacity="0.2"/>
<path d="M315.983 401.161C314.031 405.768 313.093 410.379 313.001 414.871C312.91 419.362 313.59 423.168 315.121 426.854C316.288 430.014 318.105 432.648 320.57 434.758L321.862 435.731C324.449 437.681 327.36 438.862 330.555 438.992C333.509 439.446 336.789 439.129 339.987 438.246C344.442 437.043 348.574 434.586 352.387 430.874C353.888 429.217 355.387 427.562 356.849 425.622C357.943 424.17 358.878 422.594 359.813 421.018C361.437 418.189 362.617 415.281 363.474 412.126C364.9 406.868 365.193 401.77 364.232 396.993C363.593 393.471 362.425 390.311 360.609 387.678C358.39 384.23 355.44 381.758 351.76 380.25C348.365 378.703 344.562 378.371 340.472 379.089C336.95 379.728 333.953 381.014 330.751 382.907C327.186 385.286 323.981 388.191 321.059 392.068C320.573 392.714 320.248 393.484 319.518 394.452C318.218 396.512 316.959 398.856 315.983 401.161Z" fill="#F7749D" fill-opacity="0.2"/>
<path d="M356.168 443.346C354.863 447.431 354.53 451.233 355.212 455.037C356.053 459.978 358.229 464.151 361.987 467.235L362.957 467.966C364.896 469.427 367.04 470.282 368.979 471.744C372.579 472.684 376.221 472.895 380.35 472.459C384.602 471.865 388.608 470.579 392.376 468.606C397.766 465.826 402.305 462.156 406.12 457.433C408.189 454.687 410.097 451.816 411.276 448.907C413.025 444.904 413.963 441.306 414.011 437.542C414.145 431.312 411.971 426.126 407.932 422.07C407.771 421.948 407.771 421.948 407.608 421.826L403.89 419.024C401.546 417.765 398.796 416.705 396.004 416.375C392.321 415.879 388.316 416.154 384.266 417.155C379.933 418.196 375.883 420.209 371.911 422.789C368.346 425.168 365.304 428.196 362.585 431.465C361.489 432.919 360.393 434.374 359.461 435.949C358.078 438.455 356.98 440.92 356.168 443.346Z" fill="#F7749D" fill-opacity="0.2"/>
<mask id="mask4_88_640" style="mask-type:luminance" maskUnits="userSpaceOnUse" x="226" y="413" width="168" height="163">
<path d="M289.756 413.033L393.643 491.318L330.448 575.18L226.561 496.896L289.756 413.033Z" fill="white"/>
</mask>
<g mask="url(#mask4_88_640)">
<path d="M355.736 528.632C355.948 523.982 355.552 519.123 354.428 514.223C353.789 510.701 353.27 507.017 353.197 503.417C353.083 499.534 353.254 495.606 353.503 492.249L353.711 489.621C353.919 486.989 354.002 484.522 354.211 481.892C354.381 477.967 354.348 474.649 353.787 471.694C352.907 466.47 350.812 461.854 347.501 457.838C345.402 455.245 342.777 453.011 340.192 451.063C337.766 449.235 334.976 447.893 331.982 447.157C328.382 446.216 324.618 446.168 320.207 446.642C317.657 447 314.703 447.559 311.501 448.443C308.304 449.323 305.267 450.328 302.229 451.334L300.445 452.014C296.559 453.139 292.428 454.583 288.216 455.463C284.573 456.266 281.456 456.702 278.461 456.978C274.736 457.211 270.769 457.767 267.165 458.849C262.023 460.295 257.284 462.549 253.19 465.29C250.435 467.267 248.001 469.485 245.892 471.949C244.027 474.088 242.361 476.634 241.263 479.099C238.053 486.051 237.47 493.212 239.804 500.542C241.131 504.834 243.389 508.564 246.864 511.687C247.226 512.215 247.55 512.459 248.035 512.825L250.459 514.651C251.914 515.748 253.491 516.681 254.745 517.373C258.464 519.164 262.305 520.79 265.825 522.175L265.986 522.296C269.221 523.721 272.577 524.985 275.688 526.57C276.942 527.262 278.641 528.035 280.095 529.131C282.035 530.592 283.813 531.932 285.307 533.311C287.327 535.34 289.547 537.773 291.808 540.489C292.858 541.788 293.948 543.367 294.998 544.666C296.411 546.491 297.985 548.437 299.559 550.383C301.133 552.329 302.868 554.397 305.131 556.102L309.01 559.025C309.334 559.269 309.618 559.231 310.305 558.989C311.275 559.72 312.53 560.41 313.743 560.819C316.816 562.119 320.255 562.938 324.018 562.989C328.955 563.164 333.734 562.204 337.907 560.028C342.485 557.653 346.213 554.384 349.339 549.901C351.004 547.356 352.589 544.245 353.565 540.927C354.91 537.128 355.646 533.125 355.736 528.632Z" fill="#F7749D" fill-opacity="0.2"/>
</g>
<path d="M416.655 506.607C418.466 503.06 419.231 499.15 418.886 495.573C418.484 491.167 416.71 487.4 413.65 484.129C411.669 482.08 409.43 480.646 406.78 479.358C402.671 477.577 398.326 476.685 393.182 476.988C390.886 477.109 388.618 477.527 386.513 478.068C379.858 479.738 374.183 483.062 369.715 487.75C367.409 490.038 365.561 492.726 364.421 495.514C362.91 499.035 362.241 502.509 362.6 506.069C362.99 510.494 364.804 514.544 367.974 517.669C368.286 517.928 368.586 518.205 368.883 518.48C370.715 520.089 372.94 521.537 375.702 522.378C379.812 524.156 384.433 524.751 389.431 524.338C392.991 523.983 396.521 523.071 399.886 521.731C404.222 519.909 408.088 517.402 411.347 514.054L411.748 513.623C412.145 513.162 412.559 512.717 412.957 512.253L413.37 511.808C414.716 510.289 415.753 508.511 416.655 506.607Z" fill="#F7749D" fill-opacity="0.2"/>
</g>
<defs>
<filter id="filter0_d_88_640" x="481.902" y="30.6442" width="188.583" height="192.282" filterUnits="userSpaceOnUse" color-interpolation-filters="sRGB">
<feFlood flood-opacity="0" result="BackgroundImageFix"/>
<feColorMatrix in="SourceAlpha" type="matrix" values="0 0 0 0 0 0 0 0 0 0 0 0 0 0 0 0 0 0 127 0" result="hardAlpha"/>
<feOffset dy="3"/>
<feGaussianBlur stdDeviation="2"/>
<feComposite in2="hardAlpha" operator="out"/>
<feColorMatrix type="matrix" values="0 0 0 0 0 0 0 0 0 0 0 0 0 0 0 0 0 0 0.25 0"/>
<feBlend mode="normal" in2="BackgroundImageFix" result="effect1_dropShadow_88_640"/>
<feBlend mode="normal" in="SourceGraphic" in2="effect1_dropShadow_88_640" result="shape"/>
</filter>
<filter id="filter1_d_88_640" x="297.659" y="650.369" width="188.583" height="192.281" filterUnits="userSpaceOnUse" color-interpolation-filters="sRGB">
<feFlood flood-opacity="0" result="BackgroundImageFix"/>
<feColorMatrix in="SourceAlpha" type="matrix" values="0 0 0 0 0 0 0 0 0 0 0 0 0 0 0 0 0 0 127 0" result="hardAlpha"/>
<feOffset dy="3"/>
<feGaussianBlur stdDeviation="2"/>
<feComposite in2="hardAlpha" operator="out"/>
<feColorMatrix type="matrix" values="0 0 0 0 0 0 0 0 0 0 0 0 0 0 0 0 0 0 0.25 0"/>
<feBlend mode="normal" in2="BackgroundImageFix" result="effect1_dropShadow_88_640"/>
<feBlend mode="normal" in="SourceGraphic" in2="effect1_dropShadow_88_640" result="shape"/>
</filter>
<filter id="filter2_d_88_640" x="27.8086" y="767.614" width="188.583" height="192.281" filterUnits="userSpaceOnUse" color-interpolation-filters="sRGB">
<feFlood flood-opacity="0" result="BackgroundImageFix"/>
<feColorMatrix in="SourceAlpha" type="matrix" values="0 0 0 0 0 0 0 0 0 0 0 0 0 0 0 0 0 0 127 0" result="hardAlpha"/>
<feOffset dy="3"/>
<feGaussianBlur stdDeviation="2"/>
<feComposite in2="hardAlpha" operator="out"/>
<feColorMatrix type="matrix" values="0 0 0 0 0 0 0 0 0 0 0 0 0 0 0 0 0 0 0.25 0"/>
<feBlend mode="normal" in2="BackgroundImageFix" result="effect1_dropShadow_88_640"/>
<feBlend mode="normal" in="SourceGraphic" in2="effect1_dropShadow_88_640" result="shape"/>
</filter>
<filter id="filter3_d_88_640" x="535.871" y="303.286" width="188.583" height="192.282" filterUnits="userSpaceOnUse" color-interpolation-filters="sRGB">
<feFlood flood-opacity="0" result="BackgroundImageFix"/>
<feColorMatrix in="SourceAlpha" type="matrix" values="0 0 0 0 0 0 0 0 0 0 0 0 0 0 0 0 0 0 127 0" result="hardAlpha"/>
<feOffset dy="3"/>
<feGaussianBlur stdDeviation="2"/>
<feComposite in2="hardAlpha" operator="out"/>
<feColorMatrix type="matrix" values="0 0 0 0 0 0 0 0 0 0 0 0 0 0 0 0 0 0 0.25 0"/>
<feBlend mode="normal" in2="BackgroundImageFix" result="effect1_dropShadow_88_640"/>
<feBlend mode="normal" in="SourceGraphic" in2="effect1_dropShadow_88_640" result="shape"/>
</filter>
<filter id="filter4_d_88_640" x="234.384" y="377.727" width="188.583" height="192.282" filterUnits="userSpaceOnUse" color-interpolation-filters="sRGB">
<feFlood flood-opacity="0" result="BackgroundImageFix"/>
<feColorMatrix in="SourceAlpha" type="matrix" values="0 0 0 0 0 0 0 0 0 0 0 0 0 0 0 0 0 0 127 0" result="hardAlpha"/>
<feOffset dy="3"/>
<feGaussianBlur stdDeviation="2"/>
<feComposite in2="hardAlpha" operator="out"/>
<feColorMatrix type="matrix" values="0 0 0 0 0 0 0 0 0 0 0 0 0 0 0 0 0 0 0.25 0"/>
<feBlend mode="normal" in2="BackgroundImageFix" result="effect1_dropShadow_88_640"/>
<feBlend mode="normal" in="SourceGraphic" in2="effect1_dropShadow_88_640" result="shape"/>
</filter>
</defs>
</svg>
