<svg width="813" height="1056" viewBox="0 0 813 1056" fill="none" xmlns="http://www.w3.org/2000/svg">
<g filter="url(#filter0_d_88_702)">
<path d="M559.338 106.862C559.712 107.089 560.084 107.315 560.445 107.561C564.61 109.909 569.333 110.584 574.02 109.677C577.787 108.98 581.197 107.275 584.384 104.669C586.927 102.665 589.158 99.9619 590.819 96.8874C594.354 90.8945 596.109 84.0487 595.861 76.6778C595.796 74.3429 595.558 71.8777 595.002 69.4701C593.792 64.0666 591.564 59.8278 588.51 56.1122C586.409 53.7669 584.247 51.8666 581.563 50.4412C577.28 48.2497 572.844 47.5196 568.171 48.4082C564.392 49.1251 560.58 51.073 557.452 53.9946C555.736 55.4785 554.222 57.0887 553.054 58.9303L552.696 59.4741C552.355 60.0375 551.997 60.5813 551.658 61.1426L551.315 61.6715C548.819 66.0288 547.375 70.765 546.779 75.7853C546.391 79.6586 546.509 83.5861 547.199 87.3706C548.237 92.6437 550.22 97.2408 553.273 100.959C554.978 103.577 557.135 105.448 559.338 106.862Z" fill="#72B5F4" fill-opacity="0.2"/>
<path d="M605.112 58.1161C603.015 63.0675 602.006 68.0223 601.908 72.8493C601.809 77.6763 602.541 81.7662 604.186 85.7277C605.44 89.1235 607.392 91.9537 610.042 94.2218L611.43 95.2678C614.211 97.3629 617.339 98.6321 620.772 98.7721C623.947 99.2596 627.471 98.9191 630.908 97.9703C635.696 96.6771 640.136 94.037 644.234 90.0475C645.847 88.2668 647.459 86.4881 649.029 84.4041C650.206 82.8431 651.21 81.1497 652.215 79.4563C653.961 76.416 655.228 73.29 656.149 69.8997C657.682 64.2488 657.996 58.7709 656.964 53.637C656.277 49.852 655.022 46.4562 653.07 43.626C650.686 39.9212 647.516 37.264 643.561 35.6433C639.912 33.9814 635.825 33.6239 631.43 34.3961C627.645 35.0826 624.424 36.465 620.983 38.4989C617.151 41.0552 613.707 44.1778 610.568 48.3438C610.045 49.0378 609.695 49.8658 608.911 50.9057C607.514 53.1201 606.161 55.6395 605.112 58.1161Z" fill="#72B5F4" fill-opacity="0.2"/>
<path d="M648.298 103.451C646.895 107.84 646.538 111.927 647.271 116.015C648.174 121.325 650.513 125.809 654.551 129.124L655.594 129.909C657.678 131.479 659.982 132.399 662.066 133.969C665.935 134.98 669.848 135.207 674.286 134.738C678.855 134.1 683.161 132.718 687.21 130.597C693.003 127.61 697.88 123.666 701.98 118.589C704.203 115.638 706.254 112.553 707.521 109.427C709.4 105.125 710.409 101.259 710.461 97.2134C710.604 90.5186 708.268 84.9454 703.927 80.5857C703.754 80.4554 703.754 80.4554 703.579 80.3234L699.583 77.3127C697.064 75.9598 694.109 74.8209 691.109 74.4654C687.151 73.9333 682.847 74.2287 678.494 75.3043C673.838 76.4225 669.486 78.5862 665.217 81.3587C661.385 83.9151 658.116 87.1696 655.194 90.6827C654.016 92.2457 652.839 93.8087 651.837 95.5016C650.351 98.1944 649.171 100.844 648.298 103.451Z" fill="#72B5F4" fill-opacity="0.2"/>
<mask id="mask0_88_702" style="mask-type:luminance" maskUnits="userSpaceOnUse" x="509" y="70" width="180" height="176">
<path d="M576.926 70.8744L688.571 155.005L620.657 245.13L509.012 160.999L576.926 70.8744Z" fill="white"/>
</mask>
<g mask="url(#mask0_88_702)">
<path d="M647.833 195.106C648.061 190.108 647.636 184.887 646.428 179.621C645.741 175.836 645.183 171.876 645.105 168.008C644.982 163.834 645.166 159.614 645.434 156.006L645.657 153.181C645.88 150.353 645.97 147.702 646.195 144.875C646.377 140.657 646.342 137.092 645.739 133.915C644.793 128.302 642.541 123.341 638.983 119.026C636.728 116.238 633.906 113.838 631.128 111.744C628.521 109.779 625.523 108.337 622.306 107.546C618.437 106.536 614.391 106.484 609.652 106.993C606.911 107.378 603.736 107.979 600.295 108.928C596.86 109.875 593.596 110.954 590.33 112.035L588.413 112.767C584.238 113.976 579.797 115.528 575.272 116.473C571.357 117.336 568.007 117.805 564.788 118.101C560.785 118.352 556.522 118.949 552.649 120.112C547.123 121.665 542.029 124.088 537.63 127.033C534.67 129.158 532.053 131.542 529.787 134.189C527.783 136.489 525.993 139.225 524.813 141.874C521.363 149.345 520.736 157.041 523.245 164.917C524.67 169.53 527.097 173.538 530.832 176.895C531.221 177.463 531.569 177.725 532.09 178.118L534.695 180.081C536.258 181.259 537.953 182.262 539.301 183.006C543.298 184.93 547.425 186.678 551.209 188.166L551.382 188.296C554.858 189.828 558.465 191.186 561.808 192.889C563.156 193.633 564.981 194.463 566.544 195.641C568.629 197.212 570.54 198.652 572.146 200.133C574.316 202.314 576.701 204.929 579.132 207.848C580.26 209.244 581.432 210.941 582.56 212.336C584.078 214.297 585.77 216.389 587.461 218.481C589.153 220.572 591.018 222.794 593.45 224.627L597.618 227.768C597.966 228.03 598.272 227.989 599.01 227.729C600.052 228.514 601.401 229.256 602.704 229.696C606.007 231.093 609.703 231.973 613.747 232.028C619.052 232.216 624.188 231.185 628.673 228.846C633.593 226.293 637.599 222.78 640.958 217.963C642.748 215.228 644.451 211.884 645.5 208.319C646.946 204.236 647.737 199.934 647.833 195.106Z" fill="#72B5F4" fill-opacity="0.2"/>
</g>
<path d="M713.301 171.436C715.248 167.624 716.069 163.422 715.698 159.578C715.266 154.842 713.36 150.794 710.071 147.279C707.942 145.078 705.536 143.536 702.688 142.152C698.273 140.238 693.603 139.28 688.075 139.605C685.607 139.735 683.17 140.184 680.908 140.765C673.756 142.56 667.657 146.133 662.856 151.171C660.377 153.63 658.391 156.518 657.167 159.514C655.542 163.298 654.824 167.032 655.209 170.857C655.629 175.613 657.578 179.965 660.985 183.323C661.321 183.602 661.642 183.9 661.962 184.195C663.93 185.924 666.322 187.481 669.29 188.384C673.707 190.295 678.673 190.934 684.044 190.491C687.87 190.11 691.664 189.129 695.28 187.689C699.94 185.731 704.094 183.037 707.597 179.439L708.027 178.975C708.455 178.48 708.899 178.002 709.326 177.504L709.771 177.025C711.217 175.393 712.331 173.482 713.301 171.436Z" fill="#72B5F4" fill-opacity="0.2"/>
</g>
<g filter="url(#filter1_d_88_702)">
<path d="M361.338 772.862C361.712 773.089 362.084 773.315 362.445 773.561C366.61 775.909 371.333 776.584 376.02 775.677C379.787 774.98 383.197 773.275 386.384 770.669C388.927 768.665 391.158 765.962 392.819 762.887C396.354 756.895 398.109 750.049 397.861 742.678C397.796 740.343 397.558 737.878 397.002 735.47C395.792 730.067 393.564 725.828 390.51 722.112C388.409 719.767 386.247 717.867 383.563 716.441C379.28 714.25 374.844 713.52 370.171 714.408C366.392 715.125 362.58 717.073 359.452 719.995C357.736 721.479 356.222 723.089 355.054 724.93L354.696 725.474C354.355 726.038 353.997 726.581 353.658 727.143L353.315 727.672C350.819 732.029 349.375 736.765 348.779 741.785C348.391 745.659 348.509 749.586 349.199 753.371C350.237 758.644 352.22 763.241 355.273 766.959C356.978 769.577 359.135 771.448 361.338 772.862Z" fill="#72B5F4" fill-opacity="0.2"/>
<path d="M407.112 724.116C405.015 729.068 404.006 734.022 403.908 738.849C403.809 743.676 404.541 747.766 406.186 751.728C407.44 755.124 409.392 757.954 412.042 760.222L413.43 761.268C416.211 763.363 419.339 764.632 422.772 764.772C425.947 765.26 429.471 764.919 432.908 763.97C437.696 762.677 442.136 760.037 446.234 756.048C447.847 754.267 449.459 752.488 451.029 750.404C452.206 748.843 453.21 747.15 454.215 745.456C455.961 742.416 457.228 739.29 458.149 735.9C459.682 730.249 459.996 724.771 458.964 719.637C458.277 715.852 457.022 712.456 455.07 709.626C452.686 705.921 449.516 703.264 445.561 701.643C441.912 699.981 437.825 699.624 433.43 700.396C429.645 701.083 426.424 702.465 422.983 704.499C419.151 707.055 415.707 710.178 412.568 714.344C412.045 715.038 411.695 715.866 410.911 716.906C409.514 719.12 408.161 721.64 407.112 724.116Z" fill="#72B5F4" fill-opacity="0.2"/>
<path d="M450.298 769.451C448.895 773.84 448.538 777.927 449.271 782.014C450.174 787.325 452.513 791.809 456.551 795.124L457.594 795.909C459.678 797.479 461.982 798.399 464.066 799.969C467.935 800.98 471.848 801.207 476.286 800.738C480.855 800.1 485.161 798.718 489.21 796.596C495.003 793.61 499.88 789.665 503.98 784.589C506.203 781.638 508.254 778.553 509.521 775.427C511.4 771.125 512.409 767.259 512.461 763.213C512.604 756.519 510.268 750.945 505.927 746.586C505.754 746.455 505.754 746.455 505.579 746.323L501.583 743.313C499.064 741.96 496.109 740.821 493.109 740.465C489.151 739.933 484.847 740.229 480.494 741.304C475.838 742.422 471.486 744.586 467.217 747.359C463.385 749.915 460.116 753.169 457.194 756.683C456.016 758.246 454.839 759.809 453.837 761.502C452.351 764.194 451.171 766.844 450.298 769.451Z" fill="#72B5F4" fill-opacity="0.2"/>
<mask id="mask1_88_702" style="mask-type:luminance" maskUnits="userSpaceOnUse" x="311" y="736" width="180" height="176">
<path d="M378.926 736.874L490.571 821.005L422.657 911.13L311.012 826.999L378.926 736.874Z" fill="white"/>
</mask>
<g mask="url(#mask1_88_702)">
<path d="M449.833 861.106C450.061 856.108 449.636 850.887 448.428 845.621C447.741 841.836 447.183 837.876 447.105 834.008C446.982 829.834 447.166 825.614 447.434 822.006L447.657 819.181C447.88 816.353 447.97 813.702 448.195 810.875C448.377 806.657 448.342 803.092 447.739 799.915C446.793 794.302 444.541 789.341 440.983 785.026C438.728 782.238 435.906 779.838 433.128 777.744C430.521 775.779 427.523 774.337 424.306 773.546C420.437 772.536 416.391 772.484 411.652 772.993C408.911 773.378 405.736 773.979 402.295 774.928C398.86 775.875 395.596 776.954 392.33 778.035L390.413 778.767C386.238 779.976 381.797 781.528 377.272 782.473C373.357 783.336 370.007 783.805 366.788 784.101C362.785 784.352 358.522 784.949 354.649 786.112C349.123 787.665 344.029 790.088 339.63 793.033C336.67 795.158 334.053 797.542 331.787 800.189C329.783 802.489 327.993 805.225 326.813 807.874C323.363 815.345 322.736 823.041 325.245 830.917C326.67 835.53 329.097 839.538 332.832 842.895C333.221 843.463 333.569 843.725 334.09 844.118L336.695 846.081C338.258 847.259 339.953 848.262 341.301 849.006C345.298 850.93 349.425 852.678 353.209 854.166L353.382 854.296C356.858 855.828 360.465 857.186 363.808 858.889C365.156 859.633 366.981 860.463 368.544 861.641C370.629 863.212 372.54 864.652 374.146 866.133C376.316 868.314 378.701 870.929 381.132 873.848C382.26 875.244 383.432 876.941 384.56 878.336C386.078 880.297 387.77 882.389 389.461 884.481C391.153 886.572 393.018 888.794 395.45 890.627L399.618 893.768C399.966 894.03 400.272 893.989 401.01 893.729C402.052 894.514 403.401 895.256 404.704 895.696C408.007 897.093 411.703 897.973 415.747 898.028C421.052 898.216 426.188 897.185 430.673 894.846C435.593 892.293 439.599 888.78 442.958 883.963C444.748 881.228 446.451 877.884 447.5 874.319C448.946 870.236 449.737 865.934 449.833 861.106Z" fill="#72B5F4" fill-opacity="0.2"/>
</g>
<path d="M515.301 837.436C517.248 833.624 518.069 829.422 517.698 825.578C517.266 820.842 515.36 816.794 512.071 813.279C509.942 811.078 507.536 809.536 504.688 808.152C500.273 806.238 495.603 805.28 490.075 805.605C487.607 805.735 485.17 806.184 482.908 806.765C475.756 808.56 469.657 812.133 464.856 817.171C462.377 819.63 460.391 822.518 459.167 825.514C457.542 829.298 456.824 833.032 457.209 836.857C457.629 841.613 459.578 845.965 462.985 849.324C463.321 849.602 463.642 849.9 463.962 850.195C465.93 851.924 468.322 853.481 471.29 854.384C475.707 856.295 480.673 856.934 486.044 856.491C489.87 856.11 493.664 855.129 497.28 853.689C501.94 851.731 506.094 849.037 509.597 845.439L510.027 844.975C510.455 844.481 510.899 844.002 511.326 843.504L511.771 843.025C513.217 841.393 514.331 839.482 515.301 837.436Z" fill="#72B5F4" fill-opacity="0.2"/>
</g>
<g filter="url(#filter2_d_88_702)">
<path d="M71.3376 898.862C71.712 899.089 72.0844 899.315 72.4448 899.561C76.6104 901.909 81.3325 902.584 86.02 901.677C89.787 900.98 93.1968 899.275 96.3842 896.669C98.9271 894.665 101.158 891.962 102.819 888.887C106.354 882.895 108.109 876.049 107.861 868.678C107.796 866.343 107.558 863.878 107.002 861.47C105.792 856.067 103.564 851.828 100.51 848.112C98.4093 845.767 96.2474 843.867 93.5631 842.441C89.2796 840.25 84.8443 839.52 80.1708 840.408C76.3919 841.125 72.5798 843.073 69.4515 845.995C67.736 847.479 66.2223 849.089 65.0541 850.93L64.696 851.474C64.3554 852.038 63.9973 852.581 63.6582 853.143L63.3146 853.672C60.819 858.029 59.3747 862.765 58.7786 867.785C58.3914 871.659 58.509 875.586 59.1993 879.371C60.2371 884.644 62.2202 889.241 65.2728 892.959C66.9776 895.577 69.1354 897.448 71.3376 898.862Z" fill="#72B5F4" fill-opacity="0.2"/>
<path d="M117.112 850.116C115.015 855.068 114.006 860.022 113.908 864.849C113.809 869.676 114.541 873.766 116.186 877.728C117.44 881.124 119.392 883.954 122.042 886.222L123.43 887.268C126.211 889.363 129.339 890.632 132.772 890.772C135.947 891.26 139.471 890.919 142.908 889.97C147.696 888.677 152.136 886.037 156.234 882.048C157.847 880.267 159.459 878.488 161.029 876.404C162.206 874.843 163.21 873.15 164.215 871.456C165.961 868.416 167.228 865.29 168.149 861.9C169.682 856.249 169.996 850.771 168.964 845.637C168.277 841.852 167.022 838.456 165.07 835.626C162.686 831.921 159.516 829.264 155.561 827.643C151.912 825.981 147.825 825.624 143.43 826.396C139.645 827.083 136.424 828.465 132.983 830.499C129.151 833.055 125.707 836.178 122.568 840.344C122.045 841.038 121.695 841.866 120.911 842.906C119.514 845.12 118.161 847.64 117.112 850.116Z" fill="#72B5F4" fill-opacity="0.2"/>
<path d="M160.298 895.451C158.895 899.84 158.538 903.927 159.271 908.014C160.174 913.325 162.513 917.809 166.551 921.124L167.594 921.909C169.678 923.479 171.982 924.399 174.066 925.969C177.935 926.98 181.848 927.207 186.286 926.738C190.855 926.1 195.161 924.718 199.21 922.596C205.003 919.61 209.88 915.665 213.98 910.589C216.203 907.638 218.254 904.553 219.521 901.427C221.4 897.125 222.409 893.259 222.461 889.213C222.604 882.519 220.268 876.945 215.927 872.586C215.754 872.455 215.754 872.455 215.579 872.323L211.583 869.313C209.064 867.96 206.109 866.821 203.109 866.465C199.151 865.933 194.847 866.229 190.494 867.304C185.838 868.422 181.486 870.586 177.217 873.359C173.385 875.915 170.116 879.169 167.194 882.683C166.016 884.246 164.839 885.809 163.837 887.502C162.351 890.194 161.171 892.844 160.298 895.451Z" fill="#72B5F4" fill-opacity="0.2"/>
<mask id="mask2_88_702" style="mask-type:luminance" maskUnits="userSpaceOnUse" x="21" y="862" width="180" height="176">
<path d="M88.9258 862.874L200.571 947.005L132.657 1037.13L21.0119 952.999L88.9258 862.874Z" fill="white"/>
</mask>
<g mask="url(#mask2_88_702)">
<path d="M159.833 987.106C160.061 982.108 159.636 976.887 158.428 971.621C157.741 967.836 157.183 963.876 157.105 960.008C156.982 955.834 157.166 951.614 157.434 948.006L157.657 945.181C157.88 942.353 157.97 939.702 158.195 936.875C158.377 932.657 158.342 929.092 157.739 925.915C156.793 920.302 154.541 915.341 150.983 911.026C148.728 908.238 145.906 905.838 143.128 903.744C140.521 901.779 137.523 900.337 134.306 899.546C130.437 898.536 126.391 898.484 121.652 898.993C118.911 899.378 115.736 899.979 112.295 900.928C108.86 901.875 105.596 902.954 102.33 904.035L100.413 904.767C96.2379 905.976 91.7975 907.528 87.2718 908.473C83.357 909.336 80.0072 909.805 76.7878 910.101C72.7851 910.352 68.5217 910.949 64.649 912.112C59.1225 913.665 54.0293 916.088 49.6302 919.033C46.6697 921.158 44.0532 923.542 41.7868 926.189C39.7827 928.489 37.9926 931.225 36.8129 933.874C33.3629 941.345 32.7361 949.041 35.2446 956.917C36.6701 961.53 39.097 965.538 42.8317 968.895C43.2208 969.463 43.5689 969.725 44.0899 970.118L46.6952 972.081C48.2584 973.259 49.9534 974.262 51.3009 975.006C55.2982 976.93 59.4254 978.678 63.2086 980.166L63.3816 980.296C66.8579 981.828 70.4645 983.186 73.8084 984.889C75.1559 985.633 76.9813 986.463 78.5445 987.641C80.6287 989.212 82.5399 990.652 84.1457 992.133C86.3157 994.314 88.7013 996.929 91.1317 999.848C92.2596 1001.24 93.4317 1002.94 94.5596 1004.34C96.0782 1006.3 97.7698 1008.39 99.4614 1010.48C101.153 1012.57 103.018 1014.79 105.45 1016.63L109.618 1019.77C109.966 1020.03 110.272 1019.99 111.01 1019.73C112.052 1020.51 113.401 1021.26 114.704 1021.7C118.007 1023.09 121.703 1023.97 125.747 1024.03C131.052 1024.22 136.188 1023.18 140.673 1020.85C145.593 1018.29 149.599 1014.78 152.958 1009.96C154.748 1007.23 156.451 1003.88 157.5 1000.32C158.946 996.236 159.737 991.934 159.833 987.106Z" fill="#72B5F4" fill-opacity="0.2"/>
</g>
<path d="M225.301 963.436C227.248 959.624 228.069 955.422 227.698 951.578C227.266 946.842 225.36 942.794 222.071 939.279C219.942 937.078 217.536 935.536 214.688 934.152C210.273 932.238 205.603 931.28 200.075 931.605C197.607 931.735 195.17 932.184 192.908 932.765C185.756 934.56 179.657 938.133 174.856 943.171C172.377 945.63 170.391 948.518 169.167 951.514C167.542 955.298 166.824 959.032 167.209 962.857C167.629 967.613 169.578 971.965 172.985 975.324C173.321 975.602 173.642 975.9 173.962 976.195C175.93 977.924 178.322 979.481 181.29 980.384C185.707 982.295 190.673 982.934 196.044 982.491C199.87 982.11 203.664 981.129 207.28 979.689C211.94 977.731 216.094 975.037 219.597 971.439L220.027 970.975C220.455 970.481 220.899 970.002 221.326 969.504L221.771 969.025C223.217 967.393 224.331 965.482 225.301 963.436Z" fill="#72B5F4" fill-opacity="0.2"/>
</g>
<g filter="url(#filter3_d_88_702)">
<path d="M617.338 399.862C617.712 400.089 618.084 400.315 618.445 400.561C622.61 402.909 627.333 403.584 632.02 402.677C635.787 401.98 639.197 400.275 642.384 397.669C644.927 395.665 647.158 392.962 648.819 389.887C652.354 383.894 654.109 377.049 653.861 369.678C653.796 367.343 653.558 364.878 653.002 362.47C651.792 357.067 649.564 352.828 646.51 349.112C644.409 346.767 642.247 344.867 639.563 343.441C635.28 341.25 630.844 340.52 626.171 341.408C622.392 342.125 618.58 344.073 615.452 346.995C613.736 348.478 612.222 350.089 611.054 351.93L610.696 352.474C610.355 353.037 609.997 353.581 609.658 354.143L609.315 354.671C606.819 359.029 605.375 363.765 604.779 368.785C604.391 372.659 604.509 376.586 605.199 380.371C606.237 385.644 608.22 390.241 611.273 393.959C612.978 396.577 615.135 398.448 617.338 399.862Z" fill="#72B5F4" fill-opacity="0.2"/>
<path d="M663.112 351.116C661.015 356.067 660.006 361.022 659.908 365.849C659.809 370.676 660.541 374.766 662.186 378.728C663.44 382.124 665.392 384.954 668.042 387.222L669.43 388.268C672.211 390.363 675.339 391.632 678.772 391.772C681.947 392.26 685.471 391.919 688.908 390.97C693.696 389.677 698.136 387.037 702.234 383.047C703.847 381.267 705.459 379.488 707.029 377.404C708.206 375.843 709.21 374.15 710.215 372.456C711.961 369.416 713.228 366.29 714.149 362.9C715.682 357.249 715.996 351.771 714.964 346.637C714.277 342.852 713.022 339.456 711.07 336.626C708.686 332.921 705.516 330.264 701.561 328.643C697.912 326.981 693.825 326.624 689.43 327.396C685.645 328.083 682.424 329.465 678.983 331.499C675.151 334.055 671.707 337.178 668.568 341.344C668.045 342.038 667.695 342.866 666.911 343.906C665.514 346.12 664.161 348.639 663.112 351.116Z" fill="#72B5F4" fill-opacity="0.2"/>
<path d="M706.298 396.451C704.895 400.84 704.538 404.927 705.271 409.015C706.174 414.325 708.513 418.809 712.551 422.124L713.594 422.909C715.678 424.479 717.982 425.399 720.066 426.969C723.935 427.98 727.848 428.207 732.286 427.738C736.855 427.1 741.161 425.718 745.21 423.597C751.003 420.61 755.88 416.666 759.98 411.589C762.203 408.638 764.254 405.553 765.521 402.427C767.4 398.125 768.409 394.259 768.461 390.213C768.604 383.519 766.268 377.945 761.927 373.586C761.754 373.455 761.754 373.455 761.579 373.323L757.583 370.313C755.064 368.96 752.109 367.821 749.109 367.465C745.151 366.933 740.847 367.229 736.494 368.304C731.838 369.422 727.486 371.586 723.217 374.359C719.385 376.915 716.116 380.17 713.194 383.683C712.016 385.246 710.839 386.809 709.837 388.502C708.351 391.194 707.171 393.844 706.298 396.451Z" fill="#72B5F4" fill-opacity="0.2"/>
<mask id="mask3_88_702" style="mask-type:luminance" maskUnits="userSpaceOnUse" x="567" y="363" width="180" height="176">
<path d="M634.926 363.874L746.571 448.005L678.657 538.13L567.012 453.999L634.926 363.874Z" fill="white"/>
</mask>
<g mask="url(#mask3_88_702)">
<path d="M705.833 488.106C706.061 483.108 705.636 477.887 704.428 472.621C703.741 468.836 703.183 464.876 703.105 461.008C702.982 456.834 703.166 452.614 703.434 449.006L703.657 446.181C703.88 443.353 703.97 440.702 704.195 437.875C704.377 433.657 704.342 430.092 703.739 426.915C702.793 421.302 700.541 416.341 696.983 412.026C694.728 409.238 691.906 406.838 689.128 404.744C686.521 402.779 683.523 401.337 680.306 400.546C676.437 399.536 672.391 399.484 667.652 399.993C664.911 400.378 661.736 400.979 658.295 401.928C654.86 402.875 651.596 403.954 648.33 405.035L646.413 405.767C642.238 406.976 637.797 408.528 633.272 409.473C629.357 410.336 626.007 410.805 622.788 411.101C618.785 411.352 614.522 411.949 610.649 413.112C605.123 414.665 600.029 417.088 595.63 420.033C592.67 422.158 590.053 424.542 587.787 427.189C585.783 429.489 583.993 432.225 582.813 434.874C579.363 442.345 578.736 450.041 581.245 457.917C582.67 462.53 585.097 466.538 588.832 469.895C589.221 470.463 589.569 470.725 590.09 471.118L592.695 473.081C594.258 474.259 595.953 475.262 597.301 476.006C601.298 477.93 605.425 479.678 609.209 481.166L609.382 481.296C612.858 482.828 616.465 484.186 619.808 485.889C621.156 486.633 622.981 487.463 624.544 488.641C626.629 490.212 628.54 491.652 630.146 493.133C632.316 495.314 634.701 497.929 637.132 500.848C638.26 502.244 639.432 503.941 640.56 505.336C642.078 507.297 643.77 509.389 645.461 511.481C647.153 513.572 649.018 515.794 651.45 517.627L655.618 520.768C655.966 521.03 656.272 520.989 657.01 520.729C658.052 521.514 659.401 522.256 660.704 522.696C664.007 524.093 667.703 524.973 671.747 525.028C677.052 525.216 682.188 524.185 686.673 521.846C691.593 519.293 695.599 515.78 698.958 510.963C700.748 508.228 702.451 504.884 703.5 501.319C704.946 497.236 705.737 492.934 705.833 488.106Z" fill="#72B5F4" fill-opacity="0.2"/>
</g>
<path d="M771.301 464.436C773.248 460.624 774.069 456.422 773.698 452.578C773.266 447.842 771.36 443.794 768.071 440.279C765.942 438.078 763.536 436.536 760.688 435.152C756.273 433.238 751.603 432.28 746.075 432.605C743.607 432.735 741.17 433.184 738.908 433.765C731.756 435.56 725.657 439.133 720.856 444.171C718.377 446.63 716.391 449.518 715.167 452.514C713.542 456.298 712.824 460.032 713.209 463.857C713.629 468.613 715.578 472.965 718.985 476.323C719.321 476.602 719.642 476.9 719.962 477.195C721.93 478.924 724.322 480.481 727.29 481.384C731.707 483.295 736.673 483.934 742.044 483.491C745.87 483.11 749.664 482.129 753.28 480.689C757.94 478.731 762.094 476.037 765.597 472.439L766.027 471.975C766.455 471.48 766.899 471.002 767.326 470.504L767.771 470.025C769.217 468.393 770.331 466.482 771.301 464.436Z" fill="#72B5F4" fill-opacity="0.2"/>
</g>
<g filter="url(#filter4_d_88_702)">
<path d="M293.338 479.862C293.712 480.089 294.084 480.315 294.445 480.561C298.61 482.909 303.333 483.584 308.02 482.677C311.787 481.98 315.197 480.275 318.384 477.669C320.927 475.665 323.158 472.962 324.819 469.887C328.354 463.894 330.109 457.049 329.861 449.678C329.796 447.343 329.558 444.878 329.002 442.47C327.792 437.067 325.564 432.828 322.51 429.112C320.409 426.767 318.247 424.867 315.563 423.441C311.28 421.25 306.844 420.52 302.171 421.408C298.392 422.125 294.58 424.073 291.452 426.995C289.736 428.478 288.222 430.089 287.054 431.93L286.696 432.474C286.355 433.037 285.997 433.581 285.658 434.143L285.315 434.671C282.819 439.029 281.375 443.765 280.779 448.785C280.391 452.659 280.509 456.586 281.199 460.371C282.237 465.644 284.22 470.241 287.273 473.959C288.978 476.577 291.135 478.448 293.338 479.862Z" fill="#72B5F4" fill-opacity="0.2"/>
<path d="M339.112 431.116C337.015 436.067 336.006 441.022 335.908 445.849C335.809 450.676 336.541 454.766 338.186 458.728C339.44 462.124 341.392 464.954 344.042 467.222L345.43 468.268C348.211 470.363 351.339 471.632 354.772 471.772C357.947 472.26 361.471 471.919 364.908 470.97C369.696 469.677 374.136 467.037 378.234 463.047C379.847 461.267 381.459 459.488 383.029 457.404C384.206 455.843 385.21 454.15 386.215 452.456C387.961 449.416 389.228 446.29 390.149 442.9C391.682 437.249 391.996 431.771 390.964 426.637C390.277 422.852 389.022 419.456 387.07 416.626C384.686 412.921 381.516 410.264 377.561 408.643C373.912 406.981 369.825 406.624 365.43 407.396C361.645 408.083 358.424 409.465 354.983 411.499C351.151 414.055 347.707 417.178 344.568 421.344C344.045 422.038 343.695 422.866 342.911 423.906C341.514 426.12 340.161 428.639 339.112 431.116Z" fill="#72B5F4" fill-opacity="0.2"/>
<path d="M382.298 476.451C380.895 480.84 380.538 484.927 381.271 489.015C382.174 494.325 384.513 498.809 388.551 502.124L389.594 502.909C391.678 504.479 393.982 505.399 396.066 506.969C399.935 507.98 403.848 508.207 408.286 507.738C412.855 507.1 417.161 505.718 421.21 503.597C427.003 500.61 431.88 496.666 435.98 491.589C438.203 488.638 440.254 485.553 441.521 482.427C443.4 478.125 444.409 474.259 444.461 470.213C444.604 463.519 442.268 457.945 437.927 453.586C437.754 453.455 437.754 453.455 437.579 453.323L433.583 450.313C431.064 448.96 428.109 447.821 425.109 447.465C421.151 446.933 416.847 447.229 412.494 448.304C407.838 449.422 403.486 451.586 399.217 454.359C395.385 456.915 392.116 460.17 389.194 463.683C388.016 465.246 386.839 466.809 385.837 468.502C384.351 471.194 383.171 473.844 382.298 476.451Z" fill="#72B5F4" fill-opacity="0.2"/>
<mask id="mask4_88_702" style="mask-type:luminance" maskUnits="userSpaceOnUse" x="243" y="443" width="180" height="176">
<path d="M310.926 443.874L422.571 528.005L354.657 618.13L243.012 533.999L310.926 443.874Z" fill="white"/>
</mask>
<g mask="url(#mask4_88_702)">
<path d="M381.833 568.106C382.061 563.108 381.636 557.887 380.428 552.621C379.741 548.836 379.183 544.876 379.105 541.008C378.982 536.834 379.166 532.614 379.434 529.006L379.657 526.181C379.88 523.353 379.97 520.702 380.195 517.875C380.377 513.657 380.342 510.092 379.739 506.915C378.793 501.302 376.541 496.341 372.983 492.026C370.728 489.238 367.906 486.838 365.128 484.744C362.521 482.779 359.523 481.337 356.306 480.546C352.437 479.536 348.391 479.484 343.652 479.993C340.911 480.378 337.736 480.979 334.295 481.928C330.86 482.875 327.596 483.954 324.33 485.035L322.413 485.767C318.238 486.976 313.797 488.528 309.272 489.473C305.357 490.336 302.007 490.805 298.788 491.101C294.785 491.352 290.522 491.949 286.649 493.112C281.123 494.665 276.029 497.088 271.63 500.033C268.67 502.158 266.053 504.542 263.787 507.189C261.783 509.489 259.993 512.225 258.813 514.874C255.363 522.345 254.736 530.041 257.245 537.917C258.67 542.53 261.097 546.538 264.832 549.895C265.221 550.463 265.569 550.725 266.09 551.118L268.695 553.081C270.258 554.259 271.953 555.262 273.301 556.006C277.298 557.93 281.425 559.678 285.209 561.166L285.382 561.296C288.858 562.828 292.465 564.186 295.808 565.889C297.156 566.633 298.981 567.463 300.544 568.641C302.629 570.212 304.54 571.652 306.146 573.133C308.316 575.314 310.701 577.929 313.132 580.848C314.26 582.244 315.432 583.941 316.56 585.336C318.078 587.297 319.77 589.389 321.461 591.481C323.153 593.572 325.018 595.794 327.45 597.627L331.618 600.768C331.966 601.03 332.272 600.989 333.01 600.729C334.052 601.514 335.401 602.256 336.704 602.696C340.007 604.093 343.703 604.973 347.747 605.028C353.052 605.216 358.188 604.185 362.673 601.846C367.593 599.293 371.599 595.78 374.958 590.963C376.748 588.228 378.451 584.884 379.5 581.319C380.946 577.236 381.737 572.934 381.833 568.106Z" fill="#72B5F4" fill-opacity="0.2"/>
</g>
<path d="M447.301 544.436C449.248 540.624 450.069 536.422 449.698 532.578C449.266 527.842 447.36 523.794 444.071 520.279C441.942 518.078 439.536 516.536 436.688 515.152C432.273 513.238 427.603 512.28 422.075 512.605C419.607 512.735 417.17 513.184 414.908 513.765C407.756 515.56 401.657 519.133 396.856 524.171C394.377 526.63 392.391 529.518 391.167 532.514C389.542 536.298 388.824 540.032 389.209 543.857C389.629 548.613 391.578 552.965 394.985 556.323C395.321 556.602 395.642 556.9 395.962 557.195C397.93 558.924 400.322 560.481 403.29 561.384C407.707 563.295 412.673 563.934 418.044 563.491C421.87 563.11 425.664 562.129 429.28 560.689C433.94 558.731 438.094 556.037 441.597 552.439L442.027 551.975C442.455 551.48 442.899 551.002 443.326 550.504L443.771 550.025C445.217 548.393 446.331 546.482 447.301 544.436Z" fill="#72B5F4" fill-opacity="0.2"/>
</g>
<defs>
<filter id="filter0_d_88_702" x="517.719" y="33.0069" width="202.066" height="206.042" filterUnits="userSpaceOnUse" color-interpolation-filters="sRGB">
<feFlood flood-opacity="0" result="BackgroundImageFix"/>
<feColorMatrix in="SourceAlpha" type="matrix" values="0 0 0 0 0 0 0 0 0 0 0 0 0 0 0 0 0 0 127 0" result="hardAlpha"/>
<feOffset dy="3"/>
<feGaussianBlur stdDeviation="2"/>
<feComposite in2="hardAlpha" operator="out"/>
<feColorMatrix type="matrix" values="0 0 0 0 0 0 0 0 0 0 0 0 0 0 0 0 0 0 0.25 0"/>
<feBlend mode="normal" in2="BackgroundImageFix" result="effect1_dropShadow_88_702"/>
<feBlend mode="normal" in="SourceGraphic" in2="effect1_dropShadow_88_702" result="shape"/>
</filter>
<filter id="filter1_d_88_702" x="319.719" y="699.007" width="202.066" height="206.042" filterUnits="userSpaceOnUse" color-interpolation-filters="sRGB">
<feFlood flood-opacity="0" result="BackgroundImageFix"/>
<feColorMatrix in="SourceAlpha" type="matrix" values="0 0 0 0 0 0 0 0 0 0 0 0 0 0 0 0 0 0 127 0" result="hardAlpha"/>
<feOffset dy="3"/>
<feGaussianBlur stdDeviation="2"/>
<feComposite in2="hardAlpha" operator="out"/>
<feColorMatrix type="matrix" values="0 0 0 0 0 0 0 0 0 0 0 0 0 0 0 0 0 0 0.25 0"/>
<feBlend mode="normal" in2="BackgroundImageFix" result="effect1_dropShadow_88_702"/>
<feBlend mode="normal" in="SourceGraphic" in2="effect1_dropShadow_88_702" result="shape"/>
</filter>
<filter id="filter2_d_88_702" x="29.7188" y="825.007" width="202.066" height="206.042" filterUnits="userSpaceOnUse" color-interpolation-filters="sRGB">
<feFlood flood-opacity="0" result="BackgroundImageFix"/>
<feColorMatrix in="SourceAlpha" type="matrix" values="0 0 0 0 0 0 0 0 0 0 0 0 0 0 0 0 0 0 127 0" result="hardAlpha"/>
<feOffset dy="3"/>
<feGaussianBlur stdDeviation="2"/>
<feComposite in2="hardAlpha" operator="out"/>
<feColorMatrix type="matrix" values="0 0 0 0 0 0 0 0 0 0 0 0 0 0 0 0 0 0 0.25 0"/>
<feBlend mode="normal" in2="BackgroundImageFix" result="effect1_dropShadow_88_702"/>
<feBlend mode="normal" in="SourceGraphic" in2="effect1_dropShadow_88_702" result="shape"/>
</filter>
<filter id="filter3_d_88_702" x="575.719" y="326.007" width="202.066" height="206.042" filterUnits="userSpaceOnUse" color-interpolation-filters="sRGB">
<feFlood flood-opacity="0" result="BackgroundImageFix"/>
<feColorMatrix in="SourceAlpha" type="matrix" values="0 0 0 0 0 0 0 0 0 0 0 0 0 0 0 0 0 0 127 0" result="hardAlpha"/>
<feOffset dy="3"/>
<feGaussianBlur stdDeviation="2"/>
<feComposite in2="hardAlpha" operator="out"/>
<feColorMatrix type="matrix" values="0 0 0 0 0 0 0 0 0 0 0 0 0 0 0 0 0 0 0.25 0"/>
<feBlend mode="normal" in2="BackgroundImageFix" result="effect1_dropShadow_88_702"/>
<feBlend mode="normal" in="SourceGraphic" in2="effect1_dropShadow_88_702" result="shape"/>
</filter>
<filter id="filter4_d_88_702" x="251.719" y="406.007" width="202.066" height="206.042" filterUnits="userSpaceOnUse" color-interpolation-filters="sRGB">
<feFlood flood-opacity="0" result="BackgroundImageFix"/>
<feColorMatrix in="SourceAlpha" type="matrix" values="0 0 0 0 0 0 0 0 0 0 0 0 0 0 0 0 0 0 127 0" result="hardAlpha"/>
<feOffset dy="3"/>
<feGaussianBlur stdDeviation="2"/>
<feComposite in2="hardAlpha" operator="out"/>
<feColorMatrix type="matrix" values="0 0 0 0 0 0 0 0 0 0 0 0 0 0 0 0 0 0 0.25 0"/>
<feBlend mode="normal" in2="BackgroundImageFix" result="effect1_dropShadow_88_702"/>
<feBlend mode="normal" in="SourceGraphic" in2="effect1_dropShadow_88_702" result="shape"/>
</filter>
</defs>
</svg>
