<svg width="368" height="368" viewBox="0 0 368 368" fill="none" xmlns="http://www.w3.org/2000/svg">
<mask id="mask0_97_1165" style="mask-type:luminance" maskUnits="userSpaceOnUse" x="0" y="0" width="368" height="368">
<path d="M0 0H368V368H0V0Z" fill="white"/>
</mask>
<g mask="url(#mask0_97_1165)">
<path d="M368.026 184.016C368.026 187.026 367.953 190.036 367.807 193.042C367.656 196.052 367.438 199.052 367.141 202.052C366.849 205.047 366.479 208.036 366.036 211.016C365.594 213.995 365.078 216.958 364.495 219.911C363.906 222.865 363.245 225.802 362.516 228.724C361.781 231.646 360.979 234.547 360.104 237.432C359.229 240.313 358.286 243.172 357.271 246.005C356.255 248.844 355.172 251.651 354.021 254.432C352.87 257.214 351.646 259.969 350.359 262.693C349.073 265.411 347.719 268.104 346.302 270.755C344.88 273.411 343.396 276.031 341.849 278.615C340.302 281.198 338.688 283.745 337.016 286.245C335.344 288.75 333.609 291.214 331.818 293.63C330.021 296.052 328.167 298.422 326.26 300.75C324.349 303.078 322.38 305.359 320.359 307.589C318.339 309.823 316.26 312 314.13 314.13C312 316.26 309.823 318.339 307.589 320.359C305.359 322.38 303.078 324.349 300.75 326.26C298.422 328.167 296.052 330.021 293.63 331.818C291.214 333.609 288.75 335.344 286.245 337.016C283.745 338.688 281.198 340.302 278.615 341.849C276.031 343.396 273.411 344.88 270.755 346.302C268.104 347.719 265.411 349.073 262.688 350.359C259.969 351.646 257.214 352.87 254.432 354.021C251.651 355.172 248.844 356.255 246.005 357.271C243.172 358.286 240.313 359.229 237.432 360.104C234.547 360.979 231.646 361.781 228.724 362.516C225.802 363.245 222.865 363.906 219.911 364.495C216.958 365.078 213.995 365.594 211.016 366.036C208.036 366.479 205.047 366.849 202.052 367.141C199.052 367.438 196.052 367.656 193.042 367.807C190.036 367.953 187.026 368.026 184.016 368.026C181 368.026 177.995 367.953 174.984 367.807C171.979 367.656 168.974 367.438 165.979 367.141C162.979 366.849 159.995 366.479 157.016 366.036C154.036 365.594 151.068 365.078 148.115 364.495C145.161 363.906 142.224 363.245 139.302 362.516C136.38 361.781 133.479 360.979 130.599 360.104C127.714 359.229 124.859 358.286 122.021 357.271C119.188 356.255 116.375 355.172 113.594 354.021C110.813 352.87 108.063 351.646 105.339 350.359C102.615 349.073 99.9271 347.719 97.2708 346.302C94.6146 344.88 91.9948 343.396 89.4115 341.849C86.8281 340.302 84.2865 338.688 81.7813 337.016C79.276 335.344 76.8177 333.609 74.3958 331.818C71.9792 330.021 69.6042 328.167 67.276 326.26C64.9479 324.349 62.6667 322.38 60.4375 320.359C58.2083 318.339 56.026 316.26 53.8958 314.13C51.7656 312 49.6927 309.823 47.6667 307.589C45.6458 305.359 43.6823 303.078 41.7708 300.75C39.8594 298.422 38.0052 296.052 36.2135 293.63C34.4167 291.214 32.6875 288.75 31.0104 286.245C29.3385 283.745 27.7292 281.198 26.1823 278.615C24.6302 276.031 23.1458 273.411 21.7292 270.755C20.3073 268.104 18.9531 265.411 17.6667 262.693C16.3802 259.969 15.1615 257.214 14.0052 254.432C12.8542 251.651 11.7708 248.844 10.7552 246.005C9.73958 243.172 8.79688 240.313 7.92188 237.432C7.04688 234.547 6.24479 231.646 5.51563 228.724C4.78125 225.802 4.125 222.865 3.53646 219.911C2.94792 216.958 2.43229 213.995 1.98958 211.016C1.55208 208.036 1.18229 205.047 0.885417 202.052C0.588542 199.052 0.369792 196.052 0.223958 193.042C0.072917 190.036 0 187.026 0 184.016C0 181 0.072917 177.995 0.223958 174.984C0.369792 171.979 0.588542 168.974 0.885417 165.979C1.18229 162.979 1.55208 159.995 1.98958 157.016C2.43229 154.036 2.94792 151.068 3.53646 148.115C4.125 145.161 4.78125 142.224 5.51563 139.302C6.24479 136.38 7.04688 133.479 7.92188 130.599C8.79688 127.714 9.73958 124.859 10.7552 122.021C11.7708 119.188 12.8542 116.375 14.0052 113.594C15.1615 110.813 16.3802 108.063 17.6667 105.339C18.9531 102.615 20.3073 99.9271 21.7292 97.2708C23.1458 94.6146 24.6302 91.9948 26.1823 89.4115C27.7292 86.8281 29.3385 84.2865 31.0104 81.7813C32.6875 79.276 34.4167 76.8177 36.2135 74.3958C38.0052 71.9792 39.8594 69.6042 41.7708 67.276C43.6823 64.9479 45.6458 62.6667 47.6667 60.4375C49.6927 58.2083 51.7656 56.026 53.8958 53.8958C56.026 51.7656 58.2083 49.6927 60.4375 47.6667C62.6667 45.6458 64.9479 43.6823 67.276 41.7708C69.6042 39.8594 71.9792 38.0052 74.3958 36.2135C76.8177 34.4167 79.276 32.6875 81.7813 31.0104C84.2865 29.3385 86.8281 27.7292 89.4115 26.1823C91.9948 24.6302 94.6146 23.1458 97.2708 21.7292C99.9271 20.3073 102.615 18.9531 105.339 17.6667C108.063 16.3802 110.813 15.1615 113.594 14.0052C116.375 12.8542 119.188 11.7708 122.021 10.7552C124.859 9.73958 127.714 8.79688 130.599 7.92188C133.479 7.04688 136.38 6.24479 139.302 5.51563C142.224 4.78125 145.161 4.125 148.115 3.53646C151.068 2.94792 154.036 2.43229 157.016 1.98958C159.995 1.55208 162.979 1.18229 165.979 0.885417C168.974 0.588542 171.979 0.369792 174.984 0.223958C177.995 0.072917 181 0 184.016 0C187.026 0 190.036 0.072917 193.042 0.223958C196.052 0.369792 199.052 0.588542 202.052 0.885417C205.047 1.18229 208.036 1.55208 211.016 1.98958C213.995 2.43229 216.958 2.94792 219.911 3.53646C222.865 4.125 225.802 4.78125 228.724 5.51563C231.646 6.24479 234.547 7.04688 237.432 7.92188C240.313 8.79688 243.172 9.73958 246.005 10.7552C248.844 11.7708 251.651 12.8542 254.432 14.0052C257.214 15.1615 259.969 16.3802 262.688 17.6667C265.411 18.9531 268.104 20.3073 270.755 21.7292C273.411 23.1458 276.031 24.6302 278.615 26.1823C281.198 27.7292 283.745 29.3385 286.245 31.0104C288.75 32.6875 291.214 34.4167 293.63 36.2135C296.052 38.0052 298.422 39.8594 300.75 41.7708C303.078 43.6823 305.359 45.6458 307.589 47.6667C309.823 49.6927 312 51.7656 314.13 53.8958C316.26 56.026 318.339 58.2083 320.359 60.4375C322.38 62.6667 324.349 64.9479 326.26 67.276C328.167 69.6042 330.021 71.9792 331.818 74.3958C333.609 76.8177 335.344 79.276 337.016 81.7813C338.688 84.2865 340.302 86.8281 341.849 89.4115C343.396 91.9948 344.88 94.6146 346.302 97.2708C347.719 99.9271 349.073 102.615 350.359 105.339C351.646 108.063 352.87 110.813 354.021 113.594C355.172 116.375 356.255 119.188 357.271 122.021C358.286 124.859 359.229 127.714 360.104 130.599C360.979 133.479 361.781 136.38 362.516 139.302C363.245 142.224 363.906 145.161 364.495 148.115C365.078 151.068 365.594 154.036 366.036 157.016C366.479 159.995 366.849 162.979 367.141 165.979C367.438 168.974 367.656 171.979 367.807 174.984C367.953 177.995 368.026 181 368.026 184.016Z" fill="#FF9561"/>
</g>
<path d="M231.089 80.8958C221.756 45.0573 115.272 30.8646 101.1 116.266C86.9278 201.661 36.7976 272.885 149.845 290.172C262.897 307.458 287.095 265.625 280.183 210.656C273.266 155.688 260.475 77.6719 231.089 80.8958Z" fill="#002C5C"/>
<mask id="mask1_97_1165" style="mask-type:luminance" maskUnits="userSpaceOnUse" x="50" y="224" width="268" height="144">
<path d="M50.666 224H317.333V368H50.666V224Z" fill="white"/>
</mask>
<g mask="url(#mask1_97_1165)">
<path d="M316.124 312.219C313.983 314.422 311.791 316.573 309.546 318.667C307.301 320.76 305.004 322.792 302.655 324.771C300.306 326.75 297.91 328.667 295.468 330.526C293.025 332.385 290.535 334.182 287.999 335.917C285.468 337.651 282.89 339.318 280.275 340.927C277.655 342.531 275.004 344.068 272.306 345.542C269.614 347.016 266.884 348.417 264.119 349.755C261.358 351.089 258.562 352.354 255.733 353.552C252.905 354.745 250.051 355.87 247.166 356.922C244.28 357.979 241.374 358.958 238.442 359.865C235.504 360.771 232.551 361.604 229.577 362.365C226.603 363.125 223.614 363.813 220.603 364.422C217.593 365.031 214.572 365.563 211.535 366.026C208.499 366.484 205.452 366.865 202.4 367.172C199.343 367.479 196.285 367.708 193.218 367.865C190.15 368.016 187.082 368.094 184.015 368.094C180.942 368.094 177.874 368.016 174.806 367.865C171.744 367.708 168.681 367.479 165.624 367.172C162.572 366.865 159.525 366.484 156.489 366.026C153.457 365.563 150.431 365.031 147.426 364.422C144.416 363.813 141.421 363.125 138.447 362.365C135.473 361.604 132.52 360.771 129.588 359.865C126.655 358.958 123.744 357.979 120.864 356.922C117.978 355.87 115.124 354.745 112.296 353.552C109.468 352.354 106.671 351.089 103.905 349.755C101.14 348.417 98.4105 347.016 95.7178 345.542C93.0251 344.068 90.3688 342.531 87.749 340.927C85.1344 339.318 82.5563 337.651 80.0251 335.917C77.4938 334.182 75.0042 332.385 72.5563 330.526C70.1136 328.667 67.7178 326.75 65.3688 324.771C63.0251 322.792 60.7282 320.76 58.4782 318.667C56.2334 316.573 54.0407 314.422 51.9053 312.219C53.2646 308.995 54.7438 305.828 56.3376 302.708C57.9365 299.594 59.6396 296.542 61.4574 293.547C63.2751 290.557 65.2021 287.635 67.2334 284.786C69.2646 281.938 71.4001 279.167 73.6344 276.469C75.8688 273.776 78.2021 271.167 80.624 268.646C83.0511 266.12 85.5667 263.693 88.1709 261.354C90.7751 259.01 93.4626 256.771 96.2282 254.63C98.999 252.484 101.838 250.448 104.759 248.516C107.676 246.578 110.66 244.755 113.713 243.036C116.759 241.323 119.869 239.719 123.041 238.234C126.207 236.745 129.426 235.375 132.692 234.12C135.963 232.87 139.275 231.74 142.624 230.729C145.978 229.719 149.358 228.833 152.775 228.068C156.192 227.307 159.634 226.672 163.093 226.161C166.556 225.651 170.035 225.266 173.525 225.01C177.015 224.755 180.515 224.625 184.015 224.625C187.515 224.625 191.009 224.755 194.499 225.01C197.989 225.266 201.468 225.651 204.931 226.161C208.395 226.672 211.832 227.307 215.249 228.068C218.666 228.833 222.051 229.719 225.4 230.729C228.754 231.74 232.062 232.87 235.332 234.12C238.598 235.375 241.817 236.745 244.989 238.234C248.155 239.719 251.265 241.323 254.317 243.036C257.369 244.755 260.353 246.578 263.27 248.516C266.187 250.448 269.03 252.484 271.796 254.63C274.567 256.771 277.249 259.01 279.853 261.354C282.457 263.693 284.973 266.12 287.4 268.646C289.827 271.167 292.155 273.776 294.39 276.469C296.624 279.167 298.759 281.938 300.791 284.786C302.822 287.635 304.749 290.557 306.567 293.547C308.384 296.542 310.093 299.594 311.687 302.708C313.28 305.828 314.759 308.995 316.124 312.219Z" fill="#00669B"/>
</g>
<path d="M183.943 184.016C184.792 184.016 185.635 184.057 186.479 184.141C187.328 184.224 188.167 184.344 188.995 184.51C189.828 184.677 190.651 184.885 191.464 185.13C192.276 185.375 193.073 185.661 193.859 185.984C194.641 186.313 195.406 186.672 196.156 187.073C196.906 187.474 197.63 187.911 198.339 188.38C199.042 188.854 199.724 189.359 200.38 189.896C201.036 190.432 201.661 191.005 202.266 191.604C202.865 192.203 203.432 192.833 203.969 193.49C204.51 194.141 205.016 194.823 205.484 195.531C205.958 196.234 206.391 196.964 206.792 197.708C207.193 198.458 207.557 199.224 207.88 200.01C208.203 200.792 208.49 201.589 208.734 202.401C208.984 203.214 209.188 204.036 209.354 204.87C209.521 205.703 209.646 206.542 209.729 207.385C209.813 208.229 209.854 209.078 209.854 209.922V232.776C209.854 233.625 209.813 234.474 209.729 235.318C209.646 236.161 209.521 237 209.354 237.833C209.188 238.667 208.984 239.49 208.734 240.297C208.49 241.109 208.203 241.911 207.88 242.693C207.557 243.479 207.193 244.245 206.792 244.99C206.391 245.74 205.958 246.469 205.484 247.172C205.016 247.88 204.51 248.557 203.969 249.214C203.432 249.87 202.865 250.5 202.266 251.099C201.661 251.698 201.036 252.271 200.38 252.807C199.724 253.344 199.042 253.849 198.339 254.323C197.63 254.792 196.906 255.229 196.156 255.63C195.406 256.031 194.641 256.391 193.859 256.714C193.073 257.042 192.276 257.328 191.464 257.573C190.651 257.818 189.828 258.026 188.995 258.193C188.167 258.354 187.328 258.479 186.479 258.563C185.635 258.646 184.792 258.688 183.943 258.688C183.094 258.688 182.245 258.646 181.401 258.563C180.557 258.479 179.719 258.354 178.885 258.193C178.057 258.026 177.234 257.818 176.422 257.573C175.609 257.328 174.813 257.042 174.026 256.714C173.245 256.391 172.474 256.031 171.729 255.63C170.979 255.229 170.25 254.792 169.547 254.323C168.844 253.849 168.161 253.344 167.505 252.807C166.849 252.271 166.219 251.698 165.62 251.099C165.021 250.5 164.453 249.87 163.911 249.214C163.375 248.557 162.87 247.88 162.396 247.172C161.927 246.469 161.49 245.74 161.089 244.99C160.693 244.245 160.328 243.479 160.005 242.693C159.677 241.911 159.396 241.109 159.146 240.297C158.901 239.49 158.693 238.667 158.531 237.833C158.365 237 158.24 236.161 158.156 235.318C158.073 234.474 158.031 233.625 158.031 232.776V209.922C158.031 209.078 158.073 208.229 158.156 207.385C158.24 206.542 158.365 205.703 158.531 204.87C158.693 204.036 158.901 203.214 159.146 202.401C159.396 201.589 159.677 200.792 160.005 200.01C160.328 199.224 160.693 198.458 161.089 197.708C161.49 196.964 161.927 196.234 162.396 195.531C162.87 194.823 163.375 194.141 163.911 193.49C164.453 192.833 165.021 192.203 165.62 191.604C166.219 191.005 166.849 190.432 167.505 189.896C168.161 189.359 168.844 188.854 169.547 188.38C170.25 187.911 170.979 187.474 171.729 187.073C172.474 186.672 173.245 186.313 174.026 185.984C174.813 185.661 175.609 185.375 176.422 185.13C177.234 184.885 178.057 184.677 178.885 184.51C179.719 184.344 180.557 184.224 181.401 184.141C182.245 184.057 183.094 184.016 183.943 184.016Z" fill="#FF9561"/>
<path d="M136.714 167.703C136.714 168.776 136.61 169.839 136.402 170.891C136.193 171.943 135.881 172.964 135.475 173.953C135.063 174.943 134.558 175.885 133.964 176.776C133.365 177.672 132.688 178.495 131.928 179.255C131.173 180.01 130.344 180.693 129.454 181.286C128.563 181.88 127.62 182.385 126.631 182.797C125.636 183.208 124.615 183.516 123.563 183.724C122.511 183.938 121.449 184.042 120.376 184.042C119.303 184.042 118.24 183.938 117.188 183.724C116.136 183.516 115.115 183.208 114.126 182.797C113.131 182.385 112.188 181.88 111.298 181.286C110.407 180.693 109.579 180.01 108.824 179.255C108.063 178.495 107.386 177.672 106.792 176.776C106.193 175.885 105.693 174.943 105.282 173.953C104.87 172.964 104.558 171.943 104.35 170.891C104.141 169.839 104.037 168.776 104.037 167.703C104.037 166.63 104.141 165.568 104.35 164.51C104.558 163.458 104.87 162.437 105.282 161.448C105.693 160.458 106.193 159.516 106.792 158.625C107.386 157.729 108.063 156.906 108.824 156.146C109.579 155.391 110.407 154.708 111.298 154.115C112.188 153.521 113.131 153.016 114.126 152.604C115.115 152.193 116.136 151.885 117.188 151.677C118.24 151.464 119.303 151.359 120.376 151.359C121.449 151.359 122.511 151.464 123.563 151.677C124.615 151.885 125.636 152.193 126.631 152.604C127.62 153.016 128.563 153.521 129.454 154.115C130.344 154.708 131.173 155.391 131.928 156.146C132.688 156.906 133.365 157.729 133.964 158.625C134.558 159.516 135.063 160.458 135.475 161.448C135.881 162.437 136.193 163.458 136.402 164.51C136.61 165.568 136.714 166.63 136.714 167.703Z" fill="#FF9561"/>
<path d="M262.329 167.703C262.329 168.776 262.225 169.839 262.011 170.891C261.803 171.943 261.495 172.964 261.084 173.953C260.673 174.943 260.167 175.885 259.574 176.776C258.975 177.672 258.298 178.495 257.542 179.255C256.782 180.01 255.959 180.693 255.063 181.286C254.173 181.88 253.23 182.385 252.24 182.797C251.251 183.208 250.23 183.516 249.173 183.724C248.12 183.938 247.058 184.042 245.985 184.042C244.912 184.042 243.85 183.938 242.798 183.724C241.745 183.516 240.725 183.208 239.735 182.797C238.745 182.385 237.803 181.88 236.912 181.286C236.016 180.693 235.193 180.01 234.433 179.255C233.673 178.495 232.995 177.672 232.402 176.776C231.808 175.885 231.303 174.943 230.891 173.953C230.48 172.964 230.173 171.943 229.964 170.891C229.751 169.839 229.646 168.776 229.646 167.703C229.646 166.63 229.751 165.568 229.964 164.51C230.173 163.458 230.48 162.437 230.891 161.448C231.303 160.458 231.808 159.516 232.402 158.625C232.995 157.729 233.673 156.906 234.433 156.146C235.193 155.391 236.016 154.708 236.912 154.115C237.803 153.521 238.745 153.016 239.735 152.604C240.725 152.193 241.745 151.885 242.798 151.677C243.85 151.464 244.912 151.359 245.985 151.359C247.058 151.359 248.12 151.464 249.173 151.677C250.23 151.885 251.251 152.193 252.24 152.604C253.23 153.016 254.173 153.521 255.063 154.115C255.959 154.708 256.782 155.391 257.542 156.146C258.298 156.906 258.975 157.729 259.574 158.625C260.167 159.516 260.673 160.458 261.084 161.448C261.495 162.437 261.803 163.458 262.011 164.51C262.225 165.568 262.329 166.63 262.329 167.703Z" fill="#FF9561"/>
<path d="M184.01 80.8959C186.099 80.8959 188.177 81 190.25 81.2032C192.323 81.4063 194.385 81.7136 196.427 82.1198C198.474 82.5261 200.49 83.0313 202.484 83.6407C204.479 84.2448 206.443 84.9427 208.365 85.7396C210.292 86.5417 212.172 87.4323 214.01 88.4115C215.849 89.3959 217.635 90.4636 219.37 91.625C221.099 92.7813 222.771 94.0209 224.385 95.3438C225.995 96.6667 227.536 98.0625 229.01 99.5365C230.484 101.01 231.885 102.552 233.203 104.167C234.526 105.776 235.766 107.448 236.927 109.182C238.083 110.911 239.151 112.698 240.135 114.537C241.12 116.375 242.01 118.255 242.807 120.182C243.604 122.109 244.307 124.068 244.911 126.063C245.516 128.057 246.021 130.078 246.427 132.12C246.833 134.167 247.141 136.224 247.344 138.297C247.547 140.375 247.651 142.453 247.651 144.537V160.984C247.651 163.068 247.547 165.151 247.344 167.224C247.141 169.297 246.833 171.359 246.427 173.401C246.021 175.448 245.516 177.464 244.911 179.458C244.307 181.453 243.604 183.412 242.807 185.339C242.01 187.266 241.12 189.146 240.135 190.984C239.151 192.823 238.083 194.609 236.927 196.344C235.766 198.073 234.526 199.745 233.203 201.359C231.885 202.969 230.484 204.51 229.01 205.984C227.536 207.458 225.995 208.859 224.385 210.177C222.771 211.5 221.099 212.74 219.37 213.901C217.635 215.057 215.849 216.125 214.01 217.109C212.172 218.094 210.292 218.984 208.365 219.781C206.443 220.578 204.479 221.281 202.484 221.885C200.49 222.49 198.474 222.995 196.427 223.401C194.385 223.807 192.323 224.115 190.25 224.318C188.177 224.521 186.099 224.625 184.01 224.625C181.927 224.625 179.849 224.521 177.776 224.318C175.703 224.115 173.641 223.807 171.599 223.401C169.552 222.995 167.536 222.49 165.542 221.885C163.547 221.281 161.583 220.578 159.661 219.781C157.734 218.984 155.854 218.094 154.016 217.109C152.177 216.125 150.391 215.057 148.656 213.901C146.927 212.74 145.255 211.5 143.641 210.177C142.031 208.859 140.49 207.458 139.016 205.984C137.542 204.51 136.141 202.969 134.823 201.359C133.5 199.745 132.26 198.073 131.099 196.344C129.943 194.609 128.87 192.823 127.891 190.984C126.906 189.146 126.016 187.266 125.219 185.339C124.422 183.412 123.719 181.453 123.115 179.458C122.51 177.464 122.005 175.448 121.599 173.401C121.193 171.359 120.885 169.297 120.682 167.224C120.479 165.151 120.375 163.068 120.375 160.984V144.537C120.375 142.453 120.479 140.375 120.682 138.297C120.885 136.224 121.193 134.167 121.599 132.12C122.005 130.078 122.51 128.057 123.115 126.063C123.719 124.068 124.422 122.109 125.219 120.182C126.016 118.255 126.906 116.375 127.891 114.537C128.87 112.698 129.943 110.911 131.099 109.182C132.26 107.448 133.5 105.776 134.823 104.167C136.141 102.552 137.542 101.01 139.016 99.5365C140.49 98.0625 142.031 96.6667 143.641 95.3438C145.255 94.0209 146.927 92.7813 148.656 91.625C150.391 90.4636 152.177 89.3959 154.016 88.4115C155.854 87.4323 157.734 86.5417 159.661 85.7396C161.583 84.9427 163.547 84.2448 165.542 83.6407C167.536 83.0313 169.552 82.5261 171.599 82.1198C173.641 81.7136 175.703 81.4063 177.776 81.2032C179.849 81 181.927 80.8959 184.01 80.8959Z" fill="#FFC9AC"/>
<path d="M120.374 151.359C205.848 152.229 229.645 103.828 229.645 103.828C229.645 103.828 233.687 142.557 247.65 152.76C254.952 112.13 233.505 75.1355 177.848 72.3698C122.187 69.6042 107.156 133.203 120.374 151.359Z" fill="#002C5C"/>
</svg>
