<svg width="260" height="53" viewBox="0 0 260 53" fill="none" xmlns="http://www.w3.org/2000/svg">
<path fill-rule="evenodd" clip-rule="evenodd" d="M37.256 36.7773L37.3552 36.8764C37.3898 36.911 37.2606 36.9395 37.2383 36.9576C37.2157 36.9756 37.1588 37.0237 37.1299 37.0477C37.0415 37.1304 36.9677 37.2115 36.9004 37.3166C36.7754 37.5044 36.6343 37.7493 36.5294 37.9447C36.316 38.3443 36.1403 38.8551 36.0607 39.3719C35.8385 40.8052 35.9738 41.3596 35.9738 42.892L36.008 43.1955L35.7739 45.2974C36.196 44.8046 36.4452 41.6135 36.4663 40.5859C36.9619 40.7196 37.0053 41.2184 37.4921 41.5504C37.8389 41.7878 38.4683 42.0522 38.8977 42.2295C39.7013 42.56 41.0438 43.0919 42.0996 43.0919C44.0685 43.0919 45.6498 41.8464 46.6698 40.8112C47.2523 40.2208 47.7675 39.5282 48.1131 38.7665C48.2646 38.4299 48.9359 36.1027 48.9405 36.0982C49.3611 35.6144 52.4126 33.9317 53.227 33.4284C54.7272 32.5029 55.6372 31.2815 56.0413 29.2668C57.1301 23.831 57.8825 22.204 52.8844 20.2223C51.8436 19.8106 48.6702 18.7319 48.1489 18.0092C48.0439 17.865 47.5422 15.8608 47.3065 15.3573C46.8905 14.4696 46.5452 13.9062 46.4295 12.6996L46.9416 12.1169C46.2734 11.9365 46.4987 11.1042 45.8317 10.4373C45.1319 9.73692 45.0058 9.70693 44.2534 9.13C43.1465 8.28116 41.9823 7.70577 40.5875 7.13615C37.4844 5.87 35.8008 5 31.4261 5C26.5015 5 22.1402 6.55346 19.3512 8.79039C17.8134 10.0269 16.729 11.4138 15.8279 13.2362C14.9058 15.1019 12.5509 15.972 12.5509 17.9311C11.9577 18.831 10.7427 19.9533 10.0384 20.9975C9.1012 22.3903 8.89843 23.2557 8.47794 25.1276C8.14902 26.594 7.78708 28.2842 7.41011 29.758C7.25094 30.386 6.32428 34.0504 6.32428 34.3704C6.32428 36.5114 7.84564 38.7544 9.15676 39.5177C9.67941 39.8212 10.8959 40.7947 11.4366 41.2154C11.809 41.5068 13.5301 42.7388 13.835 42.8935C15.855 43.9107 16.7335 44.5988 19.2281 45.4416C20.5407 45.8834 20.9762 45.8864 22.4751 46.1568C23.8343 46.4032 24.6513 47.4023 25.3 47.4023H25.695C26.4129 47.4023 27.0872 40.9044 27.1788 39.6859C27.281 38.3022 27.2915 36.7097 27.275 35.1712C27.263 34.1616 27.5198 34.4185 28.3924 34.0008C28.7182 33.8446 29.7996 33.5697 30.2411 33.5697H30.4394C31.8991 33.5697 31.3344 34.5732 33.4025 34.5717C35.1251 34.5702 35.6343 34.5642 36.3671 35.6745C35.9527 37.4804 32.6801 39.9684 32.5134 41.9891C32.6996 41.8629 33.3724 40.8037 33.5347 40.5198C33.7404 40.1592 34.3546 39.5011 34.661 39.1556C35.05 38.7169 35.4809 38.3278 35.8969 37.9041C36.0607 37.7388 37.2533 36.7953 37.256 36.7773ZM52.8709 27.0537C53.3365 27.0537 53.5795 26.7427 53.859 26.5519C54.0136 26.6571 54.1562 26.6841 54.1562 26.953C54.1562 27.2896 53.1185 27.6547 52.6741 27.6547C51.9428 27.6547 51.3465 27.4399 51.1919 26.8539C51.7325 26.8644 51.8871 27.0537 52.4757 27.0537H52.8709ZM55.5395 26.1508C55.6449 25.7526 55.9798 25.5874 56.4288 25.5498C56.4031 25.8728 56.2531 26.1508 55.9359 26.1508H55.5395ZM52.2777 24.447C52.611 23.9437 53.2343 23.3443 54.0574 23.3443H54.1562C54.5169 23.3443 54.9463 23.6207 54.9463 23.9452C54.9463 24.3269 53.8982 24.6483 53.365 24.6483H52.3769L52.2777 24.447ZM19.9625 29.0579C19.5105 28.7499 18.8857 28.2121 18.4021 27.835C17.9365 27.4759 17.2817 27.0973 16.7996 26.7547C15.7273 25.9915 14.9689 24.9338 14.6265 23.4434C14.9103 23.5216 15.5756 24.7565 15.7724 25.0886C16.1583 25.7406 16.4932 26.0351 17.0699 26.4798C17.8434 27.0732 19.7177 28.1264 19.9625 29.0579ZM14.1714 20.646L14.2315 20.6385L13.9221 24.9474L13.9356 25.0495C13.9356 29.4305 15.3744 31.8494 17.1946 34.3704C17.9711 35.4447 19.1335 36.7217 20.0346 37.8064C20.4671 38.3278 22.1357 41.1868 22.1357 41.9891C22.1161 41.9741 20.1112 38.822 19.8243 38.4209C18.9863 37.246 18.1137 36.2665 17.2562 35.1126C15.9105 33.3037 13.6383 30.0465 13.6383 27.0537L13.5662 24.2337L14.1714 20.646ZM7.60988 34.1706V34.5717C7.60988 36.3085 9.76049 38.6523 10.8118 39.444C11.4065 39.8887 14.9884 42.8425 15.2197 43.191C14.1459 43.1009 10.968 40.2674 10.1525 39.5117C9.37003 38.789 6.72079 35.4386 6.72079 34.1706V33.9693C6.72079 33.487 7.62187 30.3905 7.80961 29.8617C8.17605 28.828 8.76629 26.7863 8.96902 25.7256C9.54873 22.7088 10.4528 20.1592 12.5509 18.7334C12.4007 19.39 11.0701 21.2935 10.6541 21.9215C9.99329 22.9116 9.48717 24.2067 9.48717 25.8503C9.49017 28.176 9.40455 28.5456 8.78432 30.2478C8.36379 31.4017 7.60988 32.5931 7.60988 34.1706ZM36.5655 15.9269H36.7635C36.8146 16.1508 36.8627 16.1568 36.8627 16.4272V16.8298C36.8627 17.3437 35.9542 17.6307 35.3804 17.6307C35.795 17.264 36.5655 16.9936 36.5655 16.2274V15.9269ZM34.2931 16.7277C35.6374 16.7277 35.2572 15.5196 35.9738 15.3246V15.7258C35.9738 16.5339 35.2062 17.2295 34.4913 17.2295H34.2931C33.8756 17.2295 33.0075 16.7157 33.0075 16.3265C33.0075 16.1433 33.2358 16.0712 33.4025 16.0261C33.4806 16.3641 33.7524 16.7277 34.0948 16.7277H34.2931ZM33.8981 15.5258C33.8981 15.2931 34.1609 15.0238 34.3922 15.0238C34.4748 15.0238 34.6881 15.2404 34.6881 15.3246C34.6881 15.4958 34.5559 15.7 34.4913 15.8262H34.1939C33.9656 15.8262 33.8981 15.7573 33.8981 15.5258ZM45.2626 14.9235C45.9412 14.8677 45.8497 14.3192 46.2507 14.0219V14.3223C46.2507 14.8677 45.9055 15.0388 45.5583 15.2254L45.2626 14.9235ZM31.6243 13.8219C32.4158 13.2842 33.6848 11.2154 35.2813 11.2154C36.0203 11.2154 36.9408 11.9381 37.256 12.4188C36.2979 12.3962 36.316 11.7158 35.3804 11.7158H35.083C34.1774 11.7158 33.7809 12.2519 33.2448 12.6592C33.0871 12.7777 31.7595 13.9573 31.7219 13.9212L31.6243 13.8219ZM30.9319 16.5294C32.3377 16.4092 33.7764 13.3219 35.4778 13.3219H35.577C36.9527 13.3219 36.9904 14.0069 37.752 14.5238H38.4425L39.1665 15.6023L38.2668 14.8015L37.8643 15.1412C37.193 14.6785 36.7666 13.8219 35.6762 13.8219H35.2813C34.4553 13.8219 32.3797 16.3025 31.4261 16.5294V16.7277C32.5629 17.0357 33.042 18.4329 35.2813 18.4329H35.9738C38.0327 18.4329 38.3602 16.8824 39.4325 16.6285C38.6828 17.7628 37.0519 18.9347 35.1821 18.9347H34.3922C33.6368 18.9347 31.0416 16.9425 30.9319 16.5294ZM26.6832 33.3683C26.4129 33.1685 25.8257 31.4948 25.635 31.0231C25.2505 30.0735 24.9832 29.5838 24.489 28.777C23.5519 27.246 23.1674 25.8683 22.4646 24.115C21.6205 22.0117 21.6431 21.0922 21.6431 18.2331C21.6431 15.4012 21.1655 14.7927 20.0616 13.1188C22.9392 13.185 21.7212 21.4017 22.7154 23.9603C23.5128 26.0125 26.53 31.5008 26.6832 33.3683ZM45.2626 12.8185C45.2626 13.0496 45.1934 13.1188 44.9666 13.1188C44.734 13.1188 44.5702 12.9535 44.5702 12.7192C44.5702 12.4881 44.6379 12.4188 44.8674 12.4188H44.9666C45.1934 12.4188 45.2626 12.4881 45.2626 12.7192V12.8185ZM45.7567 12.6185C45.7567 12.2715 45.581 12.4773 45.4591 12.0177C46.2311 12.0823 46.0316 12.8365 45.9639 13.43C45.8497 14.4304 45.8451 14.2608 45.1634 14.725C44.7413 14.4365 44.5371 14.1227 45.3603 14.1227C45.5702 13.8027 45.7567 13.5623 45.7567 13.0196V12.6185ZM43.9785 12.8185C43.9785 12.1169 45.0043 11.3162 45.7567 11.3162C45.8889 11.3162 45.9039 11.4258 45.9535 11.5158C45.198 11.5158 44.2742 12.0958 44.2742 12.8185V12.9192C44.2742 14.4138 45.1692 15.4281 46.0523 16.0261L46.2311 15.8054C46.2507 15.2208 46.09 14.9473 46.5468 14.8242V15.425C46.5468 15.8562 46.4326 15.969 46.3499 16.3265C45.333 16.3055 43.9785 14.3854 43.9785 13.0196V12.8185ZM44.749 10.1638L44.2426 11.4454L44.1077 11.4108L44.1542 10.6131L44.163 10.3815L44.749 10.1638ZM38.246 9.91116C38.5675 10.1308 39.276 11.3823 39.7028 11.8419C40.3003 12.4835 40.7601 13.0138 41.3833 13.6462C42.2903 14.5673 44.0654 16.1628 45.1423 16.8509C46.5841 17.7733 47.9885 18.6237 49.5099 19.4365C50.0804 19.743 53.7871 21.6 54.2554 21.639C53.8502 23.1745 49.9047 20.8247 48.804 25.5603L49.1162 26.0516H49.7094C51.4349 28.6658 50.2004 28.9573 54.5515 28.9573C55.0228 28.9573 55.3158 28.6568 55.7379 28.5576C55.7379 29.3028 55.4538 30.2598 55.0336 30.5603L55.1447 29.6589C55.1778 29.4335 55.047 29.3584 54.8471 29.3584C54.2585 29.3584 53.6456 30.7707 53.1666 31.0621C52.4565 31.4948 51.9651 32.0477 51.2519 32.5255C50.2035 33.2301 48.065 34.4726 46.4476 34.4726H44.8674C44.2246 34.4726 43.6959 34.2683 43.148 34.109C42.777 34.0023 41.4841 34.0669 41.0123 34.0714C39.4187 34.079 38.6259 32.9672 37.8493 32.9672H37.6528C37.4213 32.9672 37.256 33.1339 37.256 33.3683V33.5697C37.256 34.5702 38.7655 35.072 39.8258 35.072H40.3214C40.9523 35.072 41.0738 34.8722 41.7047 34.8722H43.4829C45.7582 34.8722 48.2288 35.0675 50.0082 34.3734C51.2654 33.8837 53.3934 31.5684 54.2554 31.3641V31.6646C54.2554 32.3482 51.8167 33.9047 51.1589 34.2382C50.2923 34.6769 48.0785 35.6745 46.9416 35.6745C45.8393 35.6745 44.5775 35.4672 43.5894 35.5814C42.6194 35.691 41.7482 36.1102 40.6175 36.0817C38.9669 36.0411 35.8819 35.2268 35.577 34.0714C35.9677 33.9783 36.4663 33.7364 36.4663 33.2677C36.4663 32.8034 35.577 32.6171 35.577 31.8659V31.6646C35.577 30.033 37.8493 28.8491 37.8493 27.6547V27.4549C37.8493 24.6964 35.2768 25.3875 34.3922 24.0459C36.7108 22.4699 38.0415 24.9489 39.1349 24.9489H39.9266C41.1776 24.9489 42.0907 21.0396 44.1753 21.0396H44.8674C45.4652 21.0396 45.719 21.3386 46.4476 21.3386H46.5468C47.012 21.3386 47.6325 20.8863 47.6325 20.4371C47.6325 19.6529 45.7175 18.3878 45.1454 17.9477C44.01 17.0778 43.4798 16.6736 42.4706 15.6504C41.6102 14.7804 38.396 11.0996 38.246 9.91116Z" fill="#274B7B"/>
<path fill-rule="evenodd" clip-rule="evenodd" d="M0 44.4951C0 45.4401 4.19312 47.1514 5.74454 46.9861L12.7491 45.8984H14.7256C16.3896 45.8984 18.6799 47.4023 20.3589 47.4023C20.1727 46.8824 17.4499 45.6264 16.8011 45.2974C15.478 44.6259 14.3666 43.9603 13.1126 43.2241C11.9622 42.5495 10.8433 41.6616 9.85658 40.8112C9.5352 40.5363 6.93248 37.9807 6.91749 37.9807C6.78081 37.9807 5.48322 39.2157 5.11978 39.4636C4.43645 39.9293 3.55036 40.1757 2.90457 40.6249C2.14162 41.1523 0 43.4464 0 44.4951Z" fill="#274B7B"/>
<path d="M202.028 38.9063C202.028 39.7979 201.697 40.5593 201.042 41.1904C200.381 41.8171 199.58 42.1338 198.637 42.1338C197.692 42.1338 196.895 41.8171 196.244 41.1815C195.59 40.5458 195.26 39.7912 195.26 38.9063C195.26 38.0258 195.59 37.2711 196.244 36.64C196.895 36.0089 197.692 35.6967 198.637 35.6967C199.58 35.6967 200.381 36.0089 201.042 36.64C201.697 37.2711 202.028 38.0258 202.028 38.9063Z" fill="#78CEC4"/>
<path d="M213.572 32.9834C213.567 32.9834 213.271 32.9137 212.701 32.7678C212.128 32.624 211.666 32.5544 211.311 32.5544C210.453 32.5544 209.771 32.7947 209.261 33.2753C208.752 33.756 208.493 34.3961 208.493 35.2002C208.493 36.0222 208.774 36.6781 209.331 37.1475C209.886 37.6214 210.617 37.8549 211.513 37.8549C211.931 37.8549 212.409 37.7539 212.941 37.5517C213.466 37.3496 213.72 37.2486 213.691 37.2486C213.853 37.2486 214.063 37.819 214.324 38.96C214.546 40.0066 214.654 40.6962 214.654 41.0376C214.654 41.379 214.059 41.6732 212.867 41.918C211.942 42.1067 211.197 42.1987 210.63 42.1987C208.514 42.1987 206.769 41.5339 205.39 40.2043C204.017 38.8724 203.327 37.2104 203.327 35.2271C203.327 33.2551 204.023 31.5976 205.402 30.2522C206.78 28.9068 208.525 28.2353 210.63 28.2353C212.065 28.2353 213.325 28.5273 214.41 29.1023C214.661 29.2258 214.789 29.3471 214.789 29.4661C214.789 29.5806 214.641 30.1107 214.353 31.054C214.084 31.9659 213.907 32.514 213.828 32.7026C213.745 32.8913 213.662 32.9834 213.572 32.9834Z" fill="#78CEC4"/>
<path d="M230.194 35.2273C230.194 37.2756 229.524 38.9377 228.184 40.2179C226.839 41.4937 225.076 42.1338 222.894 42.1338C220.777 42.1338 219.037 41.5026 217.668 40.2404C216.304 38.9826 215.62 37.3632 215.62 35.389C215.62 33.3025 216.276 31.6067 217.584 30.3085C218.889 29.0058 220.665 28.3545 222.894 28.3545C225.066 28.3545 226.83 28.9968 228.175 30.2681C229.524 31.5393 230.194 33.1902 230.194 35.2273ZM225.46 35.2273C225.46 34.513 225.229 33.8864 224.756 33.3429C224.284 32.7994 223.673 32.5276 222.923 32.5276C222.167 32.5276 221.541 32.8061 221.049 33.3608C220.584 33.8864 220.352 34.504 220.352 35.2273C220.352 35.9528 220.584 36.5794 221.049 37.1004C221.541 37.6575 222.167 37.9337 222.923 37.9337C223.673 37.9337 224.293 37.6575 224.787 37.1004C225.238 36.5794 225.46 35.9528 225.46 35.2273Z" fill="#78CEC4"/>
<path d="M255 41.3656C255 41.6778 254.852 41.853 254.564 41.889C254.275 41.9271 253.568 41.9451 252.429 41.9451C251.257 41.9451 250.521 41.9182 250.238 41.862C249.946 41.8058 249.802 41.5857 249.802 41.1994C249.802 40.7906 249.818 40.1663 249.847 39.3465C249.877 38.5244 249.892 37.9068 249.892 37.4935C249.892 35.9168 249.872 34.7983 249.833 34.129C249.773 33.0621 249.232 32.5275 248.203 32.5275C247.75 32.5275 247.301 32.7027 246.855 33.0576C246.406 33.417 246.158 33.8078 246.109 34.2413C246.071 34.6186 246.05 35.7236 246.05 37.5564C246.05 37.9809 246.066 38.621 246.096 39.4812C246.125 40.3392 246.141 40.9861 246.141 41.4151C246.141 41.716 246.001 41.862 245.72 41.862H241.347C241.082 41.862 240.943 41.6778 240.943 41.3095C240.943 40.885 240.959 40.2493 240.988 39.4071C241.017 38.5603 241.033 37.9247 241.033 37.4935C241.033 37.1611 241.021 36.6557 241.003 35.9819C240.983 35.3059 240.972 34.7983 240.972 34.4569C240.972 33.1677 240.451 32.5275 239.403 32.5275C238.979 32.5275 238.52 32.6803 238.028 32.9835C237.492 33.3204 237.22 33.6708 237.22 34.0391C237.22 34.8589 237.225 36.0785 237.234 37.7091C237.245 39.3352 237.25 40.5548 237.25 41.3656C237.25 41.5857 237.22 41.7295 237.166 41.7789C237.106 41.835 236.96 41.871 236.717 41.889C236.284 41.9271 235.602 41.9451 234.67 41.9451C234.064 41.9451 233.375 41.9182 232.607 41.862C232.375 41.844 232.236 41.8126 232.191 41.7654C232.153 41.7227 232.129 41.5857 232.129 41.3656C232.129 40.6424 232.133 39.5643 232.142 38.1313C232.153 36.6961 232.158 35.6225 232.158 34.8993C232.158 33.4259 232.043 31.7684 231.812 29.9222C231.794 29.8166 231.782 29.7335 231.782 29.6774C231.782 29.5247 231.847 29.4236 231.985 29.3696C232.196 29.291 232.595 29.2214 233.181 29.1675C233.902 29.1024 234.331 29.0642 234.465 29.0462C234.562 29.0283 234.939 28.9317 235.606 28.761C236.078 28.6375 236.457 28.5723 236.747 28.5723C236.931 28.5723 237.023 28.8845 237.032 29.5111C237.043 30.1378 237.081 30.4455 237.151 30.4455C237.245 30.414 237.357 30.3512 237.481 30.2568C238.347 29.6325 239.028 29.199 239.529 28.9631C240.269 28.633 241.078 28.4668 241.937 28.4668C242.824 28.4668 243.612 28.6509 244.308 29.0193C245.085 29.4325 245.593 30.012 245.819 30.7599C246.331 30.1108 247.03 29.5673 247.928 29.1249C248.824 28.6869 249.694 28.4668 250.536 28.4668C251.81 28.4668 252.842 28.7385 253.64 29.291C254.547 29.9064 255 30.7959 255 31.9481C255 32.422 254.984 33.1407 254.955 34.0975C254.926 35.0566 254.91 35.7753 254.91 36.2492C254.91 36.8152 254.926 37.6664 254.955 38.8052C254.984 39.9417 255 40.7974 255 41.3656Z" fill="#78CEC4"/>
<path d="M94.9418 37.4527C94.9418 37.7036 94.7676 38.0311 94.4104 38.4413C91.2774 41.8758 87.1082 43.593 81.909 43.593C76.5956 43.593 72.2853 41.9239 68.9796 38.5855C65.7597 35.3508 64.1453 31.2733 64.1453 26.3529C64.1453 21.5858 65.7251 17.54 68.8746 14.2166C72.1634 10.7416 76.3507 9.00001 81.4284 9.00001C86.9417 9.00001 91.2774 10.5565 94.4104 13.6785C94.7496 14.0242 94.9149 14.3292 94.9149 14.5935C94.9149 14.8912 94.3309 16 93.1459 17.9092C91.9579 19.8265 91.2174 20.8962 90.911 21.1351C90.7714 21.2568 90.5973 21.3214 90.3973 21.3214C90.3104 21.3214 89.8821 21.0074 89.1147 20.3809C88.197 19.6267 87.2916 19.0407 86.41 18.6154C85.0659 17.9904 83.6618 17.6766 82.2139 17.6766C79.7102 17.6766 77.7113 18.5358 76.2127 20.2607C74.8339 21.8577 74.143 23.8409 74.143 26.1922C74.143 28.569 74.8339 30.5672 76.2127 32.1883C77.7113 33.9386 79.7102 34.822 82.2139 34.822C83.696 34.822 85.102 34.523 86.4354 33.9221C87.2993 33.5374 88.1897 32.9831 89.0967 32.2769C89.8387 31.682 90.2578 31.386 90.3431 31.386C90.5192 31.386 90.6842 31.4746 90.8583 31.6429C91.1286 31.9239 91.8722 32.9019 93.084 34.5801C94.3216 36.3214 94.9418 37.2769 94.9418 37.4527Z" fill="#78CEC4"/>
<path d="M123.034 25.7189L122.98 41.9403C122.98 42.4947 122.745 42.7982 122.266 42.8628C121.715 42.9274 120.477 42.9514 118.531 42.9514C116.655 42.9514 115.355 42.8958 114.623 42.7666C114.063 42.6705 113.778 42.3325 113.778 41.7555C113.778 40.4079 113.803 38.3766 113.856 35.6648C113.908 32.9499 113.933 30.9202 113.933 29.5725C113.933 27.7411 112.922 26.8261 110.89 26.8261C110.208 26.8261 109.406 27.0755 108.49 27.5728C107.487 28.1272 106.981 28.6966 106.981 29.2901V35.1014C106.981 35.8556 106.997 36.9884 107.033 38.4968C107.067 40.0142 107.086 41.1455 107.086 41.8998C107.086 42.4782 106.815 42.7982 106.291 42.8628C105.76 42.9274 104.276 42.9514 101.841 42.9514C100.445 42.9514 99.4442 42.8958 98.824 42.7666C98.2127 42.6389 97.9063 42.3655 97.9063 41.9403C97.9063 40.7038 97.9155 38.8423 97.9336 36.3619C97.9517 33.8739 97.959 32.0124 97.959 30.776C97.959 25.6468 97.899 21.4085 97.7771 18.0534C97.7233 16.8742 97.6887 15.7023 97.6556 14.5215C97.5672 13.1661 97.4092 11.9946 97.1916 11.0223C97.1404 10.8211 97.1135 10.6692 97.1135 10.573C97.1135 10.3403 97.2458 10.1796 97.498 10.1073C98.0297 9.96303 98.806 9.87611 99.8271 9.84303C101.188 9.80226 101.982 9.76188 102.2 9.73034C105.288 9.40111 106.823 9.23303 106.823 9.23303C107.104 9.23303 107.234 9.40111 107.234 9.73034C107.234 10.2276 107.198 10.9096 107.138 11.7765C107.067 12.7803 107.033 13.4623 107.033 13.8242C106.928 17.3626 106.875 20.1645 106.875 22.2123C106.875 22.5323 106.964 22.684 107.138 22.684C107.173 22.684 107.599 22.4121 108.437 21.8577C109.424 21.2161 110.373 20.7098 111.273 20.3327C112.615 19.7874 113.925 19.5139 115.181 19.5139C117.361 19.5139 119.186 20.0368 120.652 21.087C122.239 22.2123 123.034 23.7612 123.034 25.7189Z" fill="#78CEC4"/>
<path d="M137.315 14.5049C137.315 17.2272 135.648 18.5915 132.306 18.5915C130.876 18.5915 129.69 18.2457 128.756 17.5561C127.736 16.8095 127.221 15.7895 127.221 14.5049C127.221 13.2772 127.753 12.2753 128.808 11.4972C129.776 10.7745 130.947 10.4122 132.306 10.4122C133.634 10.4122 134.784 10.7818 135.753 11.5122C136.8 12.2995 137.315 13.2938 137.315 14.5049ZM136.653 31.9719C136.653 33.1197 136.678 34.8219 136.731 37.0845C136.783 39.3562 136.809 41.0494 136.809 42.1822C136.809 42.5097 136.591 42.702 136.163 42.7666C135.588 42.8628 134.287 42.9124 132.255 42.9124C130.213 42.9124 128.896 42.8628 128.321 42.7666C127.945 42.702 127.718 42.5984 127.631 42.4616C127.597 42.397 127.578 42.1657 127.578 41.7555C127.578 40.6723 127.604 39.0497 127.657 36.8757C127.709 34.7092 127.736 33.0716 127.736 31.9719C127.736 27.5247 127.544 23.9775 127.169 21.3454C127.134 21.0959 127.116 20.9277 127.116 20.8555C127.116 20.534 127.353 20.3808 127.805 20.3808C128.284 20.3808 129.017 20.4304 129.995 20.5265C130.973 20.6137 131.715 20.6617 132.203 20.6617C132.7 20.6617 133.44 20.6212 134.427 20.5415C135.414 20.4694 136.154 20.4304 136.653 20.4304C137.063 20.4304 137.263 20.5821 137.263 20.8961C137.263 20.9592 137.244 21.111 137.21 21.3454C136.843 24.4027 136.653 27.9424 136.653 31.9719Z" fill="#78CEC4"/>
<path d="M164.997 29.9977C164.997 31.5782 164.438 32.4842 163.33 32.702C163.147 32.7335 161.385 32.9018 158.042 33.2234C156.028 33.4247 153.035 33.665 149.047 33.946C149.284 34.9646 150.008 35.7444 151.22 36.2732C152.206 36.7149 153.332 36.9313 154.589 36.9313C156.107 36.9313 157.633 36.5617 159.168 35.8075C159.814 35.4304 160.46 35.0533 161.105 34.6762C161.463 34.8369 162.065 35.6317 162.911 37.0755C163.756 38.5223 164.175 39.4358 164.175 39.8294C164.175 39.9331 164.045 40.1194 163.792 40.3673C161.717 42.421 158.488 43.4502 154.108 43.4502C150.052 43.4502 146.78 42.358 144.294 40.1825C141.738 37.9679 140.455 35.0127 140.455 31.3123C140.455 27.7095 141.598 24.7558 143.884 22.4526C146.231 20.0683 149.354 18.8722 153.236 18.8722C156.508 18.8722 159.282 19.9721 161.566 22.1717C163.854 24.3622 164.997 26.9719 164.997 29.9977ZM156.044 28.5599C156.044 27.5878 155.671 26.7375 154.919 25.9998C154.17 25.2606 153.279 24.8925 152.242 24.8925C151.17 24.8925 150.279 25.3102 149.58 26.144C148.935 26.9072 148.612 27.8147 148.612 28.8483C148.612 29.266 148.849 29.4839 149.328 29.4839C150.585 29.4839 152.547 29.299 155.208 28.937C155.767 28.8648 156.044 28.7372 156.044 28.5599Z" fill="#78CEC4"/>
<path d="M193.209 42.0845C193.209 42.5097 192.974 42.7501 192.495 42.8147C192.015 42.8793 190.776 42.9124 188.762 42.9124C186.614 42.9124 185.29 42.8628 184.774 42.7666C184.267 42.6705 184.005 42.3489 184.005 41.8051C184.005 41.0659 184.031 39.9496 184.085 38.4652C184.138 36.9719 184.163 35.8555 184.163 35.1014C184.163 34.5229 184.145 33.6575 184.11 32.5007C184.074 31.3529 184.059 30.486 184.059 29.9015C184.059 27.7576 183.046 26.6819 181.023 26.6819C180.359 26.6819 179.583 26.9463 178.693 27.4857C177.741 28.0791 177.262 28.665 177.262 29.242V41.9403C177.262 42.4616 177.001 42.7501 176.469 42.8147C175.874 42.8793 174.654 42.9124 172.812 42.9124C170.824 42.9124 169.523 42.8628 168.932 42.7666C168.398 42.687 168.137 42.4301 168.137 41.9884C168.137 40.7684 168.145 38.9235 168.163 36.467C168.181 34.0031 168.188 32.1551 168.188 30.9112C168.188 27.0109 167.858 23.9445 167.195 21.7224C167.159 21.5767 167.143 21.464 167.143 21.3694C167.143 21.12 167.273 20.9442 167.527 20.8555C168.599 20.7429 170.029 20.5656 171.819 20.3327C174.532 19.8504 176.05 19.6025 176.389 19.6025C176.582 19.6025 176.721 20.1329 176.825 21.1921C176.932 22.2513 177.079 22.7816 177.262 22.7816C177.079 22.7816 177.995 22.2348 180.01 21.144C182.024 20.0533 183.797 19.5139 185.315 19.5139C187.478 19.5139 189.283 19.9797 190.732 20.9202C192.354 22.0034 193.157 23.5118 193.157 25.4379V32.9349C193.157 33.955 193.165 35.4785 193.183 37.5097C193.201 39.5394 193.209 41.0659 193.209 42.0845Z" fill="#78CEC4"/>
</svg>
