<svg width="355" height="354" viewBox="0 0 355 354" fill="none" xmlns="http://www.w3.org/2000/svg">
<path d="M354.755 177.026C354.755 179.922 354.687 182.812 354.541 185.708C354.4 188.599 354.187 191.484 353.906 194.37C353.624 197.25 353.27 200.125 352.843 202.99C352.421 205.854 351.926 208.703 351.359 211.547C350.796 214.385 350.161 217.208 349.458 220.021C348.755 222.828 347.984 225.62 347.145 228.391C346.301 231.161 345.395 233.906 344.421 236.635C343.447 239.359 342.406 242.062 341.296 244.74C340.187 247.411 339.015 250.062 337.775 252.677C336.541 255.297 335.239 257.88 333.874 260.438C332.51 262.99 331.083 265.51 329.593 267.995C328.104 270.479 326.557 272.922 324.947 275.328C323.338 277.74 321.671 280.104 319.947 282.432C318.223 284.755 316.442 287.042 314.604 289.276C312.77 291.516 310.88 293.708 308.932 295.854C306.989 298 304.994 300.099 302.947 302.146C300.9 304.193 298.801 306.187 296.656 308.135C294.51 310.078 292.317 311.969 290.083 313.807C287.843 315.646 285.562 317.427 283.234 319.151C280.911 320.875 278.541 322.542 276.135 324.151C273.729 325.76 271.281 327.313 268.796 328.797C266.317 330.286 263.796 331.714 261.244 333.078C258.687 334.443 256.104 335.745 253.484 336.984C250.869 338.224 248.223 339.396 245.546 340.505C242.869 341.615 240.171 342.656 237.442 343.63C234.718 344.609 231.968 345.516 229.197 346.354C226.426 347.198 223.635 347.969 220.827 348.672C218.02 349.375 215.192 350.01 212.354 350.578C209.515 351.141 206.661 351.635 203.796 352.062C200.932 352.484 198.062 352.839 195.176 353.125C192.296 353.406 189.411 353.62 186.515 353.766C183.624 353.906 180.729 353.979 177.838 353.979C174.942 353.979 172.046 353.906 169.156 353.766C166.26 353.625 163.374 353.411 160.494 353.125C157.609 352.844 154.739 352.49 151.874 352.062C149.01 351.641 146.156 351.146 143.317 350.578C140.479 350.016 137.65 349.38 134.843 348.677C132.036 347.974 129.244 347.203 126.473 346.359C123.702 345.521 120.952 344.609 118.229 343.635C115.499 342.661 112.801 341.62 110.124 340.51C107.447 339.401 104.801 338.229 102.182 336.99C99.5671 335.755 96.9785 334.453 94.4264 333.089C91.8744 331.724 89.3535 330.297 86.8691 328.807C84.3848 327.318 81.9421 325.771 79.5306 324.161C77.1244 322.552 74.7598 320.885 72.4316 319.161C70.1087 317.437 67.8223 315.656 65.5879 313.818C63.3483 311.979 61.1556 310.089 59.0098 308.146C56.8639 306.198 54.7702 304.203 52.7181 302.156C50.6712 300.109 48.6764 298.01 46.7337 295.865C44.7858 293.719 42.8952 291.526 41.0619 289.292C39.2233 287.052 37.4421 284.771 35.7181 282.443C33.9941 280.12 32.3223 277.75 30.7181 275.344C29.1087 272.938 27.5566 270.49 26.0723 268.005C24.5827 265.521 23.1556 263.005 21.791 260.448C20.4264 257.896 19.1243 255.312 17.8848 252.693C16.6452 250.073 15.4733 247.427 14.3639 244.75C13.2598 242.078 12.2181 239.375 11.2389 236.651C10.265 233.922 9.35872 231.177 8.51497 228.401C7.67643 225.63 6.9056 222.844 6.20247 220.031C5.49935 217.224 4.86393 214.401 4.29622 211.557C3.73372 208.719 3.23893 205.87 2.81185 203.005C2.38997 200.141 2.03581 197.266 1.74935 194.385C1.4681 191.5 1.25456 188.615 1.11393 185.724C0.968098 182.828 0.900391 179.937 0.900391 177.042C0.900391 174.146 0.973307 171.25 1.11393 168.359C1.25456 165.469 1.4681 162.578 1.75456 159.698C2.03581 156.818 2.38997 153.943 2.81706 151.078C3.23893 148.214 3.73893 145.365 4.30143 142.521C4.86914 139.682 5.49935 136.859 6.20247 134.047C6.91081 131.24 7.68164 128.448 8.52018 125.677C9.36393 122.906 10.2702 120.161 11.2441 117.432C12.2233 114.708 13.265 112.005 14.3743 109.328C15.4785 106.656 16.6556 104.01 17.8952 101.391C19.1296 98.7708 20.4316 96.1875 21.7962 93.6354C23.1608 91.0781 24.5879 88.5625 26.0775 86.0781C27.5671 83.5937 29.1191 81.151 30.7285 78.7396C32.3327 76.3333 34.0046 73.9687 35.7285 71.6406C37.4525 69.3177 39.2337 67.0312 41.0723 64.7969C42.9056 62.5573 44.8014 60.3646 46.7441 58.2187C48.6868 56.0729 50.6869 53.9791 52.7337 51.9323C54.7806 49.8854 56.8796 47.8854 59.0254 45.9427C61.1712 44 63.3639 42.1094 65.5983 40.2708C67.8379 38.4323 70.1191 36.651 72.4473 34.9271C74.7754 33.2031 77.14 31.5364 79.5462 29.9271C81.9577 28.3229 84.4004 26.7708 86.8848 25.2812C89.3691 23.7969 91.89 22.3698 94.4421 21.0052C96.9941 19.6406 99.5827 18.3385 102.202 17.0989C104.817 15.8646 107.463 14.6875 110.14 13.5833C112.817 12.4739 115.515 11.4323 118.244 10.4583C120.968 9.48435 123.718 8.57289 126.489 7.73435C129.26 6.89581 132.051 6.11977 134.859 5.41664C137.671 4.71352 140.494 4.08331 143.333 3.5156C146.176 2.9531 149.025 2.45831 151.89 2.03123C154.755 1.60935 157.63 1.25518 160.51 0.973935C163.39 0.687477 166.281 0.473936 169.171 0.33331C172.062 0.192685 174.958 0.119769 177.854 0.119769C180.749 0.109351 183.65 0.171851 186.541 0.307269C189.437 0.437477 192.327 0.640602 195.213 0.916644C198.098 1.19268 200.973 1.53644 203.843 1.9531C206.708 2.36977 209.567 2.85935 212.411 3.41664C215.255 3.97394 218.083 4.59894 220.895 5.29685C223.708 5.99477 226.499 6.76039 229.275 7.59373C232.051 8.43227 234.807 9.33331 237.536 10.3021C240.265 11.276 242.973 12.3125 245.65 13.4166C248.333 14.5208 250.979 15.6875 253.604 16.9271C256.223 18.1614 258.812 19.4583 261.369 20.8229C263.932 22.1823 266.452 23.6094 268.937 25.0937C271.426 26.5833 273.874 28.1302 276.286 29.7396C278.697 31.3437 281.067 33.0104 283.395 34.7396C285.723 36.4635 288.01 38.2448 290.249 40.0781C292.494 41.9166 294.687 43.8073 296.833 45.7552C298.984 47.7031 301.083 49.6979 303.13 51.75C305.182 53.7969 307.176 55.8958 309.124 58.0416C311.067 60.1927 312.958 62.3854 314.796 64.625C316.635 66.8698 318.416 69.151 320.14 71.4791C321.864 73.8125 323.531 76.1823 325.14 78.5937C326.749 81 328.296 83.4531 329.781 85.9375C331.27 88.4271 332.692 90.9479 334.057 93.5052C335.421 96.0625 336.718 98.6562 337.952 101.276C339.187 103.896 340.359 106.547 341.463 109.229C342.567 111.906 343.604 114.615 344.572 117.344C345.546 120.073 346.447 122.828 347.281 125.599C348.119 128.375 348.885 131.172 349.583 133.984C350.275 136.797 350.906 139.625 351.463 142.469C352.02 145.312 352.51 148.167 352.926 151.036C353.343 153.906 353.687 156.781 353.963 159.667C354.239 162.552 354.442 165.443 354.572 168.333C354.702 171.229 354.765 174.125 354.755 177.026Z" fill="#3998FF"/>
<path d="M314.323 289.662C312.234 292.193 310.073 294.662 307.849 297.073C305.625 299.484 303.333 301.833 300.974 304.115C298.62 306.396 296.198 308.615 293.719 310.76C291.24 312.912 288.703 314.99 286.104 316.995C283.51 319.005 280.859 320.938 278.156 322.797C275.453 324.662 272.703 326.443 269.896 328.151C267.094 329.859 264.25 331.484 261.354 333.031C258.464 334.583 255.526 336.047 252.552 337.432C249.578 338.818 246.568 340.12 243.521 341.339C240.474 342.557 237.396 343.688 234.286 344.734C231.177 345.781 228.036 346.745 224.875 347.615C221.714 348.49 218.526 349.271 215.318 349.964C212.115 350.662 208.891 351.266 205.646 351.781C202.406 352.297 199.156 352.724 195.891 353.057C192.625 353.391 189.354 353.635 186.078 353.787C182.797 353.943 179.521 354 176.24 353.974C172.958 353.943 169.677 353.823 166.406 353.609C163.13 353.396 159.865 353.094 156.604 352.703C153.349 352.307 150.104 351.823 146.87 351.25C143.641 350.672 140.427 350.01 137.234 349.255C134.042 348.505 130.87 347.662 127.724 346.734C124.578 345.802 121.458 344.787 118.365 343.688C115.276 342.583 112.219 341.396 109.193 340.12C106.172 338.849 103.182 337.495 100.234 336.052C97.2865 334.615 94.3802 333.094 91.5156 331.495C88.651 329.891 85.8333 328.214 83.0625 326.453C80.2917 324.698 77.5677 322.865 74.901 320.953C72.2292 319.047 69.6198 317.068 67.0573 315.01C64.5 312.958 62 310.833 59.5573 308.641C57.1198 306.448 54.7396 304.188 52.4271 301.859C50.1094 299.537 47.8646 297.146 45.6823 294.698C43.5 292.245 41.3854 289.734 39.3438 287.167C58.1875 260.292 87.4063 241.646 148.839 240.948C219.74 240.094 271.896 237.505 293.438 261.339C301.276 270.13 308.24 279.573 314.323 289.662Z" fill="white"/>
<path d="M119.234 132.411C85.2188 120.104 90.7657 75.2343 95.5938 74.2708C100.417 73.3072 110.787 81.2656 111.271 81.5052C111.755 81.75 108.859 61.4843 115.375 52.0729C121.891 42.6666 146.74 61.7239 165.797 61.9635C184.859 62.2083 230.938 63.4114 244.448 75.4739C257.953 87.5364 250.943 113.354 250.943 113.354C250.943 113.354 266.401 117.453 263.261 139.167C260.12 160.88 235.755 179.526 227.073 195.172C218.386 210.818 166.797 213.719 158.792 191.036" fill="#14213D"/>
<path d="M175.266 267.094C150.536 267.094 146.896 246.453 146.797 242.964C146.797 242.563 146.75 241.865 146.797 240.917C146.75 238.974 146.75 235.984 146.75 232.495C146.849 223.068 146.948 210.057 146.797 204.469L194.016 187.568L202.589 184.479L212.115 181.083C212.115 181.083 212.068 182.932 211.964 185.974C211.917 187.719 211.865 189.859 211.818 192.307C211.823 192.589 211.807 192.875 211.766 193.156C211.719 196.693 211.667 200.734 211.568 204.974C211.417 218.287 211.365 233.245 212.068 238.63C213.354 249.094 199.995 267.094 175.266 267.094Z" fill="#FFB5A6"/>
<path d="M212.161 192.406C212.046 192.667 211.911 192.911 211.76 193.151C195.005 227.604 169.827 241.266 146.791 240.917C146.744 238.974 146.744 235.984 146.744 232.495C146.843 223.068 146.942 210.057 146.791 204.469L194.01 187.568L211.812 192.307L212.161 192.406Z" fill="#E86B70"/>
<path d="M118.301 101.771C145.801 134.745 213.728 128.792 213.728 128.792C213.728 128.792 215.015 167.396 221.77 167.073C228.525 166.75 229.65 145.359 246.218 148.906C262.786 152.448 252.489 184.448 239.624 186.219C226.76 187.984 223.541 177.047 223.541 177.047C223.541 177.047 199.817 224.094 162.182 224.094C124.541 224.094 114.911 188.01 115.135 168.359C115.359 148.708 118.301 101.771 118.301 101.771Z" fill="#FFB5A6"/>
</svg>
