<svg width="813" height="1056" viewBox="0 0 813 1056" fill="none" xmlns="http://www.w3.org/2000/svg">
<g filter="url(#filter0_d_92_753)">
<path d="M559.34 106.862C559.714 107.089 560.086 107.315 560.447 107.561C564.612 109.909 569.334 110.584 574.022 109.677C577.789 108.98 581.199 107.275 584.386 104.669C586.929 102.665 589.16 99.9619 590.821 96.8873C594.356 90.8945 596.111 84.0486 595.863 76.6778C595.798 74.3429 595.56 71.8777 595.004 69.47C593.794 64.0665 591.566 59.8278 588.512 56.1121C586.411 53.7669 584.249 51.8666 581.565 50.4411C577.282 48.2497 572.846 47.5195 568.173 48.4082C564.394 49.1251 560.582 51.073 557.453 53.9946C555.738 55.4785 554.224 57.0887 553.056 58.9303L552.698 59.474C552.357 60.0375 551.999 60.5813 551.66 61.1426L551.317 61.6715C548.821 66.0288 547.377 70.765 546.781 75.7853C546.393 79.6585 546.511 83.5861 547.201 87.3705C548.239 92.6437 550.222 97.2408 553.275 100.959C554.98 103.577 557.137 105.448 559.34 106.862Z" fill="#FEAE23" fill-opacity="0.4"/>
<path d="M605.113 58.1161C603.016 63.0675 602.007 68.0223 601.909 72.8493C601.81 77.6763 602.542 81.7662 604.187 85.7277C605.441 89.1235 607.393 91.9537 610.043 94.2218L611.431 95.2678C614.212 97.3629 617.34 98.6321 620.773 98.7721C623.948 99.2596 627.472 98.9191 630.909 97.9703C635.697 96.6771 640.137 94.037 644.235 90.0475C645.848 88.2668 647.46 86.4881 649.03 84.4041C650.206 82.8431 651.211 81.1497 652.216 79.4563C653.962 76.416 655.229 73.29 656.15 69.8997C657.683 64.2488 657.997 58.7709 656.964 53.637C656.278 49.852 655.023 46.4562 653.071 43.626C650.687 39.9212 647.517 37.264 643.562 35.6433C639.913 33.9814 635.826 33.6239 631.431 34.3961C627.646 35.0826 624.425 36.465 620.984 38.4989C617.152 41.0552 613.708 44.1778 610.569 48.3438C610.046 49.0378 609.696 49.8658 608.912 50.9057C607.515 53.1201 606.162 55.6395 605.113 58.1161Z" fill="#FEAE23" fill-opacity="0.4"/>
<path d="M648.3 103.451C646.897 107.84 646.54 111.927 647.273 116.015C648.176 121.325 650.515 125.809 654.553 129.124L655.595 129.909C657.68 131.479 659.984 132.399 662.068 133.969C665.937 134.98 669.85 135.207 674.288 134.738C678.857 134.1 683.163 132.718 687.212 130.597C693.005 127.61 697.882 123.666 701.982 118.589C704.205 115.638 706.256 112.553 707.523 109.427C709.402 105.125 710.411 101.259 710.463 97.2134C710.606 90.5186 708.27 84.9454 703.929 80.5857C703.756 80.4554 703.756 80.4554 703.581 80.3234L699.585 77.3127C697.066 75.9598 694.111 74.8209 691.111 74.4654C687.153 73.9333 682.849 74.2287 678.496 75.3043C673.84 76.4225 669.488 78.5862 665.219 81.3587C661.387 83.9151 658.118 87.1696 655.196 90.6827C654.018 92.2457 652.841 93.8087 651.839 95.5016C650.353 98.1944 649.173 100.844 648.3 103.451Z" fill="#FEAE23" fill-opacity="0.4"/>
<mask id="mask0_92_753" style="mask-type:luminance" maskUnits="userSpaceOnUse" x="509" y="70" width="180" height="176">
<path d="M576.926 70.8744L688.571 155.005L620.657 245.13L509.012 160.999L576.926 70.8744Z" fill="white"/>
</mask>
<g mask="url(#mask0_92_753)">
<path d="M647.832 195.106C648.06 190.108 647.635 184.887 646.427 179.621C645.74 175.836 645.182 171.876 645.104 168.008C644.981 163.834 645.165 159.614 645.433 156.006L645.656 153.181C645.879 150.353 645.969 147.702 646.194 144.875C646.376 140.657 646.341 137.092 645.738 133.915C644.792 128.302 642.54 123.341 638.982 119.026C636.727 116.238 633.905 113.838 631.127 111.744C628.52 109.779 625.522 108.337 622.305 107.546C618.436 106.536 614.39 106.484 609.651 106.993C606.91 107.378 603.735 107.979 600.294 108.928C596.859 109.875 593.595 110.954 590.33 112.035L588.412 112.767C584.237 113.976 579.797 115.528 575.271 116.473C571.356 117.336 568.006 117.805 564.787 118.101C560.784 118.352 556.521 118.949 552.648 120.112C547.122 121.665 542.028 124.088 537.629 127.033C534.669 129.158 532.052 131.542 529.786 134.189C527.782 136.489 525.992 139.225 524.812 141.874C521.362 149.345 520.735 157.041 523.244 164.917C524.669 169.53 527.096 173.538 530.831 176.895C531.22 177.463 531.568 177.725 532.089 178.118L534.694 180.081C536.257 181.259 537.952 182.262 539.3 183.006C543.297 184.93 547.424 186.678 551.208 188.166L551.381 188.296C554.857 189.828 558.464 191.186 561.807 192.889C563.155 193.633 564.98 194.463 566.544 195.641C568.628 197.212 570.539 198.652 572.145 200.133C574.315 202.314 576.7 204.929 579.131 207.848C580.259 209.244 581.431 210.941 582.559 212.336C584.077 214.297 585.769 216.389 587.46 218.481C589.152 220.572 591.017 222.794 593.449 224.627L597.617 227.768C597.965 228.03 598.271 227.989 599.009 227.729C600.051 228.514 601.4 229.256 602.703 229.696C606.006 231.093 609.702 231.973 613.746 232.028C619.051 232.216 624.187 231.185 628.672 228.846C633.592 226.293 637.598 222.78 640.957 217.963C642.747 215.228 644.45 211.884 645.499 208.319C646.945 204.236 647.736 199.934 647.832 195.106Z" fill="#FEAE23" fill-opacity="0.4"/>
</g>
<path d="M713.302 171.436C715.249 167.624 716.07 163.422 715.699 159.578C715.267 154.842 713.361 150.794 710.072 147.279C707.943 145.078 705.537 143.536 702.689 142.152C698.274 140.238 693.604 139.28 688.076 139.605C685.608 139.735 683.171 140.184 680.909 140.765C673.757 142.56 667.658 146.133 662.857 151.171C660.378 153.63 658.392 156.518 657.168 159.514C655.543 163.298 654.825 167.032 655.21 170.857C655.63 175.613 657.579 179.965 660.986 183.323C661.322 183.602 661.643 183.9 661.963 184.195C663.931 185.924 666.323 187.481 669.291 188.384C673.708 190.295 678.674 190.934 684.045 190.491C687.871 190.11 691.665 189.129 695.281 187.689C699.941 185.731 704.095 183.037 707.598 179.439L708.028 178.975C708.456 178.48 708.9 178.002 709.327 177.504L709.772 177.025C711.218 175.393 712.332 173.482 713.302 171.436Z" fill="#FEAE23" fill-opacity="0.4"/>
</g>
<g filter="url(#filter1_d_92_753)">
<path d="M361.34 772.862C361.714 773.089 362.086 773.315 362.447 773.561C366.612 775.909 371.334 776.584 376.022 775.677C379.789 774.98 383.199 773.275 386.386 770.669C388.929 768.665 391.16 765.962 392.821 762.887C396.356 756.895 398.111 750.049 397.863 742.678C397.798 740.343 397.56 737.878 397.004 735.47C395.794 730.067 393.566 725.828 390.512 722.112C388.411 719.767 386.249 717.867 383.565 716.441C379.282 714.25 374.846 713.52 370.173 714.408C366.394 715.125 362.582 717.073 359.453 719.995C357.738 721.479 356.224 723.089 355.056 724.93L354.698 725.474C354.357 726.038 353.999 726.581 353.66 727.143L353.317 727.672C350.821 732.029 349.377 736.765 348.781 741.785C348.393 745.659 348.511 749.586 349.201 753.371C350.239 758.644 352.222 763.241 355.275 766.959C356.98 769.577 359.137 771.448 361.34 772.862Z" fill="#FEAE23" fill-opacity="0.4"/>
<path d="M407.113 724.116C405.016 729.068 404.007 734.022 403.909 738.849C403.81 743.676 404.542 747.766 406.187 751.728C407.441 755.124 409.393 757.954 412.043 760.222L413.431 761.268C416.212 763.363 419.34 764.632 422.773 764.772C425.948 765.26 429.472 764.919 432.909 763.97C437.697 762.677 442.137 760.037 446.235 756.048C447.848 754.267 449.46 752.488 451.03 750.404C452.206 748.843 453.211 747.15 454.216 745.456C455.962 742.416 457.229 739.29 458.15 735.9C459.683 730.249 459.997 724.771 458.964 719.637C458.278 715.852 457.023 712.456 455.071 709.626C452.687 705.921 449.517 703.264 445.562 701.643C441.913 699.981 437.826 699.624 433.431 700.396C429.646 701.083 426.425 702.465 422.984 704.499C419.152 707.055 415.708 710.178 412.569 714.344C412.046 715.038 411.696 715.866 410.912 716.906C409.515 719.12 408.162 721.64 407.113 724.116Z" fill="#FEAE23" fill-opacity="0.4"/>
<path d="M450.3 769.451C448.897 773.84 448.54 777.927 449.273 782.014C450.176 787.325 452.515 791.809 456.553 795.124L457.595 795.909C459.68 797.479 461.984 798.399 464.068 799.969C467.937 800.98 471.85 801.207 476.288 800.738C480.857 800.1 485.163 798.718 489.212 796.596C495.005 793.61 499.882 789.665 503.982 784.589C506.205 781.638 508.256 778.553 509.523 775.427C511.402 771.125 512.411 767.259 512.463 763.213C512.606 756.519 510.27 750.945 505.929 746.586C505.756 746.455 505.756 746.455 505.581 746.323L501.585 743.313C499.066 741.96 496.111 740.821 493.111 740.465C489.153 739.933 484.849 740.229 480.496 741.304C475.84 742.422 471.488 744.586 467.219 747.359C463.387 749.915 460.118 753.169 457.196 756.683C456.018 758.246 454.841 759.809 453.839 761.502C452.353 764.194 451.173 766.844 450.3 769.451Z" fill="#FEAE23" fill-opacity="0.4"/>
<mask id="mask1_92_753" style="mask-type:luminance" maskUnits="userSpaceOnUse" x="311" y="736" width="180" height="176">
<path d="M378.926 736.874L490.571 821.005L422.657 911.13L311.012 826.999L378.926 736.874Z" fill="white"/>
</mask>
<g mask="url(#mask1_92_753)">
<path d="M449.832 861.106C450.06 856.108 449.635 850.887 448.427 845.621C447.74 841.836 447.182 837.876 447.104 834.008C446.981 829.834 447.165 825.614 447.433 822.006L447.656 819.181C447.879 816.353 447.969 813.702 448.194 810.875C448.376 806.657 448.341 803.092 447.738 799.915C446.792 794.302 444.54 789.341 440.982 785.026C438.727 782.238 435.905 779.838 433.127 777.744C430.52 775.779 427.522 774.337 424.305 773.546C420.436 772.536 416.39 772.484 411.651 772.993C408.91 773.378 405.735 773.979 402.294 774.928C398.859 775.875 395.595 776.954 392.33 778.035L390.412 778.767C386.237 779.976 381.797 781.528 377.271 782.473C373.356 783.336 370.006 783.805 366.787 784.101C362.784 784.352 358.521 784.949 354.648 786.112C349.122 787.665 344.028 790.088 339.629 793.033C336.669 795.158 334.052 797.542 331.786 800.189C329.782 802.489 327.992 805.225 326.812 807.874C323.362 815.345 322.735 823.041 325.244 830.917C326.669 835.53 329.096 839.538 332.831 842.895C333.22 843.463 333.568 843.725 334.089 844.118L336.694 846.081C338.257 847.259 339.952 848.262 341.3 849.006C345.297 850.93 349.424 852.678 353.208 854.166L353.381 854.296C356.857 855.828 360.464 857.186 363.807 858.889C365.155 859.633 366.98 860.463 368.544 861.641C370.628 863.212 372.539 864.652 374.145 866.133C376.315 868.314 378.7 870.929 381.131 873.848C382.259 875.244 383.431 876.941 384.559 878.336C386.077 880.297 387.769 882.389 389.46 884.481C391.152 886.572 393.017 888.794 395.449 890.627L399.617 893.768C399.965 894.03 400.271 893.989 401.009 893.729C402.051 894.514 403.4 895.256 404.703 895.696C408.006 897.093 411.702 897.973 415.746 898.028C421.051 898.216 426.187 897.185 430.672 894.846C435.592 892.293 439.598 888.78 442.957 883.963C444.747 881.228 446.45 877.884 447.499 874.319C448.945 870.236 449.736 865.934 449.832 861.106Z" fill="#FEAE23" fill-opacity="0.4"/>
</g>
<path d="M515.302 837.436C517.249 833.624 518.07 829.422 517.699 825.578C517.267 820.842 515.361 816.794 512.072 813.279C509.943 811.078 507.537 809.536 504.689 808.152C500.274 806.238 495.604 805.28 490.076 805.605C487.608 805.735 485.171 806.184 482.909 806.765C475.757 808.56 469.658 812.133 464.857 817.171C462.378 819.63 460.392 822.518 459.168 825.514C457.543 829.298 456.825 833.032 457.21 836.857C457.63 841.613 459.579 845.965 462.986 849.324C463.322 849.602 463.643 849.9 463.963 850.195C465.931 851.924 468.323 853.481 471.291 854.384C475.708 856.295 480.674 856.934 486.045 856.491C489.871 856.11 493.665 855.129 497.281 853.689C501.941 851.731 506.095 849.037 509.598 845.439L510.028 844.975C510.456 844.481 510.9 844.002 511.327 843.504L511.772 843.025C513.218 841.393 514.332 839.482 515.302 837.436Z" fill="#FEAE23" fill-opacity="0.4"/>
</g>
<g filter="url(#filter2_d_92_753)">
<path d="M71.3395 898.862C71.714 899.089 72.0863 899.315 72.4468 899.561C76.6123 901.909 81.3345 902.584 86.022 901.677C89.789 900.98 93.1987 899.275 96.3861 896.669C98.9291 894.665 101.16 891.962 102.821 888.887C106.356 882.895 108.111 876.049 107.863 868.678C107.798 866.343 107.56 863.878 107.004 861.47C105.794 856.067 103.566 851.828 100.512 848.112C98.4112 845.767 96.2493 843.867 93.565 842.441C89.2815 840.25 84.8463 839.52 80.1727 840.408C76.3938 841.125 72.5818 843.073 69.4535 845.995C67.7379 847.479 66.2242 849.089 65.0561 850.93L64.698 851.474C64.3574 852.038 63.9993 852.581 63.6602 853.143L63.3166 853.672C60.821 858.029 59.3766 862.765 58.7806 867.785C58.3933 871.659 58.5109 875.586 59.2013 879.371C60.239 884.644 62.2221 889.241 65.2747 892.959C66.9796 895.577 69.1374 897.448 71.3395 898.862Z" fill="#FEAE23" fill-opacity="0.4"/>
<path d="M117.113 850.116C115.016 855.068 114.007 860.022 113.909 864.849C113.81 869.676 114.542 873.766 116.187 877.728C117.441 881.124 119.393 883.954 122.043 886.222L123.431 887.268C126.212 889.363 129.34 890.632 132.773 890.772C135.948 891.26 139.472 890.919 142.909 889.97C147.697 888.677 152.137 886.037 156.235 882.048C157.848 880.267 159.46 878.488 161.03 876.404C162.206 874.843 163.211 873.15 164.216 871.456C165.962 868.416 167.229 865.29 168.15 861.9C169.683 856.249 169.997 850.771 168.964 845.637C168.278 841.852 167.023 838.456 165.071 835.626C162.687 831.921 159.517 829.264 155.562 827.643C151.913 825.981 147.826 825.624 143.431 826.396C139.646 827.083 136.425 828.465 132.984 830.499C129.152 833.055 125.708 836.178 122.569 840.344C122.046 841.038 121.696 841.866 120.912 842.906C119.515 845.12 118.162 847.64 117.113 850.116Z" fill="#FEAE23" fill-opacity="0.4"/>
<path d="M160.3 895.451C158.897 899.84 158.54 903.927 159.273 908.014C160.176 913.325 162.515 917.809 166.553 921.124L167.595 921.909C169.68 923.479 171.984 924.399 174.068 925.969C177.937 926.98 181.85 927.207 186.288 926.738C190.857 926.1 195.163 924.718 199.212 922.596C205.005 919.61 209.882 915.665 213.982 910.589C216.205 907.638 218.256 904.553 219.523 901.427C221.402 897.125 222.411 893.259 222.463 889.213C222.606 882.519 220.27 876.945 215.929 872.586C215.756 872.455 215.756 872.455 215.581 872.323L211.585 869.313C209.066 867.96 206.111 866.821 203.111 866.465C199.153 865.933 194.849 866.229 190.496 867.304C185.84 868.422 181.488 870.586 177.219 873.359C173.387 875.915 170.118 879.169 167.196 882.683C166.018 884.246 164.841 885.809 163.839 887.502C162.353 890.194 161.173 892.844 160.3 895.451Z" fill="#FEAE23" fill-opacity="0.4"/>
<mask id="mask2_92_753" style="mask-type:luminance" maskUnits="userSpaceOnUse" x="21" y="862" width="180" height="176">
<path d="M88.9258 862.874L200.571 947.005L132.657 1037.13L21.0119 952.999L88.9258 862.874Z" fill="white"/>
</mask>
<g mask="url(#mask2_92_753)">
<path d="M159.832 987.106C160.06 982.108 159.635 976.887 158.427 971.621C157.74 967.836 157.182 963.876 157.104 960.008C156.981 955.834 157.165 951.614 157.433 948.006L157.656 945.181C157.879 942.353 157.969 939.702 158.194 936.875C158.376 932.657 158.341 929.092 157.738 925.915C156.792 920.302 154.54 915.341 150.982 911.026C148.727 908.238 145.905 905.838 143.127 903.744C140.52 901.779 137.522 900.337 134.305 899.546C130.436 898.536 126.39 898.484 121.651 898.993C118.91 899.378 115.735 899.979 112.294 900.928C108.859 901.875 105.595 902.954 102.33 904.035L100.412 904.767C96.2369 905.976 91.7965 907.528 87.2708 908.473C83.356 909.336 80.0063 909.805 76.7869 910.101C72.7842 910.352 68.5208 910.949 64.6481 912.112C59.1215 913.665 54.0283 916.088 49.6292 919.033C46.6688 921.158 44.0522 923.542 41.7858 926.189C39.7817 928.489 37.9916 931.225 36.8119 933.874C33.3619 941.345 32.7351 949.041 35.2436 956.917C36.6691 961.53 39.096 965.538 42.8307 968.895C43.2199 969.463 43.5679 969.725 44.089 970.118L46.6942 972.081C48.2574 973.259 49.9524 974.262 51.2999 975.006C55.2973 976.93 59.4244 978.678 63.2077 980.166L63.3807 980.296C66.8569 981.828 70.4636 983.186 73.8074 984.889C75.1549 985.633 76.9803 986.463 78.5435 987.641C80.6277 989.212 82.5389 990.652 84.1447 992.133C86.3147 994.314 88.7004 996.929 91.1307 999.848C92.2586 1001.24 93.4307 1002.94 94.5586 1004.34C96.0772 1006.3 97.7688 1008.39 99.4604 1010.48C101.152 1012.57 103.017 1014.79 105.449 1016.63L109.617 1019.77C109.965 1020.03 110.271 1019.99 111.009 1019.73C112.051 1020.51 113.4 1021.26 114.703 1021.7C118.006 1023.09 121.702 1023.97 125.746 1024.03C131.051 1024.22 136.187 1023.18 140.672 1020.85C145.592 1018.29 149.598 1014.78 152.957 1009.96C154.747 1007.23 156.45 1003.88 157.499 1000.32C158.945 996.236 159.736 991.934 159.832 987.106Z" fill="#FEAE23" fill-opacity="0.4"/>
</g>
<path d="M225.302 963.436C227.249 959.624 228.07 955.422 227.699 951.578C227.267 946.842 225.361 942.794 222.072 939.279C219.943 937.078 217.537 935.536 214.689 934.152C210.274 932.238 205.604 931.28 200.076 931.605C197.608 931.735 195.171 932.184 192.909 932.765C185.757 934.56 179.658 938.133 174.857 943.171C172.378 945.63 170.392 948.518 169.168 951.514C167.543 955.298 166.825 959.032 167.21 962.857C167.63 967.613 169.579 971.965 172.986 975.324C173.322 975.602 173.643 975.9 173.963 976.195C175.931 977.924 178.323 979.481 181.291 980.384C185.708 982.295 190.674 982.934 196.045 982.491C199.871 982.11 203.665 981.129 207.281 979.689C211.941 977.731 216.095 975.037 219.598 971.439L220.028 970.975C220.456 970.481 220.9 970.002 221.327 969.504L221.772 969.025C223.218 967.393 224.332 965.482 225.302 963.436Z" fill="#FEAE23" fill-opacity="0.4"/>
</g>
<g filter="url(#filter3_d_92_753)">
<path d="M617.34 399.862C617.714 400.089 618.086 400.315 618.447 400.561C622.612 402.909 627.334 403.584 632.022 402.677C635.789 401.98 639.199 400.275 642.386 397.669C644.929 395.665 647.16 392.962 648.821 389.887C652.356 383.894 654.111 377.049 653.863 369.678C653.798 367.343 653.56 364.878 653.004 362.47C651.794 357.067 649.566 352.828 646.512 349.112C644.411 346.767 642.249 344.867 639.565 343.441C635.282 341.25 630.846 340.52 626.173 341.408C622.394 342.125 618.582 344.073 615.453 346.995C613.738 348.478 612.224 350.089 611.056 351.93L610.698 352.474C610.357 353.037 609.999 353.581 609.66 354.143L609.317 354.671C606.821 359.029 605.377 363.765 604.781 368.785C604.393 372.659 604.511 376.586 605.201 380.371C606.239 385.644 608.222 390.241 611.275 393.959C612.98 396.577 615.137 398.448 617.34 399.862Z" fill="#FEAE23" fill-opacity="0.4"/>
<path d="M663.113 351.116C661.016 356.067 660.007 361.022 659.909 365.849C659.81 370.676 660.542 374.766 662.187 378.728C663.441 382.124 665.393 384.954 668.043 387.222L669.431 388.268C672.212 390.363 675.34 391.632 678.773 391.772C681.948 392.26 685.472 391.919 688.909 390.97C693.697 389.677 698.137 387.037 702.235 383.047C703.848 381.267 705.46 379.488 707.03 377.404C708.206 375.843 709.211 374.15 710.216 372.456C711.962 369.416 713.229 366.29 714.15 362.9C715.683 357.249 715.997 351.771 714.964 346.637C714.278 342.852 713.023 339.456 711.071 336.626C708.687 332.921 705.517 330.264 701.562 328.643C697.913 326.981 693.826 326.624 689.431 327.396C685.646 328.083 682.425 329.465 678.984 331.499C675.152 334.055 671.708 337.178 668.569 341.344C668.046 342.038 667.696 342.866 666.912 343.906C665.515 346.12 664.162 348.639 663.113 351.116Z" fill="#FEAE23" fill-opacity="0.4"/>
<path d="M706.3 396.451C704.897 400.84 704.54 404.927 705.273 409.015C706.176 414.325 708.515 418.809 712.553 422.124L713.595 422.909C715.68 424.479 717.984 425.399 720.068 426.969C723.937 427.98 727.85 428.207 732.288 427.738C736.857 427.1 741.163 425.718 745.212 423.597C751.005 420.61 755.882 416.666 759.982 411.589C762.205 408.638 764.256 405.553 765.523 402.427C767.402 398.125 768.411 394.259 768.463 390.213C768.606 383.519 766.27 377.945 761.929 373.586C761.756 373.455 761.756 373.455 761.581 373.323L757.585 370.313C755.066 368.96 752.111 367.821 749.111 367.465C745.153 366.933 740.849 367.229 736.496 368.304C731.84 369.422 727.488 371.586 723.219 374.359C719.387 376.915 716.118 380.17 713.196 383.683C712.018 385.246 710.841 386.809 709.839 388.502C708.353 391.194 707.173 393.844 706.3 396.451Z" fill="#FEAE23" fill-opacity="0.4"/>
<mask id="mask3_92_753" style="mask-type:luminance" maskUnits="userSpaceOnUse" x="567" y="363" width="180" height="176">
<path d="M634.926 363.874L746.571 448.005L678.657 538.13L567.012 453.999L634.926 363.874Z" fill="white"/>
</mask>
<g mask="url(#mask3_92_753)">
<path d="M705.832 488.106C706.06 483.108 705.635 477.887 704.427 472.621C703.74 468.836 703.182 464.876 703.104 461.008C702.981 456.834 703.165 452.614 703.433 449.006L703.656 446.181C703.879 443.353 703.969 440.702 704.194 437.875C704.376 433.657 704.341 430.092 703.738 426.915C702.792 421.302 700.54 416.341 696.982 412.026C694.727 409.238 691.905 406.838 689.127 404.744C686.52 402.779 683.522 401.337 680.305 400.546C676.436 399.536 672.39 399.484 667.651 399.993C664.91 400.378 661.735 400.979 658.294 401.928C654.859 402.875 651.595 403.954 648.33 405.035L646.412 405.767C642.237 406.976 637.797 408.528 633.271 409.473C629.356 410.336 626.006 410.805 622.787 411.101C618.784 411.352 614.521 411.949 610.648 413.112C605.122 414.665 600.028 417.088 595.629 420.033C592.669 422.158 590.052 424.542 587.786 427.189C585.782 429.489 583.992 432.225 582.812 434.874C579.362 442.345 578.735 450.041 581.244 457.917C582.669 462.53 585.096 466.538 588.831 469.895C589.22 470.463 589.568 470.725 590.089 471.118L592.694 473.081C594.257 474.259 595.952 475.262 597.3 476.006C601.297 477.93 605.424 479.678 609.208 481.166L609.381 481.296C612.857 482.828 616.464 484.186 619.807 485.889C621.155 486.633 622.98 487.463 624.544 488.641C626.628 490.212 628.539 491.652 630.145 493.133C632.315 495.314 634.7 497.929 637.131 500.848C638.259 502.244 639.431 503.941 640.559 505.336C642.077 507.297 643.769 509.389 645.46 511.481C647.152 513.572 649.017 515.794 651.449 517.627L655.617 520.768C655.965 521.03 656.271 520.989 657.009 520.729C658.051 521.514 659.4 522.256 660.703 522.696C664.006 524.093 667.702 524.973 671.746 525.028C677.051 525.216 682.187 524.185 686.672 521.846C691.592 519.293 695.598 515.78 698.957 510.963C700.747 508.228 702.45 504.884 703.499 501.319C704.945 497.236 705.736 492.934 705.832 488.106Z" fill="#FEAE23" fill-opacity="0.4"/>
</g>
<path d="M771.302 464.436C773.249 460.624 774.07 456.422 773.699 452.578C773.267 447.842 771.361 443.794 768.072 440.279C765.943 438.078 763.537 436.536 760.689 435.152C756.274 433.238 751.604 432.28 746.076 432.605C743.608 432.735 741.171 433.184 738.909 433.765C731.757 435.56 725.658 439.133 720.857 444.171C718.378 446.63 716.392 449.518 715.168 452.514C713.543 456.298 712.825 460.032 713.21 463.857C713.63 468.613 715.579 472.965 718.986 476.323C719.322 476.602 719.643 476.9 719.963 477.195C721.931 478.924 724.323 480.481 727.291 481.384C731.708 483.295 736.674 483.934 742.045 483.491C745.871 483.11 749.665 482.129 753.281 480.689C757.941 478.731 762.095 476.037 765.598 472.439L766.028 471.975C766.456 471.48 766.9 471.002 767.327 470.504L767.772 470.025C769.218 468.393 770.332 466.482 771.302 464.436Z" fill="#FEAE23" fill-opacity="0.4"/>
</g>
<g filter="url(#filter4_d_92_753)">
<path d="M293.34 479.862C293.714 480.089 294.086 480.315 294.447 480.561C298.612 482.909 303.334 483.584 308.022 482.677C311.789 481.98 315.199 480.275 318.386 477.669C320.929 475.665 323.16 472.962 324.821 469.887C328.356 463.894 330.111 457.049 329.863 449.678C329.798 447.343 329.56 444.878 329.004 442.47C327.794 437.067 325.566 432.828 322.512 429.112C320.411 426.767 318.249 424.867 315.565 423.441C311.282 421.25 306.846 420.52 302.173 421.408C298.394 422.125 294.582 424.073 291.453 426.995C289.738 428.478 288.224 430.089 287.056 431.93L286.698 432.474C286.357 433.037 285.999 433.581 285.66 434.143L285.317 434.671C282.821 439.029 281.377 443.765 280.781 448.785C280.393 452.659 280.511 456.586 281.201 460.371C282.239 465.644 284.222 470.241 287.275 473.959C288.98 476.577 291.137 478.448 293.34 479.862Z" fill="#FEAE23" fill-opacity="0.4"/>
<path d="M339.113 431.116C337.016 436.067 336.007 441.022 335.909 445.849C335.81 450.676 336.542 454.766 338.187 458.728C339.441 462.124 341.393 464.954 344.043 467.222L345.431 468.268C348.212 470.363 351.34 471.632 354.773 471.772C357.948 472.26 361.472 471.919 364.909 470.97C369.697 469.677 374.137 467.037 378.235 463.047C379.848 461.267 381.46 459.488 383.03 457.404C384.206 455.843 385.211 454.15 386.216 452.456C387.962 449.416 389.229 446.29 390.15 442.9C391.683 437.249 391.997 431.771 390.964 426.637C390.278 422.852 389.023 419.456 387.071 416.626C384.687 412.921 381.517 410.264 377.562 408.643C373.913 406.981 369.826 406.624 365.431 407.396C361.646 408.083 358.425 409.465 354.984 411.499C351.152 414.055 347.708 417.178 344.569 421.344C344.046 422.038 343.696 422.866 342.912 423.906C341.515 426.12 340.162 428.639 339.113 431.116Z" fill="#FEAE23" fill-opacity="0.4"/>
<path d="M382.3 476.451C380.897 480.84 380.54 484.927 381.273 489.015C382.176 494.325 384.515 498.809 388.553 502.124L389.595 502.909C391.68 504.479 393.984 505.399 396.068 506.969C399.937 507.98 403.85 508.207 408.288 507.738C412.857 507.1 417.163 505.718 421.212 503.597C427.005 500.61 431.882 496.666 435.982 491.589C438.205 488.638 440.256 485.553 441.523 482.427C443.402 478.125 444.411 474.259 444.463 470.213C444.606 463.519 442.27 457.945 437.929 453.586C437.756 453.455 437.756 453.455 437.581 453.323L433.585 450.313C431.066 448.96 428.111 447.821 425.111 447.465C421.153 446.933 416.849 447.229 412.496 448.304C407.84 449.422 403.488 451.586 399.219 454.359C395.387 456.915 392.118 460.17 389.196 463.683C388.018 465.246 386.841 466.809 385.839 468.502C384.353 471.194 383.173 473.844 382.3 476.451Z" fill="#FEAE23" fill-opacity="0.4"/>
<mask id="mask4_92_753" style="mask-type:luminance" maskUnits="userSpaceOnUse" x="243" y="443" width="180" height="176">
<path d="M310.926 443.874L422.571 528.005L354.657 618.13L243.012 533.999L310.926 443.874Z" fill="white"/>
</mask>
<g mask="url(#mask4_92_753)">
<path d="M381.832 568.106C382.06 563.108 381.635 557.887 380.427 552.621C379.74 548.836 379.182 544.876 379.104 541.008C378.981 536.834 379.165 532.614 379.433 529.006L379.656 526.181C379.879 523.353 379.969 520.702 380.194 517.875C380.376 513.657 380.341 510.092 379.738 506.915C378.792 501.302 376.54 496.341 372.982 492.026C370.727 489.238 367.905 486.838 365.127 484.744C362.52 482.779 359.522 481.337 356.305 480.546C352.436 479.536 348.39 479.484 343.651 479.993C340.91 480.378 337.735 480.979 334.294 481.928C330.859 482.875 327.595 483.954 324.33 485.035L322.412 485.767C318.237 486.976 313.797 488.528 309.271 489.473C305.356 490.336 302.006 490.805 298.787 491.101C294.784 491.352 290.521 491.949 286.648 493.112C281.122 494.665 276.028 497.088 271.629 500.033C268.669 502.158 266.052 504.542 263.786 507.189C261.782 509.489 259.992 512.225 258.812 514.874C255.362 522.345 254.735 530.041 257.244 537.917C258.669 542.53 261.096 546.538 264.831 549.895C265.22 550.463 265.568 550.725 266.089 551.118L268.694 553.081C270.257 554.259 271.952 555.262 273.3 556.006C277.297 557.93 281.424 559.678 285.208 561.166L285.381 561.296C288.857 562.828 292.464 564.186 295.807 565.889C297.155 566.633 298.98 567.463 300.544 568.641C302.628 570.212 304.539 571.652 306.145 573.133C308.315 575.314 310.7 577.929 313.131 580.848C314.259 582.244 315.431 583.941 316.559 585.336C318.077 587.297 319.769 589.389 321.46 591.481C323.152 593.572 325.017 595.794 327.449 597.627L331.617 600.768C331.965 601.03 332.271 600.989 333.009 600.729C334.051 601.514 335.4 602.256 336.703 602.696C340.006 604.093 343.702 604.973 347.746 605.028C353.051 605.216 358.187 604.185 362.672 601.846C367.592 599.293 371.598 595.78 374.957 590.963C376.747 588.228 378.45 584.884 379.499 581.319C380.945 577.236 381.736 572.934 381.832 568.106Z" fill="#FEAE23" fill-opacity="0.4"/>
</g>
<path d="M447.302 544.436C449.249 540.624 450.07 536.422 449.699 532.578C449.267 527.842 447.361 523.794 444.072 520.279C441.943 518.078 439.537 516.536 436.689 515.152C432.274 513.238 427.604 512.28 422.076 512.605C419.608 512.735 417.171 513.184 414.909 513.765C407.757 515.56 401.658 519.133 396.857 524.171C394.378 526.63 392.392 529.518 391.168 532.514C389.543 536.298 388.825 540.032 389.21 543.857C389.63 548.613 391.579 552.965 394.986 556.323C395.322 556.602 395.643 556.9 395.963 557.195C397.931 558.924 400.323 560.481 403.291 561.384C407.708 563.295 412.674 563.934 418.045 563.491C421.871 563.11 425.665 562.129 429.281 560.689C433.941 558.731 438.095 556.037 441.598 552.439L442.028 551.975C442.456 551.48 442.9 551.002 443.327 550.504L443.772 550.025C445.218 548.393 446.332 546.482 447.302 544.436Z" fill="#FEAE23" fill-opacity="0.4"/>
</g>
<defs>
<filter id="filter0_d_92_753" x="517.717" y="33.0069" width="202.068" height="206.042" filterUnits="userSpaceOnUse" color-interpolation-filters="sRGB">
<feFlood flood-opacity="0" result="BackgroundImageFix"/>
<feColorMatrix in="SourceAlpha" type="matrix" values="0 0 0 0 0 0 0 0 0 0 0 0 0 0 0 0 0 0 127 0" result="hardAlpha"/>
<feOffset dy="3"/>
<feGaussianBlur stdDeviation="2"/>
<feComposite in2="hardAlpha" operator="out"/>
<feColorMatrix type="matrix" values="0 0 0 0 0 0 0 0 0 0 0 0 0 0 0 0 0 0 0.25 0"/>
<feBlend mode="normal" in2="BackgroundImageFix" result="effect1_dropShadow_92_753"/>
<feBlend mode="normal" in="SourceGraphic" in2="effect1_dropShadow_92_753" result="shape"/>
</filter>
<filter id="filter1_d_92_753" x="319.717" y="699.007" width="202.068" height="206.042" filterUnits="userSpaceOnUse" color-interpolation-filters="sRGB">
<feFlood flood-opacity="0" result="BackgroundImageFix"/>
<feColorMatrix in="SourceAlpha" type="matrix" values="0 0 0 0 0 0 0 0 0 0 0 0 0 0 0 0 0 0 127 0" result="hardAlpha"/>
<feOffset dy="3"/>
<feGaussianBlur stdDeviation="2"/>
<feComposite in2="hardAlpha" operator="out"/>
<feColorMatrix type="matrix" values="0 0 0 0 0 0 0 0 0 0 0 0 0 0 0 0 0 0 0.25 0"/>
<feBlend mode="normal" in2="BackgroundImageFix" result="effect1_dropShadow_92_753"/>
<feBlend mode="normal" in="SourceGraphic" in2="effect1_dropShadow_92_753" result="shape"/>
</filter>
<filter id="filter2_d_92_753" x="29.7178" y="825.007" width="202.067" height="206.042" filterUnits="userSpaceOnUse" color-interpolation-filters="sRGB">
<feFlood flood-opacity="0" result="BackgroundImageFix"/>
<feColorMatrix in="SourceAlpha" type="matrix" values="0 0 0 0 0 0 0 0 0 0 0 0 0 0 0 0 0 0 127 0" result="hardAlpha"/>
<feOffset dy="3"/>
<feGaussianBlur stdDeviation="2"/>
<feComposite in2="hardAlpha" operator="out"/>
<feColorMatrix type="matrix" values="0 0 0 0 0 0 0 0 0 0 0 0 0 0 0 0 0 0 0.25 0"/>
<feBlend mode="normal" in2="BackgroundImageFix" result="effect1_dropShadow_92_753"/>
<feBlend mode="normal" in="SourceGraphic" in2="effect1_dropShadow_92_753" result="shape"/>
</filter>
<filter id="filter3_d_92_753" x="575.717" y="326.007" width="202.068" height="206.042" filterUnits="userSpaceOnUse" color-interpolation-filters="sRGB">
<feFlood flood-opacity="0" result="BackgroundImageFix"/>
<feColorMatrix in="SourceAlpha" type="matrix" values="0 0 0 0 0 0 0 0 0 0 0 0 0 0 0 0 0 0 127 0" result="hardAlpha"/>
<feOffset dy="3"/>
<feGaussianBlur stdDeviation="2"/>
<feComposite in2="hardAlpha" operator="out"/>
<feColorMatrix type="matrix" values="0 0 0 0 0 0 0 0 0 0 0 0 0 0 0 0 0 0 0.25 0"/>
<feBlend mode="normal" in2="BackgroundImageFix" result="effect1_dropShadow_92_753"/>
<feBlend mode="normal" in="SourceGraphic" in2="effect1_dropShadow_92_753" result="shape"/>
</filter>
<filter id="filter4_d_92_753" x="251.717" y="406.007" width="202.068" height="206.042" filterUnits="userSpaceOnUse" color-interpolation-filters="sRGB">
<feFlood flood-opacity="0" result="BackgroundImageFix"/>
<feColorMatrix in="SourceAlpha" type="matrix" values="0 0 0 0 0 0 0 0 0 0 0 0 0 0 0 0 0 0 127 0" result="hardAlpha"/>
<feOffset dy="3"/>
<feGaussianBlur stdDeviation="2"/>
<feComposite in2="hardAlpha" operator="out"/>
<feColorMatrix type="matrix" values="0 0 0 0 0 0 0 0 0 0 0 0 0 0 0 0 0 0 0.25 0"/>
<feBlend mode="normal" in2="BackgroundImageFix" result="effect1_dropShadow_92_753"/>
<feBlend mode="normal" in="SourceGraphic" in2="effect1_dropShadow_92_753" result="shape"/>
</filter>
</defs>
</svg>
